<svg xmlns="http://www.w3.org/2000/svg" xmlns:xlink="http://www.w3.org/1999/xlink" width="600" height="120" viewBox="0 0 600 120"><defs><style>.cls-1{fill:url(#グリーン);}.cls-2{fill:#fff;}.cls-3,.cls-4{fill:none;stroke:#fff;}.cls-3{stroke-linecap:round;stroke-linejoin:round;stroke-width:2.84px;}.cls-4{stroke-miterlimit:10;stroke-width:2.07px;}</style><linearGradient id="グリーン" x1="300" y1="118.97" x2="300" y2="1.03" gradientUnits="userSpaceOnUse"><stop offset="0" stop-color="#66bc81"/><stop offset="0.5" stop-color="#094"/><stop offset="1" stop-color="#008a43"/></linearGradient></defs><title>bn_mail</title><g id="レイヤー_2" data-name="レイヤー 2"><g id="レイヤー_1-2" data-name="レイヤー 1"><rect class="cls-1" x="1.03" y="1.03" width="597.95" height="117.95" rx="14.36" ry="14.36"/><path class="cls-2" d="M584.62,2.05A13.35,13.35,0,0,1,598,15.38v89.24A13.35,13.35,0,0,1,584.62,118H15.38A13.35,13.35,0,0,1,2.05,104.62V15.38A13.35,13.35,0,0,1,15.38,2.05H584.62m0-2H15.38A15.39,15.39,0,0,0,0,15.38v89.24A15.39,15.39,0,0,0,15.38,120H584.62A15.39,15.39,0,0,0,600,104.62V15.38A15.39,15.39,0,0,0,584.62,0Z"/><path class="cls-2" d="M169.8,19a27.33,27.33,0,0,0-1.69,3.43c-3,7.11-4.92,10.74-6.8,13.51A114.87,114.87,0,0,1,172.06,46.1L167.43,51a71.17,71.17,0,0,0-9.78-10.07,54.48,54.48,0,0,1-7.52,8,61.23,61.23,0,0,1-11.47,7.88,14.87,14.87,0,0,0-4.24-5,49.41,49.41,0,0,0,12.48-8.26A49.29,49.29,0,0,0,153,37.08a85.44,85.44,0,0,0-12.77-8.59l4.24-4.2c3.52,2.05,5.59,3.38,7.95,5.05,3.62,2.58,3.62,2.58,4,2.82,3.09-5,6.17-11.93,6.8-15.37Z"/><path class="cls-2" d="M182.43,33.4a47.1,47.1,0,0,0,7.81.34h25.69a47.17,47.17,0,0,0,7.81-.34V40c-1.93-.24-2.46-.24-7.86-.24h-25.6c-5.39,0-5.92,0-7.85.24Z"/><path class="cls-2" d="M245,18c-.2,1.34-.2,1.34-.49,10.69s-1.39,14.7-3.9,19.62A30.46,30.46,0,0,1,234,57.17a17.16,17.16,0,0,0-4.87-4.63,19.62,19.62,0,0,0,5-5.49c3.48-5.49,4.58-11.64,4.58-25a24.1,24.1,0,0,0-.19-4.34Zm12.77-.57a25.82,25.82,0,0,0-.34,4.53l-.24,27.16a19.28,19.28,0,0,0,7.38-5.44A23.38,23.38,0,0,0,269.29,35a20.07,20.07,0,0,0,4.53,4.48,29.46,29.46,0,0,1-7.66,11.12c-2.75,2.34-5.26,3.78-10.27,5.73a19.13,19.13,0,0,0-2.07.86l-3.09-3.24a21.14,21.14,0,0,0,.44-5.06L251.41,22V20.51a19.57,19.57,0,0,0-.2-3.14Z"/><path class="cls-2" d="M285.78,46.58V49.3h-5.69a36.49,36.49,0,0,0,.24-4.92V25.86a32,32,0,0,0-.24-4.58c1.78.14,2.94.19,5.35.19h11.09V20.09a30.81,30.81,0,0,0-.29-5.21h6a27,27,0,0,0-.34,5v1.58H313.3c2.75,0,3.81,0,5.55-.19a29.09,29.09,0,0,0-.25,4.53V44.38a32.41,32.41,0,0,0,.25,4.92h-5.74V46.58H301.88V53a36.9,36.9,0,0,0,.34,6h-6a41,41,0,0,0,.34-6V46.58Zm0-20.34v5.35h10.75V26.24Zm0,10.07V41.8h10.75V36.31Zm16.1-4.72h11.23V26.24H301.88Zm0,10.21h11.23V36.31H301.88Z"/><path class="cls-2" d="M325.89,32.83a21.75,21.75,0,0,0,3.85.24h3.95a21.24,21.24,0,0,0,3.67-.24,47.35,47.35,0,0,0-.19,5.25v10a6,6,0,0,0,2.74,3.06c2.32,1.43,4.82,1.77,13.11,1.77a133.92,133.92,0,0,0,17.89-1,26.08,26.08,0,0,0-1.45,5.68c-4.29.15-11.28.29-14.6.29-7.91,0-11.81-.29-14.32-1.1a11.42,11.42,0,0,1-6.12-4.49,42,42,0,0,1-5,4.25c-.82.62-1.11.86-1.44,1.15l-.73.57-2.36-5.44a30.53,30.53,0,0,0,7.18-4.68V37.84h-2.94a17.9,17.9,0,0,0-3.27.24Zm4.57-17.23a59,59,0,0,1,8.44,8.73l-4,3.87a49.22,49.22,0,0,0-8.29-9ZM346,21.47a24.66,24.66,0,0,0-4,.24V16.55a21.62,21.62,0,0,0,4,.24h6.89a23.54,23.54,0,0,0,3.52-.19,24.89,24.89,0,0,0-.1,2.58A32.5,32.5,0,0,0,359.48,33c2.46,5.25,5.35,8.54,10.61,12.27a22.77,22.77,0,0,0-3.18,5,34.86,34.86,0,0,1-7.72-7.45c-2.41-3.2-3.76-6.11-5.4-11.31a27.87,27.87,0,0,1-5.25,11.65A30.71,30.71,0,0,1,342,49.73a27.3,27.3,0,0,0-3.8-4.16,25.81,25.81,0,0,0,6.36-6.11,30.89,30.89,0,0,0,5.35-11.36,34.88,34.88,0,0,0,.91-6.63Z"/><path class="cls-2" d="M401.66,36.89a5.74,5.74,0,1,1-5.73-5.68A5.69,5.69,0,0,1,401.66,36.89Z"/><path class="cls-2" d="M429.14,52.88a41,41,0,0,0,.29,5.87h-5.64a42.77,42.77,0,0,0,.29-5.92V21.57c0-2.53-.05-3.87-.19-5.4a46.21,46.21,0,0,0,4.91.19h8.53a41.89,41.89,0,0,0,4.92-.19c-.09,1.53-.14,2.63-.14,4.49v7.87c0,2.15.05,3.25.14,4.3-1.16-.1-2.84-.14-4.43-.14h-8.68Zm0-30.12h8.24V20.28h-8.24Zm0,6.2h8.24V26.43h-8.24Zm24.39,18.9a28.59,28.59,0,0,0,.15,3.25,33.83,33.83,0,0,0-3.43-.14H439.5v3.19h-5.11a40.46,40.46,0,0,0,.25-4.63V39.32a32.89,32.89,0,0,0-.15-3.34c1.06.1,2.17.14,3.57.14H450c1.5,0,2.7,0,3.72-.14a30,30,0,0,0-.15,3.29Zm-14-1.24h9.16V40.37H439.5Zm24.88,6.26c0,2.62-.44,3.86-1.69,4.63-1,.57-2.27.76-5.06.76-.77,0-1.3,0-4.48-.19A16.69,16.69,0,0,0,451.8,53a56.26,56.26,0,0,0,5.92.43c1.35,0,1.6-.19,1.6-1.24V32.69H450c-1.59,0-3.32,0-4.38.14,0-1.29.09-2.24.09-4.3V20.66c0-1.82-.05-3.1-.14-4.49a44.42,44.42,0,0,0,4.91.19h9.16a47.46,47.46,0,0,0,5-.19,40.47,40.47,0,0,0-.24,5.35ZM450.49,22.76h8.83V20.28h-8.83Zm0,6.2h8.83V26.43h-8.83Z"/><path class="cls-2" d="M480,30.73a49.12,49.12,0,0,1-7.71,4,18.31,18.31,0,0,0-2.8-4.87A48.46,48.46,0,0,0,481.73,23a33.55,33.55,0,0,0,7.57-8H495a31.35,31.35,0,0,0,8.09,8.06,45.27,45.27,0,0,0,12.3,6.54,25.6,25.6,0,0,0-2.66,5.25,47.14,47.14,0,0,1-7.85-4.2V34a36.19,36.19,0,0,0-4.34-.19H484.09A37.31,37.31,0,0,0,480,34ZM476,58.65a36.66,36.66,0,0,0,.29-5.06V42.47a41.23,41.23,0,0,0-.24-4.72,31.28,31.28,0,0,0,4.15.19h24.1a32.46,32.46,0,0,0,4.19-.19,32.52,32.52,0,0,0-.24,4.72V53.64a29.65,29.65,0,0,0,.29,5h-5.74V56.22H481.78v2.43Zm5.74-7.11h21.06v-9H481.78Zm18.75-22.67h1.64a44,44,0,0,1-9.93-9.31,33.42,33.42,0,0,1-9.45,9.31h17.74Z"/><path class="cls-2" d="M557.46,55.17c-.53,0-.53,0-2.17.24-3.52.38-9.88.71-13.06.71-9,0-12.92-1.72-14.37-6.3-.67-2.15-.86-4.82-.86-13,0-.71,0-.91,0-4.63-6.74.48-6.74.48-8.91.86l-.39-5.58c.68,0,1.16,0,1.4,0,.43,0,3.08-.14,7.86-.43,0-.76,0-1.19,0-1.48,0-5.06,0-6.39-.33-8.11h6.46c-.29,1.77-.29,1.77-.44,9.31,6.75-.34,6.75-.34,13.93-.67,0-7.59,0-7.59-.29-9.45h6a21.9,21.9,0,0,0-.24,3.29v6c7.76-.24,7.76-.24,9.35-.43l.1,5.68a17.52,17.52,0,0,0-2.75-.14c-1.69,0-4.44,0-6.7,0,0,4.82-.48,8.4-1.25,10.12A5.89,5.89,0,0,1,545,44.76a16,16,0,0,1-6.89-1.62c0-1,0-1.24,0-1.91a25.19,25.19,0,0,0-.34-3.91c2.61,1.47,4.87,2.33,6.32,2.33,1.25,0,1.78-.62,2.07-2.48a39.74,39.74,0,0,0,.43-6c-7.32.28-7.32.28-14,.67v1.28c0,.24,0,.24,0,2.77v1c0,2.49.14,7.69.24,8.64.38,4,2.46,5,10.31,5,6.27,0,10.8-.57,13.94-1.81Z"/><path class="cls-2" d="M122.36,100.85a15.32,15.32,0,0,0-2.28.1,9.3,9.3,0,0,1,.6-2.7,9.11,9.11,0,0,1,2.69-3.53,29.08,29.08,0,0,1,3.17-2.25c2-1.37,2.73-2.27,2.73-3.52,0-1.56-1.33-2.56-3.44-2.56a3.44,3.44,0,0,0-3,1.33,4.08,4.08,0,0,0-.72,2.07l-1.74-.29a5.59,5.59,0,0,1,1.3-3A5.35,5.35,0,0,1,125.83,85C129,85,131,86.53,131,89a4.25,4.25,0,0,1-1.22,2.91,16.76,16.76,0,0,1-3.51,2.64,11,11,0,0,0-3,2.52,5.75,5.75,0,0,0-1.18,2.37h6.6a18.6,18.6,0,0,0,2.52-.14V101a24.06,24.06,0,0,0-2.54-.12Z"/><path class="cls-2" d="M133.09,95.42c.44-.49.91-1.07,1.35-1.58l5.23-6.47a22.45,22.45,0,0,0,1.56-2.09h1.55a31.77,31.77,0,0,0-.13,3.46v6.72h.79a14.29,14.29,0,0,0,2.15-.14V97a13.29,13.29,0,0,0-2.17-.15h-.77v1.76a12,12,0,0,0,.17,2.22h-1.88a12.22,12.22,0,0,0,.16-2.22V96.87h-5.54a22.93,22.93,0,0,0-2.47.09Zm8-5.14a23,23,0,0,1,.13-2.78c-.44.61-1,1.29-1.55,2l-4.76,5.94h6.18Z"/><path class="cls-2" d="M153.31,87.08a17.21,17.21,0,0,0-.08-2,19,19,0,0,0,1.9.06h1.53a18.2,18.2,0,0,0,1.86-.06,15.56,15.56,0,0,0-.06,2V98.35c0,1,0,1.51.06,2h-1.28v-1h-2.71V101h-1.35a15,15,0,0,0,.13-2.17Zm1.22,4.33h2.71V86.33h-2.71Zm0,6.73h2.71V92.51h-2.71Zm7.22-10.56a18.83,18.83,0,0,0-2,.1V86.33a12.64,12.64,0,0,0,2,.12h2.19v-.66a10.66,10.66,0,0,0-.12-1.65h1.53a10.12,10.12,0,0,0-.12,1.65v.66h2.93a13,13,0,0,0,2-.12v1.35a17.72,17.72,0,0,0-2-.1h-2.93v2.66h3.66a14,14,0,0,0,2.09-.12v1.37a13.78,13.78,0,0,0-2-.12h-.68v2.39h.64a13.15,13.15,0,0,0,2-.12v1.41a14.27,14.27,0,0,0-2-.12h-.64v5.73c0,1.31-.46,1.62-2.38,1.62-.33,0-.66,0-1.86-.08a3.72,3.72,0,0,0-.33-1.35,15.34,15.34,0,0,0,2.35.24c.79,0,.94-.08.94-.53V94.93h-5.84a15.94,15.94,0,0,0-2.07.12V93.64a13.67,13.67,0,0,0,2.09.12H167V91.37h-5.82a15.61,15.61,0,0,0-2.09.12V90.12a14.23,14.23,0,0,0,2.09.12h2.75V87.58Zm1.59,12.3a18.7,18.7,0,0,0-2.87-3.44l1-.71a21.65,21.65,0,0,1,3,3.33Z"/><path class="cls-2" d="M175.28,100.13a13.49,13.49,0,0,0,.13,2.29h-1.54a14,14,0,0,0,.13-2.29V86.9c0-1,0-1.6-.08-2.25a19.71,19.71,0,0,0,2.17.08h3a18.83,18.83,0,0,0,2.11-.08c0,.57-.06,1.19-.06,1.94v2.54c0,.82,0,1.4.06,1.91-.56,0-1.26-.06-2.09-.06h-3.79Zm0-12.76h4.64V85.73h-4.64Zm0,2.62h4.64V88.33h-4.64Zm10.86,7.76c0,.78,0,1.33.07,1.87-.58,0-1.27-.06-2.11-.06h-4.54V101h-1.28a13,13,0,0,0,.1-1.93V94.52c0-.74,0-1.33-.06-1.93a16.61,16.61,0,0,0,2.05.09h3.79a16.51,16.51,0,0,0,2.05-.09c-.05.58-.07,1.11-.07,1.93Zm-6.58-2.23H185V93.7h-5.4Zm0,3H185v-2h-5.4Zm11.09,1.91c0,1.35-.43,1.7-2.11,1.7-.43,0-1.55,0-2.07-.09a4.48,4.48,0,0,0-.37-1.31,21.17,21.17,0,0,0,2.28.21c.85,0,1-.1,1-.6V91h-4.24c-.87,0-1.53,0-2.09.06,0-.54.06-1.15.06-1.91V86.59c0-.71,0-1.33-.06-1.94a18.6,18.6,0,0,0,2.11.08h3.41a19.92,19.92,0,0,0,2.18-.08,17.66,17.66,0,0,0-.11,2.25ZM184.3,87.37h5.09V85.73H184.3Zm0,2.62h5.09V88.33H184.3Z"/><path class="cls-2" d="M194.71,96.89a21.07,21.07,0,0,1,4.16,4.35l-1.16,1.08a20.81,20.81,0,0,0-4.08-4.46Z"/><path class="cls-2" d="M216,97.06A3.09,3.09,0,0,0,217.3,99a4.62,4.62,0,0,0,2.67.74c2.4,0,3.91-1.23,3.91-3.17s-1.47-3.14-4.22-3.14a13,13,0,0,0-1.66.11V91.92a9.26,9.26,0,0,0,1.54.12,4.19,4.19,0,0,0,3-.94,2.83,2.83,0,0,0,.82-2c0-1.76-1.24-2.78-3.33-2.78a3.29,3.29,0,0,0-2.75,1.08,3.92,3.92,0,0,0-.66,1.46l-1.72-.37a4.58,4.58,0,0,1,1.12-2A5.42,5.42,0,0,1,220.16,85c3,0,4.9,1.55,4.9,4a3.59,3.59,0,0,1-1.45,3,4.32,4.32,0,0,1-1.94.74,4.37,4.37,0,0,1,2.54.88,3.73,3.73,0,0,1,1.39,3.09c0,2.76-2.15,4.48-5.61,4.48a5.91,5.91,0,0,1-4.63-1.68,5.18,5.18,0,0,1-1.06-2Z"/><path class="cls-2" d="M237.35,88.68a4,4,0,0,0-.72-1.29,3.21,3.21,0,0,0-2.47-1,3.78,3.78,0,0,0-3.58,2.54,11.67,11.67,0,0,0-.87,4.4,4.42,4.42,0,0,1,1-1.31,5,5,0,0,1,3.5-1.25c3.2,0,5.19,2,5.19,5.12s-2.15,5.26-5.42,5.26a5.6,5.6,0,0,1-3.75-1.29c-1.34-1.23-2.09-3.52-2.09-6.43a10.76,10.76,0,0,1,1.58-6.18A5.18,5.18,0,0,1,234.12,85a5.5,5.5,0,0,1,3.15.86A5.12,5.12,0,0,1,239,88.15ZM234,92.12a4.21,4.21,0,0,0-2.86,1.17,3.58,3.58,0,0,0-1,2.6,3.93,3.93,0,0,0,7.14,2.19,4.38,4.38,0,0,0,.53-2.17A3.43,3.43,0,0,0,234,92.12Z"/><path class="cls-2" d="M244.2,91.22a5.11,5.11,0,0,1-.17.92,5.07,5.07,0,0,1,3.62-1.41,5.24,5.24,0,0,1,3.73,1.39,4.73,4.73,0,0,1,1.38,3.61c0,3.29-2.17,5.4-5.58,5.4a5.66,5.66,0,0,1-4-1.39,6.54,6.54,0,0,1-1.3-1.92l1.7-.5a3.12,3.12,0,0,0,.66,1.19,3.86,3.86,0,0,0,2.94,1.21,3.67,3.67,0,0,0,3.87-3.91,3.46,3.46,0,0,0-3.62-3.73,4.32,4.32,0,0,0-2.71.86,2.66,2.66,0,0,0-1,1.23L242.25,94a15.07,15.07,0,0,0,.31-2.11l.46-4.63c0-.59.06-.84.06-1.23a8.33,8.33,0,0,0,0-.88,14.5,14.5,0,0,0,2.19.1h4.26a14.16,14.16,0,0,0,2.43-.16v1.74a14.93,14.93,0,0,0-2.43-.16h-4.86Z"/><path class="cls-2" d="M262.94,87a14.63,14.63,0,0,0-.1-2,17.39,17.39,0,0,0,2.21.1h9.31a15.68,15.68,0,0,0,2.14-.1,11.67,11.67,0,0,0-.11,1.88V100a14.42,14.42,0,0,0,.13,2.19H275v-1.33H264.33v1.33h-1.51a16.17,16.17,0,0,0,.12-2.17Zm1.39,5.08H275V86.37H264.33Zm0,7.54H275V93.35H264.33Z"/><path class="cls-2" d="M296.46,93.88a5.5,5.5,0,0,0-.7.74,18.76,18.76,0,0,1-4.2,3.93,21.8,21.8,0,0,0,8.17,2.54,6.43,6.43,0,0,0-.75,1.33,21,21,0,0,1-8.62-3.11,24.94,24.94,0,0,1-8.43,3.07,4.94,4.94,0,0,0-.74-1.29,22.5,22.5,0,0,0,8.05-2.58,13.58,13.58,0,0,1-3.71-4.36,14.91,14.91,0,0,0-1.53.12V92.9a13.92,13.92,0,0,0,2.07.12h7.7a10.19,10.19,0,0,0,1.82-.1Zm-10.93-4.34a17.76,17.76,0,0,0-1.09-2.74c-.44,0-.77,0-1.84,0a3.72,3.72,0,0,0-.48-1.21A67,67,0,0,0,291.8,85a21.65,21.65,0,0,0,5.42-1.19l.91,1.21a6.5,6.5,0,0,0-.82.18,59.56,59.56,0,0,1-7.08,1.17,19.66,19.66,0,0,1,1.1,3.13h2.4a17.18,17.18,0,0,0,1.74-3.64l1.34.47a33.34,33.34,0,0,1-1.68,3.17h1.76a22.82,22.82,0,0,0,2.36-.08,12.39,12.39,0,0,0-.08,1.56v1.33a6.17,6.17,0,0,0,.1,1.27h-1.4V90.75h-15v3h-1.41a10.54,10.54,0,0,0,.1-1.45V91c0-.54,0-1-.08-1.54a20,20,0,0,0,2.54.1Zm4.51,0a18.29,18.29,0,0,0-1.09-3c-1,.08-1.74.15-3.25.21a18.82,18.82,0,0,1,1.16,2.8Zm-3.1,4.61a11.23,11.23,0,0,0,3.46,3.69,16.26,16.26,0,0,0,4.09-3.69Z"/><path class="cls-2" d="M306.1,100c0,.94,0,1.72.1,2.43h-1.55a20.79,20.79,0,0,0,.13-2.47V93.15c0-.9,0-1.54.08-2.48a17.24,17.24,0,0,1-2.32,3.15l-.14-.22a3.13,3.13,0,0,0-.77-.9,20.34,20.34,0,0,0,4.16-6.25,11,11,0,0,0,.91-2.62l1.49.47a7.86,7.86,0,0,0-.52,1.17c-.29.71-.95,2.13-1.57,3.29Zm11.19.24c0,1.35-.43,1.68-2.29,1.68-.81,0-1.6,0-2.51-.12a4.35,4.35,0,0,0-.39-1.39,17.46,17.46,0,0,0,2.83.24c.85,0,1-.1,1-.53V90h-6.5a16.28,16.28,0,0,0-2.21.13V88.72a14.11,14.11,0,0,0,2.15.13H316V86.49a14.22,14.22,0,0,0-.15-2.39h1.6a17.75,17.75,0,0,0-.13,2.39v2.36h1a11.76,11.76,0,0,0,2-.13v1.4a18.13,18.13,0,0,0-2-.09h-1Zm-7.59-8.41a25.86,25.86,0,0,1,3.5,4.62l-1.16.89a21.06,21.06,0,0,0-3.42-4.78Z"/><path class="cls-2" d="M330.89,86a12,12,0,0,0-.15-2.13h1.66a11.48,11.48,0,0,0-.15,2.09v1.8h6.06a11.54,11.54,0,0,0,1.58-.08,8.9,8.9,0,0,0-.11,1.62v5.59a11.81,11.81,0,0,0,.13,1.82h-1.49V95.34h-6.17v4.77a10.87,10.87,0,0,0,.15,2.33h-1.66a14.19,14.19,0,0,0,.15-2.33V95.34h-5.84v1.39h-1.49a13.21,13.21,0,0,0,.13-1.82V89.32a13,13,0,0,0-.11-1.62,11.72,11.72,0,0,0,1.55.08h5.76Zm-5.84,3v5.1h5.84V89Zm13.37,5.1V89h-6.17v5.1Z"/><path class="cls-2" d="M349.42,99.23a3.1,3.1,0,1,1-3.1-3.07A3.08,3.08,0,0,1,349.42,99.23Zm-5,0a1.92,1.92,0,1,0,1.92-1.91A1.92,1.92,0,0,0,344.4,99.23Z"/><path class="cls-2" d="M372.22,86.25a14.66,14.66,0,0,0-.14-2.15h1.7a12.88,12.88,0,0,0-.15,2.15v4.4h4.82a15.32,15.32,0,0,0,2.24-.12V92a17.23,17.23,0,0,0-2.24-.1h-4.82v8.17H380a18.61,18.61,0,0,0,2.34-.12v1.55a17,17,0,0,0-2.34-.14H366.41a18.46,18.46,0,0,0-2.46.14V100a19.84,19.84,0,0,0,2.46.12h5.81V91.92h-4.34a17,17,0,0,0-2.26.1V90.53a15.83,15.83,0,0,0,2.26.12h4.34Z"/><path class="cls-2" d="M387.08,87a13.05,13.05,0,0,0-.11-2,17.66,17.66,0,0,0,2.22.1h9.31a15.52,15.52,0,0,0,2.13-.1,13.08,13.08,0,0,0-.1,1.88V100a16.09,16.09,0,0,0,.12,2.19h-1.51v-1.33H388.46v1.33H387a14.49,14.49,0,0,0,.13-2.17Zm1.38,5.08h10.68V86.37H388.46Zm0,7.54h10.68V93.35H388.46Z"/><path class="cls-2" d="M408.12,97v1.25h-1.47a13.48,13.48,0,0,0,.12-1.85V88.85a11.58,11.58,0,0,0-.12-1.95,19,19,0,0,0,2.28.1h4.69V86a12,12,0,0,0-.14-2.11h1.61A12.17,12.17,0,0,0,415,86v1h5a19.47,19.47,0,0,0,2.38-.1,13.26,13.26,0,0,0-.1,1.91v7.61a13.27,13.27,0,0,0,.12,1.85h-1.46V97H415v3.09a11.73,11.73,0,0,0,.14,2.33h-1.61a14.3,14.3,0,0,0,.14-2.33V97Zm0-8.83v3.15h5.5V88.19Zm0,4.32v3.32h5.5V92.51ZM415,91.34h5.92V88.19H415Zm0,4.49h5.92V92.51H415Z"/><path class="cls-2" d="M426,91.86a8.3,8.3,0,0,0,1.59.1h1.26a9.75,9.75,0,0,0,1.59-.1,15.57,15.57,0,0,0-.1,2.15v4a3.28,3.28,0,0,0,1.74,1.84c1,.51,2.19.66,5.4.66a55.64,55.64,0,0,0,7.49-.41,6.84,6.84,0,0,0-.48,1.51c-1.92.09-4.28.15-6.08.15-3.46,0-4.72-.08-5.75-.39a5.08,5.08,0,0,1-3-2.3,22,22,0,0,1-2.14,1.87,14,14,0,0,0-1.17,1l-.69-1.37a15,15,0,0,0,3.42-2.46V93.13h-1.53a8.15,8.15,0,0,0-1.51.1Zm1.69-7.44a26.29,26.29,0,0,1,3.37,3.69L430,89a20,20,0,0,0-3.27-3.77Zm6.91,1.72a8.6,8.6,0,0,0-1.65.11V84.87a8.22,8.22,0,0,0,1.67.11h2.11a9,9,0,0,0,1.56-.09,5.8,5.8,0,0,0-.09,1.11A14,14,0,0,0,440,92.7a14.3,14.3,0,0,0,2.3,3.19,10,10,0,0,0,2.17,1.76,5.24,5.24,0,0,0-.91,1.17,13.28,13.28,0,0,1-3.76-3.91,14.45,14.45,0,0,1-2.22-5.59,13.42,13.42,0,0,1-1,3.64A14.43,14.43,0,0,1,434,97a13.75,13.75,0,0,1-1.63,1.49,5.11,5.11,0,0,0-1-1,11.82,11.82,0,0,0,2.76-2.71,14.63,14.63,0,0,0,2.73-8.62Z"/><path class="cls-2" d="M451.07,85.16a28.93,28.93,0,0,0-1.59,9.6c0,.72,0,1.93.08,2.87,0,.16,0,.21,0,.57v.39l.08,0a18.9,18.9,0,0,1,1.22-3.6,2.11,2.11,0,0,0,.17-.41l1,.47a17.64,17.64,0,0,0-1.78,5.82,1.87,1.87,0,0,0,.05.41l-1.47.14c0-.18,0-.29-.13-.76a32.4,32.4,0,0,1-.58-6.08,34.32,34.32,0,0,1,1.08-8.42,8.7,8.7,0,0,0,.23-1.29ZM453.16,89a14.66,14.66,0,0,0,3.72.33c.81,0,1.37,0,2.22-.06,0-1.93,0-1.93,0-3.49a4.76,4.76,0,0,0-.06-.84h1.55a19.81,19.81,0,0,0-.15,3.22c0,.22,0,.55,0,1a14.31,14.31,0,0,0,3.58-.75l.06,1.39-1.44.28a17.76,17.76,0,0,1-2.2.33c0,2,.07,3.07.23,5.8a15,15,0,0,1,3.46,2c.25.17.29.21.51.35L464,100a11.08,11.08,0,0,0-2.94-2.13l-.2-.13-.19-.12a3,3,0,0,1,0,.53,3.36,3.36,0,0,1-.25,1.39c-.49,1.09-1.75,1.73-3.45,1.73-2.4,0-3.91-1.13-3.91-2.91s1.63-2.91,3.93-2.91a5.85,5.85,0,0,1,2.3.41c-.07-.43-.15-2.36-.21-5.35-.93,0-1.57.07-2.36.07s-1.61,0-2.34-.07a5.59,5.59,0,0,0-.66,0l-.35,0-.21,0h-.08Zm4,7.68c-1.61,0-2.67.67-2.67,1.7s1,1.66,2.4,1.66a2.87,2.87,0,0,0,2.11-.72,2.37,2.37,0,0,0,.4-1.6c0-.14,0-.61,0-.61A5.38,5.38,0,0,0,457.13,96.65Z"/><path class="cls-2" d="M482.27,85.71a5.89,5.89,0,0,0-.64,1.25,33.26,33.26,0,0,1-3,6,54.39,54.39,0,0,1,4.76,4.4l-1.16,1.27a29.7,29.7,0,0,0-4.51-4.44,24.75,24.75,0,0,1-8.32,7.13,3.58,3.58,0,0,0-1.08-1.23,22.07,22.07,0,0,0,8.24-6.84A38.42,38.42,0,0,0,471,89.52l1-1.08A57.58,57.58,0,0,1,477.37,92a28.87,28.87,0,0,0,2.44-4.77,8.61,8.61,0,0,0,.72-2.17Z"/><path class="cls-2" d="M488.7,92.27a15.17,15.17,0,0,0,2.57.12h12a16.82,16.82,0,0,0,2.5-.1V94a21.06,21.06,0,0,0-2.52-.09h-12a20.47,20.47,0,0,0-2.57.09Z"/><path class="cls-2" d="M514.88,85.47a9,9,0,0,0-.13,1.76c-.16,5.55-.33,7.06-1.11,9.13a12.57,12.57,0,0,1-3.58,5.06,3.86,3.86,0,0,0-1.25-1.11,10.07,10.07,0,0,0,3.5-4.71c.64-1.78.93-4.46.93-8.78a9.24,9.24,0,0,0-.08-1.45Zm5.13-.23a8,8,0,0,0-.13,1.8l-.12,12.37A9.59,9.59,0,0,0,523.61,97a10.13,10.13,0,0,0,2.44-4.1,5.68,5.68,0,0,0,1.16,1.19,11.66,11.66,0,0,1-4.16,5.26,13.42,13.42,0,0,1-3,1.5l-.66.24-.48.23-.83-.94a3.33,3.33,0,0,0,.15-1.4l.12-12a8.38,8.38,0,0,0-.08-1.82Z"/><path class="cls-2" d="M533.93,85.24a29,29,0,0,0-.87,3.28,30.25,30.25,0,0,0-.62,6.41c0,1.6,0,2.8.13,3.89a18.92,18.92,0,0,1,1.34-4l1,.47a17.62,17.62,0,0,0-1.67,5.63v.31l-1.49.12c0-.33-.06-.43-.13-.82a29.32,29.32,0,0,1-.53-5.8,33.78,33.78,0,0,1,.93-8.11A12.08,12.08,0,0,0,532.3,85Zm5.28,8.23a4.72,4.72,0,0,0-1.55,3c0,1.52,1.3,2.26,4,2.26a13.78,13.78,0,0,0,4.76-.72l.2,1.58c-.26,0-.31,0-.72.1a21.29,21.29,0,0,1-4.24.41c-2.36,0-3.85-.49-4.74-1.56a2.88,2.88,0,0,1-.62-1.88,5.64,5.64,0,0,1,1.8-3.81Zm-2.63-6.06a13.94,13.94,0,0,0,3.52.31,22.33,22.33,0,0,0,5.54-.55l.11,1.45-1.43.19a36.18,36.18,0,0,1-4.45.26,28.41,28.41,0,0,1-3.31-.2Z"/><path class="cls-2" d="M551,87.45h.75c.29,0,.53,0,1.17-.06,2.47-.18,9.09-.55,11.76-.67a14,14,0,0,0,2.46-.23l.12,1.54a9.86,9.86,0,0,0-2.31.26,10.62,10.62,0,0,0-4,2.07,6.25,6.25,0,0,0-2.54,4.73,4,4,0,0,0,2.9,3.79,10.6,10.6,0,0,0,3.1.66h.21l-.27,1.65-.64-.12a10.51,10.51,0,0,1-4.47-1.58,5,5,0,0,1-2.3-4.17c0-2.38,1.41-4.65,3.87-6.29a13,13,0,0,1,2-1.08,43.31,43.31,0,0,1-4.55.45,62,62,0,0,0-7.14.67Z"/><path class="cls-2" d="M577,99.23a3.11,3.11,0,1,1-3.11-3.07A3.09,3.09,0,0,1,577,99.23Zm-5,0a1.93,1.93,0,1,0,1.92-1.91A1.92,1.92,0,0,0,572,99.23Z"/><rect class="cls-3" x="26.24" y="38.38" width="70.85" height="45.19" rx="2.41" ry="2.41"/><line class="cls-3" x1="49.37" y1="61.91" x2="27.79" y2="82.03"/><line class="cls-3" x1="95.79" y1="82.28" x2="73.81" y2="61.78"/><polyline class="cls-3" points="95.31 40.17 61.66 71.52 27.96 40.12"/><polyline class="cls-3" points="89.91 45.2 61.66 71.52 32.86 44.68"/><line class="cls-4" x1="122.32" y1="70.34" x2="575.43" y2="70.34"/></g></g></svg>