<svg xmlns="http://www.w3.org/2000/svg" width="1200" height="215.1" viewBox="0 0 1200 215.1"><defs><style>.cls-1{fill:#ddb621;}.cls-2{fill:#3c1000;}.cls-3{fill:#fff;}.cls-4{fill:#a7c7e8;}.cls-5{fill:#ac7c2f;}.cls-6{fill:#4c3e37;}.cls-7{fill:#f9d3c1;}.cls-8{fill:#fadfeb;}.cls-9{fill:#fad7b5;}.cls-10{fill:#8a7d6c;}.cls-11{fill:#f4b0a1;}.cls-12{fill:#ada397;}.cls-13{fill:#d4cfc7;}.cls-14{fill:#7b986a;}.cls-15{fill:#f5a900;}.cls-16{fill:#523300;}.cls-17{fill:#f4ac69;}.cls-18{fill:#81674f;}.cls-19{fill:#9e8773;}.cls-20{fill:#f3a89b;}.cls-21{fill:#6f4000;}.cls-22{fill:#915700;}.cls-23{fill:#c3995c;}.cls-24{fill:#fff251;}.cls-25{fill:#ec7fae;}.cls-26{fill:#bed400;}.cls-27{fill:#422a16;}.cls-28{fill:#6e4f00;}.cls-29{fill:#a08d5d;}.cls-30{fill:#0074c0;}.cls-31{fill:#483a29;}.cls-32{fill:#816d51;}.cls-33{fill:#9e9077;}</style></defs><title>family</title><g id="レイヤー_2" data-name="レイヤー 2"><g id="レイヤー_1-2" data-name="レイヤー 1"><line class="cls-1" x1="1.62" y1="191.89" x2="1196.79" y2="191.89"/><path class="cls-2" d="M1196.79,193.51H1.62a1.62,1.62,0,1,1,0-3.24H1196.79a1.62,1.62,0,1,1,0,3.24Z"/><path class="cls-2" d="M1186.24,126.28c-3.34-4.87-7.24-7.34-11.6-7.34a10.94,10.94,0,0,0-5.26,1.37,50.11,50.11,0,0,0-31.3-10.81c-.64,0-1.29,0-1.94,0a50.12,50.12,0,0,0-29.77,11.11,11,11,0,0,0-5.84-1.71,11.21,11.21,0,0,0-4.12.82,28.5,28.5,0,0,0-1.49-12.42c-2.37-6.46-6.47-8.61-9.45-9.28,1-14.14-.66-33.64-13.39-49a28.33,28.33,0,0,1,6.38-2.79,7,7,0,0,0,3.81-10.93c-4.51-6-11.35-9.17-19.77-9.17a40.68,40.68,0,0,0-7.9.83,28.3,28.3,0,0,0-.81-12.08A23.55,23.55,0,0,0,1041.31.72a7.08,7.08,0,0,0-6.77.3,6.9,6.9,0,0,0-3.3,5.84,28.79,28.79,0,0,0-11-2.76,7,7,0,0,0-5.65,2.41,7,7,0,0,0-1.55,5.94l.08.39a59.43,59.43,0,0,0-24.65.86c-20.19,4.91-47.88,19-59.45,42.49A47.24,47.24,0,0,0,924,79a56.13,56.13,0,0,0-2.75-8.82c-.41-1.59-.84-3-1.31-4.44C913.66,47.12,899.06,32,876.55,20.91a33.54,33.54,0,0,0-25.8-8.49A83.66,83.66,0,0,0,837,11.27,86.15,86.15,0,0,0,802,19a5.59,5.59,0,0,0-.41-.66,7,7,0,0,0-8.88-2.1C770.82,27.65,767.07,45.58,767,56.27a141.17,141.17,0,0,0-10.21,27.4,37.34,37.34,0,0,0-3.55-8.47,6.88,6.88,0,0,0-.54-3A25.44,25.44,0,0,0,748,64.62a16.77,16.77,0,0,0-7.84-17.48,7.11,7.11,0,0,0-5.73-.47c-10.35-9.34-28-14.19-52.09-14.19-6.24,0-11.88.33-16.22.7.24-.47.49-.94.76-1.37A7,7,0,0,0,661,21.19a7.34,7.34,0,0,0-1.15.1,25.65,25.65,0,0,0-15.37,9.11,6,6,0,0,0-.57-.42,7.09,7.09,0,0,0-8.43.51c-6.26,5.42-9.69,11.59-10.22,18.35a6.84,6.84,0,0,0-.91-.06,7.56,7.56,0,0,0-1.25.12,7,7,0,0,0-5,3.71c-2.63,5.22-1.45,11.09,3.09,16.51-9.68,10-9,23-9,23.7a7,7,0,0,0,2.43,4.81,13.88,13.88,0,0,0-5.92,5.94c-.32.55-.61,1.13-.88,1.72l-1.34.1a21,21,0,0,0-3.73-9.71l-.11-.27c-2.07-5.3-4.21-10.76-6.66-15.91a11.25,11.25,0,0,0-7.1-18.07,11.51,11.51,0,0,0-9.73-5.59,10.05,10.05,0,0,0-1.34.09c-6.9-5.15-15.26-8.59-25.45-10.49a108.74,108.74,0,0,0-19.81-1.83c-19.59,0-33.94,5.14-39.45,13.92-8.43,2.63-30,12.35-32,43.48a7,7,0,0,0,1.22,4.41,84.3,84.3,0,0,0-.25,11.08c-.67,0-1.33,0-2,.09a29.18,29.18,0,0,0-2.86-19.94c-2.68-4.75-6-6.57-8.65-7.22,3.73-46.1-17.89-56.82-47.2-71.35-1.94-1-3.92-1.94-6-3-13.45-6.76-29.36-6.7-46.61.33a33.85,33.85,0,0,0-54.37,27,33.18,33.18,0,0,0,1.95,11.26c-5.44,9-7.12,20.26-7.27,30.17A11.68,11.68,0,0,0,282,81.41a11.54,11.54,0,0,0-2.68.31A69.93,69.93,0,0,0,254.57,47a6.9,6.9,0,0,0,.75-5,19.06,19.06,0,0,0-3.13-7.09,6.86,6.86,0,0,0-.29-2.25c-.9-3-3-5.61-6.29-7.86a11.41,11.41,0,0,0-1.82-9.18,7,7,0,0,0-5.69-2.95,7.32,7.32,0,0,0-1.72.21,6.84,6.84,0,0,0-1.79.74,36,36,0,0,1-4.65.23c-4.84,0-11.68-.46-20.34-1.37a77.51,77.51,0,0,0-7.89-.41,71.45,71.45,0,0,0-38.9,11.35,6.92,6.92,0,0,0-4.45,1.13,22.62,22.62,0,0,0-10.22,16.55A20.43,20.43,0,0,0,132.72,47,6.93,6.93,0,0,0,131,49.9c-5.2,3.68-11.5,11.08-12,25.45a110.19,110.19,0,0,1-2,17.7c-.16.83-.3,1.63-.43,2.4-2.73,1.16-5.65,3.66-7.56,8.87a27.54,27.54,0,0,0-1.35,5.27c-7-1.9-15.44.26-24.5,6.3a50.56,50.56,0,0,0-49.8.14c-7-4.72-13.58-7.11-19.53-7.11a19.77,19.77,0,0,0-5.54.76,7,7,0,0,0-4.72,4.6c-.85,2.67-7.41,24.89,5.07,37.51a49.66,49.66,0,0,0-.56,9.52c.36,9.53,3.71,17.23,9.79,22.7-.9.84-1.5,1.47-1.75,1.74A7,7,0,0,0,14.33,191c.73,9.12,6.59,14.79,15.31,14.79,5.83,0,11.71-2.52,14.43-3.87a13.61,13.61,0,0,0,6.73-3.05H65.18a13.49,13.49,0,0,0,6.71,3.05c2.72,1.35,8.6,3.87,14.43,3.87h0c8.71,0,14.57-5.67,15.3-14.76a7,7,0,0,0-1.8-5.3c-.14-.16-.67-.72-1.5-1.5,7.29-6,10.75-15,10.3-26.74a48.1,48.1,0,0,0-.61-6.1c4.46-4.72,6.36-10.71,7-16.49,4,4.44,8.92,6.87,14.23,6.87a18.5,18.5,0,0,0,2.1-.13,60.94,60.94,0,0,0,26.29,22.53,78.37,78.37,0,0,0-9,14.63c0,.08-.08.17-.12.25-1.12,2.67-6.42,16.49-1.21,26.12a15.73,15.73,0,0,0,11.46,8,20.86,20.86,0,0,0,3.76.34c8.61,0,16.22-5.58,21.31-15.47h39c5.09,9.89,12.7,15.47,21.31,15.47a21.14,21.14,0,0,0,3.77-.34,15.73,15.73,0,0,0,11.45-8c5.23-9.66-.11-23.48-1.23-26.16l-.11-.24a77.84,77.84,0,0,0-10.79-16.87,17.17,17.17,0,0,1,2-.91,12.4,12.4,0,0,0,5.6-4.19,61.47,61.47,0,0,0,23.15-27.11,17,17,0,0,0,7.11-2,29.72,29.72,0,0,0,4.3,9.38c4.38,6.27,10.62,9.47,17.11,8.8a56.08,56.08,0,0,0,19.63,18.33,78.48,78.48,0,0,0-9,14.6,2.72,2.72,0,0,0-.11.25c-1.12,2.67-6.42,16.49-1.21,26.12a15.73,15.73,0,0,0,11.45,8,21.06,21.06,0,0,0,3.77.34c8.61,0,16.22-5.58,21.31-15.47h39c5.09,9.89,12.7,15.47,21.31,15.47a21,21,0,0,0,3.76-.34,15.75,15.75,0,0,0,11.46-8c5.22-9.66-.11-23.48-1.23-26.16l-.11-.24a77.9,77.9,0,0,0-10.17-16.12c11.78-6.46,20.48-15.52,25.62-26.55a7.1,7.1,0,0,0,.72,1.64A7,7,0,0,0,446,147.88a7,7,0,0,0,3.58,5.78A21.6,21.6,0,0,0,459.6,156a24.47,24.47,0,0,0,9.33-1.9,15.72,15.72,0,0,0,11.62,4.33,49.45,49.45,0,0,0,22.82,18.28,55.5,55.5,0,0,0-3.13,5.71,2.72,2.72,0,0,1-.11.25c-.8,1.93-4.63,11.9-.69,19.18a12.83,12.83,0,0,0,9.18,6.47,16.72,16.72,0,0,0,2.9.26c6.31,0,11.83-3.77,15.59-10.5h22.24c3.75,6.73,9.28,10.5,15.59,10.5a16.81,16.81,0,0,0,2.9-.26,12.83,12.83,0,0,0,9.18-6.47c4-7.31.1-17.29-.71-19.22l-.11-.24a53.64,53.64,0,0,0-5-8.5c11.88-5.7,20.52-14.19,25.34-24.9a15.61,15.61,0,0,0,9.57-5,23.91,23.91,0,0,0,5.87.74,21.56,21.56,0,0,0,10-2.33,7,7,0,0,0,1.36-1,50.88,50.88,0,0,0,13.25,15.68.11.11,0,0,0,0,.05,10.23,10.23,0,0,0,6.16,11.37,60.79,60.79,0,0,0-7,11.39c0,.09-.08.17-.11.26-.9,2.14-5.16,13.23-.85,21.2a13.56,13.56,0,0,0,9.85,6.92,17.75,17.75,0,0,0,3.15.29c6.56,0,12.3-3.71,16.44-10.53h28.91c4.14,6.82,9.87,10.53,16.44,10.53a17.75,17.75,0,0,0,3.15-.29,13.54,13.54,0,0,0,9.84-6.92c4.33-8,0-19.1-.86-21.24a1.89,1.89,0,0,0-.11-.25,61.49,61.49,0,0,0-6.82-11.16c12-4,21.52-11.09,27.8-20.61,5.33.37,10.38-2.06,14.2-6.71A90.26,90.26,0,0,0,761,152.68a7,7,0,0,0,5.21,4c.35,0,8.7,1.44,14.77,2.62a7.69,7.69,0,0,0,1.27.12,6.59,6.59,0,0,0,1.09-.09,8,8,0,0,0,1.19.3s2.93.45,7.92,1.11q2.07,1.29,4.29,2.45A77.81,77.81,0,0,0,787,178.82c0,.08-.08.17-.12.25-1.12,2.67-6.42,16.49-1.21,26.12a15.73,15.73,0,0,0,11.46,8,20.86,20.86,0,0,0,3.76.34c8.67,0,16.31-5.64,21.39-15.63H861.1c5.08,10,12.72,15.63,21.39,15.63a21.14,21.14,0,0,0,3.77-.34,15.73,15.73,0,0,0,11.45-8c5.23-9.66-.11-23.48-1.23-26.16l-.11-.24a78,78,0,0,0-9-14.7c1.37-.15,2.66-.3,3.9-.46a6.81,6.81,0,0,0,2.06.31,7,7,0,0,0,1.62-.19l13.59-3.24a7,7,0,0,0,4.83-4.18,199.24,199.24,0,0,0,7.75-24.73.61.61,0,0,0,.07-.1,27,27,0,0,0,1.83-3.45,17.12,17.12,0,0,0,9.79,4,57.09,57.09,0,0,0,17.36,22.36,11.77,11.77,0,0,0,7.46,8.2,18.39,18.39,0,0,1,2,.9,77.61,77.61,0,0,0-10.81,16.9l-.12.25c-1.11,2.67-6.42,16.49-1.2,26.12a15.69,15.69,0,0,0,11.45,8,21,21,0,0,0,3.76.34c12.1,0,19-10.44,22.13-17.18h40.71c3.16,6.74,10,17.18,22.14,17.18a21,21,0,0,0,3.76-.34,15.73,15.73,0,0,0,11.45-8c5.23-9.66-.1-23.48-1.23-26.16a2.56,2.56,0,0,0-.11-.24,77.66,77.66,0,0,0-10.63-16.68c1-.52,2-1.08,3-1.65a13,13,0,0,0,1.94-1.17,56.81,56.81,0,0,0,17.62-17.39,16.57,16.57,0,0,0,1.86.11,17,17,0,0,0,5.3-.89c-4,9.87-7.31,22-4.2,30.26a14.11,14.11,0,0,0,9.88,9,15.5,15.5,0,0,0,8.81-.24,29.21,29.21,0,0,0,2.9,2.88c-.6.57-1,1-1.19,1.21A7,7,0,0,0,1095,191c.73,9.12,6.6,14.79,15.31,14.79,5.83,0,11.71-2.52,14.44-3.87a13.61,13.61,0,0,0,6.72-3.05h14.38a13.53,13.53,0,0,0,6.71,3.05c2.72,1.35,8.6,3.87,14.44,3.87h0c8.71,0,14.58-5.67,15.3-14.76a7,7,0,0,0-1.8-5.31c-.18-.19-.88-1-2-2,.72-.63,1.4-1.29,2-2a15.52,15.52,0,0,0,8.34.09,14.11,14.11,0,0,0,9.88-9C1204.37,158,1189.25,130.68,1186.24,126.28Z"/><rect class="cls-3" x="1119.92" y="182.68" width="40.61" height="9.21"/><path class="cls-2" d="M1160.52,192.7h-40.6a.81.81,0,0,1-.81-.81v-9.21a.81.81,0,0,1,.81-.81h40.6a.81.81,0,0,1,.81.81v9.21a.81.81,0,0,1-.81.81Zm-39.79-1.62h39v-7.59h-39v7.59Z"/><rect class="cls-4" x="39.24" y="182.68" width="40.61" height="9.21"/><path class="cls-2" d="M79.84,192.7H39.24a.82.82,0,0,1-.82-.81v-9.21a.82.82,0,0,1,.82-.81h40.6a.81.81,0,0,1,.81.81v9.21a.81.81,0,0,1-.81.81Zm-39.79-1.62H79v-7.59h-39v7.59Z"/><path class="cls-3" d="M1094.74,161.14a43.32,43.32,0,0,1,86.57-3.27c.89,23.73-16.15,28.26-40,29.16S1095.64,184.87,1094.74,161.14Z"/><path class="cls-2" d="M1134.54,188c-18.44,0-39.71-3-40.61-26.8a43.36,43.36,0,0,1,11.75-31.45,44,44,0,0,1,30.69-14l1.71,0a43.79,43.79,0,0,1,44,42.15c1,26.22-20.56,29.23-40.83,30-2.43.09-4.63.13-6.75.13Zm3.54-70.66-1.65,0a42.45,42.45,0,0,0-29.57,13.48,41.8,41.8,0,0,0-11.31,30.28c.66,17.47,12.68,25.25,39,25.25,2.1,0,4.28,0,6.69-.13,24.87-.94,40.11-6,39.27-28.32a42.19,42.19,0,0,0-42.42-40.59Z"/><path class="cls-5" d="M1157,173.35c0,7.42-7.6,9.56-17.17,9.56s-17.5-2.14-17.5-9.56,7.77-13.46,17.34-13.46S1157,165.92,1157,173.35Z"/><path class="cls-6" d="M1144.35,166.46c.08,1.92-2.18,3.58-5,3.69s-5.24-1.36-5.31-3.29,2.18-3.58,5-3.69S1144.28,164.53,1144.35,166.46Z"/><path class="cls-2" d="M1139,170.93c-3.16,0-5.7-1.78-5.79-4s2.46-4.36,5.8-4.49h.33c3.16,0,5.7,1.78,5.79,4s-2.46,4.36-5.8,4.49Zm.34-7h-.27c-2.4.1-4.37,1.42-4.31,2.89s2,2.55,4.24,2.55h.27c2.4-.09,4.37-1.41,4.31-2.88s-2-2.55-4.24-2.55Z"/><path class="cls-2" d="M1163.18,158.11a6,6,0,1,1-6.2-5.74A6,6,0,0,1,1163.18,158.11Z"/><path class="cls-2" d="M1124.87,159.59a6,6,0,1,1-6.2-5.74A6,6,0,0,1,1124.87,159.59Z"/><path class="cls-7" d="M1116.55,173.89a5.79,5.79,0,1,1-5.54-6A5.81,5.81,0,0,1,1116.55,173.89Z"/><path class="cls-7" d="M1172.88,171.65a5.79,5.79,0,1,1-5.53-6.05A5.81,5.81,0,0,1,1172.88,171.65Z"/><path class="cls-3" d="M1161.82,157.81a2.31,2.31,0,1,1-2.4-2.22A2.31,2.31,0,0,1,1161.82,157.81Z"/><path class="cls-3" d="M1124.15,159.27a2.31,2.31,0,1,1-2.4-2.22A2.32,2.32,0,0,1,1124.15,159.27Z"/><path class="cls-2" d="M1134.83,179.17a6,6,0,0,1-6-5.73,1.55,1.55,0,0,1,1.49-1.61,1.6,1.6,0,0,1,1.61,1.48,2.84,2.84,0,0,0,.93,2,2.89,2.89,0,0,0,4.85-2.25V173a1.54,1.54,0,0,1,1.48-1.55,1.5,1.5,0,0,1,1.61,1.48,2.87,2.87,0,0,0,.94,2,2.82,2.82,0,0,0,2.08.76,2.89,2.89,0,0,0,2.77-3,1.55,1.55,0,0,1,1.47-1.62h.07a1.55,1.55,0,0,1,1.55,1.48,6,6,0,0,1-10,4.67l-.21-.21-.2.22a6,6,0,0,1-4.16,1.94Z"/><path class="cls-5" d="M1105,129s-4.17-7.66-10.27,1.23-20.67,41.27-6.66,44.88S1107.55,149.55,1105,129Z"/><path class="cls-2" d="M1090.37,176.24h0a10.22,10.22,0,0,1-2.53-.33,7.87,7.87,0,0,1-5.63-5.15c-4-10.62,7-33.92,11.83-41,2.12-3.08,4.3-4.65,6.49-4.65,3.22,0,5.08,3.35,5.16,3.49a.75.75,0,0,1,.09.29c1.87,14.93-.54,35.28-7.8,43.52a10,10,0,0,1-7.61,3.81Zm10.16-49.49c-1.6,0-3.38,1.37-5.15,3.95-5.12,7.46-15.25,29.89-11.66,39.49a6.27,6.27,0,0,0,4.53,4.15c3.18.82,6-.18,8.51-3,6.94-7.86,9.22-27.52,7.44-42.07-.33-.52-1.7-2.53-3.67-2.53Z"/><path class="cls-5" d="M1170.19,129s4.18-7.66,10.28,1.23,20.67,41.27,6.66,44.88S1167.62,149.55,1170.19,129Z"/><path class="cls-2" d="M1184.81,176.24a10,10,0,0,1-7.61-3.81c-7.27-8.24-9.68-28.6-7.81-43.52a.75.75,0,0,1,.09-.29c.08-.14,1.94-3.49,5.16-3.49,2.19,0,4.38,1.57,6.49,4.65,4.84,7.06,15.82,30.36,11.84,41a7.89,7.89,0,0,1-5.64,5.15,10.09,10.09,0,0,1-2.52.33Zm-13.83-47c-1.79,14.55.49,34.21,7.43,42.07,2.47,2.81,5.34,3.81,8.52,3a6.24,6.24,0,0,0,4.52-4.15c3.6-9.6-6.54-32-11.65-39.49-1.77-2.58-3.56-3.95-5.16-3.95-2,0-3.34,2-3.66,2.53Z"/><path class="cls-8" d="M402.53,191.89A147,147,0,0,1,393,162.5l-44.77,1.36a107.15,107.15,0,0,1-3.93,28"/><path class="cls-2" d="M402.53,192.67a.78.78,0,0,1-.7-.45,150,150,0,0,1-9.47-28.93L349,164.61a109.85,109.85,0,0,1-4,27.49.76.76,0,0,1-.95.53.77.77,0,0,1-.54-.95,107.37,107.37,0,0,0,3.9-27.81.78.78,0,0,1,.75-.79L393,161.73a.74.74,0,0,1,.79.62,146.4,146.4,0,0,0,9.49,29.22.78.78,0,0,1-.38,1,1,1,0,0,1-.33.07Z"/><path class="cls-9" d="M388.85,162.5c.27,6.32-6.93,11.75-16.08,12.15s-16.8-4.42-17.06-10.74Z"/><path class="cls-2" d="M371.73,175.44c-9.14,0-16.52-5.05-16.8-11.49a.78.78,0,0,1,.74-.81l33.15-1.41a.72.72,0,0,1,.55.2.74.74,0,0,1,.25.54c.29,6.73-7.26,12.54-16.82,12.95l-1.07,0Zm-15.18-10.79c.82,5.46,7.81,9.57,16.19,9.22s15-5,15.33-10.56l-31.52,1.34Z"/><path class="cls-10" d="M301.44,42.43a26.91,26.91,0,1,0,26.92-26.95A26.94,26.94,0,0,0,301.44,42.43Z"/><path class="cls-2" d="M328.36,70.16A27.73,27.73,0,1,1,356,42.43a27.74,27.74,0,0,1-27.68,27.73Zm0-53.9a26.18,26.18,0,1,0,26.13,26.17,26.18,26.18,0,0,0-26.13-26.17Z"/><path class="cls-9" d="M311.22,119.36s-14-20.15-19.08-6.33,7.32,33.92,20.41,22.71Z"/><path class="cls-2" d="M304.77,139.79h0c-3.86,0-7.54-2.22-10.35-6.24-4.17-6-5.37-14.32-3-20.79,1.3-3.55,3.31-5.35,6-5.35,6.39,0,14.14,11,14.47,11.5a.79.79,0,0,1,.13.38l1.34,16.39a.77.77,0,0,1-.27.65,12.77,12.77,0,0,1-8.29,3.46ZM297.39,109c-2,0-3.45,1.42-4.52,4.34-2.2,6-1.07,13.79,2.82,19.36,2.51,3.6,5.74,5.58,9.08,5.58a11,11,0,0,0,7-2.83l-1.28-15.78c-1-1.37-7.88-10.67-13.08-10.67Z"/><path class="cls-2" d="M311.73,126.37a.77.77,0,0,1-.51-.19c-2.67-2.33-10.34-8.13-13.74-6.93a2.73,2.73,0,0,0-1.61,2.37.77.77,0,1,1-1.52-.27,4.15,4.15,0,0,1,2.62-3.56c4.86-1.7,14.22,6.31,15.27,7.23a.77.77,0,0,1,.07,1.09.73.73,0,0,1-.58.26Z"/><path class="cls-9" d="M433.39,109.39S444,87.25,451.2,100.07s-1.75,34.65-16.48,25.71Z"/><path class="cls-2" d="M441.39,128.65a13.62,13.62,0,0,1-7.07-2.21.78.78,0,0,1-.37-.6l-1.33-16.38a.77.77,0,0,1,.07-.4C433,108.5,439.34,95.3,446,95.3c2.27,0,4.25,1.48,5.89,4.39a23.49,23.49,0,0,1-.34,22.37c-2.48,4.25-6.08,6.59-10.14,6.59Zm-5.93-3.33c5.81,3.36,11.35,1.75,14.74-4,3.56-6.09,3.69-14.86.32-20.83-1.34-2.39-2.87-3.6-4.54-3.6-4.63,0-10,9-11.8,12.69l1.28,15.78Z"/><path class="cls-2" d="M433.9,116.42a.76.76,0,0,1-.49-.18.78.78,0,0,1-.11-1.09c.89-1.08,8.81-10.52,13.91-9.61a4.16,4.16,0,0,1,3.15,3.09.77.77,0,1,1-1.45.52c-.44-1.24-1.09-1.93-2-2.08-3.55-.64-10.18,6.33-12.43,9.06a.77.77,0,0,1-.6.29Z"/><path class="cls-9" d="M304.21,117.05c-3-37.33,25-70.07,62.48-73.13S437.13,68.64,440.16,106s-26,57.54-63.5,60.6S307.24,154.38,304.21,117.05Z"/><path class="cls-2" d="M367.46,167.73c-37.51,0-61.45-18.92-64-50.61-3.06-37.7,25.28-70.88,63.19-74,1.9-.15,3.82-.23,5.71-.23,35.59,0,65.72,27.67,68.59,63,2.8,34.43-21.8,58-64.21,61.44-3.12.25-6.24.38-9.26.38Zm4.88-123.27c-1.85,0-3.73.08-5.58.23C329.7,47.71,302,80.15,305,117c2.5,30.8,25.86,49.19,62.48,49.19,3,0,6.05-.13,9.13-.38,32.49-2.65,66.05-19.74,62.8-59.77-2.81-34.52-32.26-61.57-67.05-61.57Z"/><path class="cls-9" d="M379.14,120.4c.19,2.33-2.46,4.45-5.92,4.72s-6.41-1.37-6.6-3.7,2.46-4.45,5.91-4.73S379,118.07,379.14,120.4Z"/><path class="cls-2" d="M372.46,125.93c-3.57,0-6.41-1.91-6.61-4.45a4.43,4.43,0,0,1,1.88-3.8,8.76,8.76,0,0,1,4.74-1.76c4-.32,7.22,1.69,7.44,4.42a4.4,4.4,0,0,1-1.88,3.79,8.8,8.8,0,0,1-4.75,1.77l-.82,0Zm.84-8.5-.7,0a7.29,7.29,0,0,0-3.91,1.43,2.94,2.94,0,0,0-1.3,2.47c.15,1.84,2.75,3.24,5.77,3a7.28,7.28,0,0,0,3.91-1.42,3,3,0,0,0,1.3-2.47c-.14-1.7-2.37-3-5.07-3Z"/><path class="cls-2" d="M347.16,101.12a7.24,7.24,0,0,0-3.24,8.47,7.3,7.3,0,0,1-1.1-1.41,7.23,7.23,0,1,1,12.5-7.27,6.87,6.87,0,0,1,.62,1.42A7.19,7.19,0,0,0,347.16,101.12Z"/><path class="cls-2" d="M395.21,98.25a7.25,7.25,0,0,1,3.24,8.48,7.37,7.37,0,0,0,1.1-1.42A7.23,7.23,0,1,0,387.05,98a7.42,7.42,0,0,0-.63,1.42A7.22,7.22,0,0,1,395.21,98.25Z"/><path class="cls-11" d="M347.49,125.62c.53,4.68-6.31,8.9-15.28,9.43s-16.65-2.84-17.17-7.51,6.31-8.89,15.27-9.42S347,121,347.49,125.62Z"/><path class="cls-11" d="M431.3,117.78c.52,4.67-6.32,8.89-15.28,9.42s-16.66-2.83-17.18-7.5,6.31-8.89,15.28-9.42S430.77,113.11,431.3,117.78Z"/><path class="cls-2" d="M412,90.58a.77.77,0,0,1-.63-.32c-11.11-15.78-25-8.29-25.55-8a.77.77,0,1,1-.76-1.35c.15-.09,15.64-8.53,27.57,8.41a.77.77,0,0,1-.19,1.08.7.7,0,0,1-.44.14Z"/><path class="cls-2" d="M328.17,97.42a.81.81,0,0,1-.34-.08.76.76,0,0,1-.36-1c9-18.66,25.68-12.83,25.85-12.77a.77.77,0,1,1-.53,1.45c-.63-.23-15.51-5.38-23.93,12a.76.76,0,0,1-.69.44Z"/><path class="cls-2" d="M372.8,139a15.35,15.35,0,0,1-7.1-1.62c-2.61-1.38-4.16-3.45-4.35-5.82a1.55,1.55,0,1,1,3.09-.25c.13,1.73,1.75,2.83,2.71,3.34a13.89,13.89,0,0,0,13.51-1.1c.87-.66,2.29-2,2.15-3.74a1.55,1.55,0,1,1,3.08-.25c.19,2.37-1,4.66-3.36,6.45a15.72,15.72,0,0,1-8.23,2.93c-.5.05-1,.06-1.5.06Z"/><path class="cls-2" d="M355.94,135.87h-.1a.76.76,0,0,1-.66-.87c1.24-8.9,6.9-10.52,7.13-10.58a.77.77,0,0,1,.41,1.49c-.2.06-4.92,1.47-6,9.31a.78.78,0,0,1-.77.66Z"/><path class="cls-10" d="M381.82,50.75s1.88,24.09-8.19,31c0,0,3.12-19.84-3-27.63,0,0-30.83,47.44-66.67,61.5,0,0-3.1-3.89-2.22-14.23,0,0-3.39,3-3.52,4.91,0,0-11.15-48.8,16.76-60,0,0,42.14-42.67,77.33-25s56.18,24.5,48,78.63c0,0-9.16-21.67-19-27.31a13.54,13.54,0,0,1,2.71,9.11S410.25,55.49,381.82,50.75Z"/><path class="cls-2" d="M304,116.42a.77.77,0,0,1-.61-.3c-.13-.15-2.87-3.72-2.51-12.73a6.69,6.69,0,0,0-1.85,3,.76.76,0,0,1-.71.72.77.77,0,0,1-.81-.6c-.12-.49-10.94-49.4,17.07-60.81,2.05-2,30.35-29.4,59.3-29.4a41.56,41.56,0,0,1,18.82,4.37l6,3C430,39.16,448.9,48.54,441.14,100.08a.77.77,0,0,1-1.47.19c-.09-.19-7.44-17.43-15.81-24.86a14.78,14.78,0,0,1,1,6.41.77.77,0,0,1-1.46.31c-.13-.25-13.71-25.4-40.78-30.45.25,4.72.67,24.36-8.59,30.73a.79.79,0,0,1-.85,0,.78.78,0,0,1-.35-.78c0-.19,2.78-18.16-2.19-26.14-4.61,6.79-33.55,48-66.4,60.85a.71.71,0,0,1-.28.06Zm-2.22-15.78a.74.74,0,0,1,.35.08.78.78,0,0,1,.42.75c-.67,7.9,1,11.92,1.76,13.22,35-14.1,65.4-60.51,65.71-61a.78.78,0,0,1,.61-.35.82.82,0,0,1,.65.3c5.14,6.57,4,21,3.39,26.25,7.94-7.86,6.41-28.88,6.39-29.1A.77.77,0,0,1,382,50c23.06,3.85,36.79,21.9,41.24,28.77a12.3,12.3,0,0,0-2.37-5.6.77.77,0,0,1,1-1.17c8,4.62,15.46,19.32,18.19,25.22,6.59-48.1-10.84-56.74-42-72.2l-6-3a40,40,0,0,0-18.12-4.2c-29.26,0-58,28.76-58.31,29.05a.87.87,0,0,1-.26.18c-23.53,9.42-18.5,47-16.75,56.74a18.83,18.83,0,0,1,2.71-3,.74.74,0,0,1,.51-.19Z"/><path class="cls-12" d="M386.29,22.4c-10.35-1.22-19.41,3.46-20.24,10.47s6.89,13.69,17.24,14.91,19.41-3.45,20.24-10.46S396.64,23.63,386.29,22.4Z"/><path class="cls-13" d="M400.74,33c-7.47-.89-14,2.49-14.6,7.55s5,9.86,12.43,10.75,14-2.49,14.61-7.54S408.2,33.89,400.74,33Z"/><path class="cls-14" d="M232,191.89a146.69,146.69,0,0,1-9.55-29.39l-44.77,1.36a107.15,107.15,0,0,1-3.93,28"/><path class="cls-2" d="M232,192.67a.8.8,0,0,1-.71-.45,150,150,0,0,1-9.47-28.93l-43.37,1.32a110.16,110.16,0,0,1-3.95,27.49.77.77,0,0,1-1.49-.42,107.37,107.37,0,0,0,3.9-27.81.78.78,0,0,1,.75-.79l44.77-1.35a.75.75,0,0,1,.78.62,147.16,147.16,0,0,0,9.49,29.22.78.78,0,0,1-.38,1,.88.88,0,0,1-.32.07Z"/><path class="cls-9" d="M218.33,162.5c.27,6.32-6.93,11.75-16.08,12.15s-16.79-4.42-17.06-10.74Z"/><path class="cls-2" d="M201.21,175.44c-9.14,0-16.52-5.05-16.79-11.49a.76.76,0,0,1,.2-.56.78.78,0,0,1,.54-.25l33.14-1.41a.76.76,0,0,1,.81.74c.14,3.31-1.57,6.49-4.82,8.94a21.56,21.56,0,0,1-12,4l-1.07,0ZM186,164.65c.83,5.46,7.78,9.58,16.19,9.22a20,20,0,0,0,11.14-3.69c2.57-1.94,4-4.36,4.19-6.87L186,164.65Z"/><path class="cls-10" d="M160.11,52s-13.63-8.82-22.48,0l2.65,1.14S126.62,55.53,126,75.58s-5.36,24.5-1.36,30l8.41,4S139.22,58.13,160.11,52Z"/><path class="cls-2" d="M133,110.31a.78.78,0,0,1-.33-.07l-8.41-4A.68.68,0,0,1,124,106c-2.45-3.37-1.9-6.39-.9-11.87a114.13,114.13,0,0,0,2.1-18.61c.52-15.64,8.93-20.93,12.91-22.56l-.77-.33a.79.79,0,0,1-.45-.57.77.77,0,0,1,.21-.69,14.09,14.09,0,0,1,10.31-4.14c6.81,0,12.89,3.87,13.14,4a.77.77,0,0,1,.35.76.79.79,0,0,1-.55.63c-20.16,6-26.49,56.44-26.55,56.94a.77.77,0,0,1-.39.59.85.85,0,0,1-.38.09Zm-7.9-5.35,7.27,3.43c1-7.4,7.43-48.92,25.88-56.6a24.86,24.86,0,0,0-10.87-3A12.67,12.67,0,0,0,139,51.71l1.55.67a.77.77,0,0,1,.47.79.79.79,0,0,1-.63.68c-.53.1-13.06,2.61-13.69,21.75a117.49,117.49,0,0,1-2.12,18.84c-1,5.29-1.42,7.76.5,10.52Z"/><path class="cls-9" d="M136.19,113.56s-15.17-21.8-20.64-6.84,7.91,36.69,22.08,24.57Z"/><path class="cls-2" d="M129.21,135.6h0c-4.16,0-8.13-2.39-11.16-6.73-4.49-6.43-5.79-15.44-3.23-22.42,1.4-3.81,3.55-5.75,6.41-5.75,6.88,0,15.24,11.91,15.59,12.42a.73.73,0,0,1,.14.38l1.44,17.73a.76.76,0,0,1-.27.64,13.69,13.69,0,0,1-8.92,3.73Zm-8-33.35c-2.17,0-3.79,1.55-5,4.73-2.39,6.53-1.16,15,3,21,2.73,3.91,6.25,6.06,9.89,6.06a12,12,0,0,0,7.61-3.1l-1.39-17.12c-1-1.43-8.53-11.58-14.2-11.58Z"/><path class="cls-2" d="M136.74,121.09a.75.75,0,0,1-.51-.19c-2.9-2.53-11.23-8.82-14.93-7.52a3,3,0,0,0-1.78,2.62.8.8,0,0,1-.9.63.79.79,0,0,1-.63-.9c.36-2,1.3-3.28,2.8-3.8,5.23-1.85,15.32,6.81,16.46,7.81a.77.77,0,0,1,.07,1.09.78.78,0,0,1-.58.26Z"/><path class="cls-9" d="M268.37,102.78s11.44-24,19.26-10.09-1.89,37.49-17.82,27.82Z"/><path class="cls-2" d="M277,123.55a14.72,14.72,0,0,1-7.62-2.38.78.78,0,0,1-.37-.6l-1.43-17.73a.67.67,0,0,1,.07-.39c.29-.61,7.17-14.85,14.32-14.85,2.42,0,4.55,1.58,6.31,4.71,3.91,6.93,3.76,17.09-.36,24.14-2.67,4.58-6.55,7.1-10.92,7.1Zm-6.48-3.5a13.08,13.08,0,0,0,6.48,2c3.8,0,7.2-2.25,9.58-6.33,3.86-6.61,4-16.11.36-22.6-1.47-2.61-3.15-3.93-5-3.93-5.05,0-10.89,9.78-12.84,13.79l1.39,17.12Z"/><path class="cls-2" d="M268.92,110.31a.76.76,0,0,1-.6-1.26c1-1.16,9.54-11.35,15-10.37,1.57.28,2.7,1.39,3.37,3.3a.77.77,0,1,1-1.46.51c-.48-1.36-1.19-2.11-2.18-2.29-3.87-.7-11.07,6.87-13.52,9.83a.74.74,0,0,1-.59.28Z"/><path class="cls-9" d="M128.6,111.07c-3.28-40.39,26.9-69.59,67.51-72.9s76.3,20.52,79.58,60.91S247.6,161.33,207,164.64,131.88,151.45,128.6,111.07Z"/><path class="cls-2" d="M197,165.83c-40.55,0-66.42-20.45-69.2-54.7-3.19-39.24,25.5-70.25,68.22-73.74,2.51-.2,5-.3,7.52-.3,40,0,69.93,25.46,72.89,61.92,3,37.22-23.57,62.67-69.41,66.41-3.38.27-6.75.41-10,.41Zm6.54-127.2c-2.44,0-4.93.11-7.39.31-41.83,3.41-69.92,33.71-66.81,72.06,2.71,33.36,28,53.28,67.66,53.28,3.22,0,6.55-.14,9.89-.41,35.19-2.87,71.53-21.38,68-64.73-2.9-35.63-32.24-60.51-71.35-60.51Z"/><path class="cls-9" d="M209.67,114.69c.2,2.52-2.66,4.81-6.4,5.11s-6.94-1.49-7.15-4,2.66-4.81,6.41-5.11S209.46,112.17,209.67,114.69Z"/><path class="cls-2" d="M202.44,120.61c-3.82,0-6.87-2-7.09-4.75-.24-3,2.88-5.61,7.11-6s7.74,1.8,8,4.72-2.88,5.61-7.11,5.95c-.3,0-.6,0-.89,0Zm.91-9.2c-.25,0-.5,0-.76,0-3.25.26-5.86,2.22-5.7,4.28s3,3.57,6.31,3.3,5.86-2.22,5.7-4.28c-.16-1.87-2.59-3.34-5.55-3.34Z"/><path class="cls-2" d="M175.07,93.83a7.83,7.83,0,0,0-3.51,9.17,8.23,8.23,0,0,1-1.19-1.53A7.83,7.83,0,1,1,183.9,93.6a8.07,8.07,0,0,1,.67,1.54A7.78,7.78,0,0,0,175.07,93.83Z"/><path class="cls-2" d="M227.05,90.73a7.81,7.81,0,0,1,3.51,9.16,8.16,8.16,0,0,0,1.19-1.52,7.82,7.82,0,1,0-13.52-7.88,8,8,0,0,0-.68,1.54A7.78,7.78,0,0,1,227.05,90.73Z"/><path class="cls-11" d="M175.43,120.34c.57,5.06-6.83,9.62-16.53,10.19s-18-3.06-18.59-8.12,6.83-9.61,16.53-10.19S174.86,115.29,175.43,120.34Z"/><path class="cls-11" d="M266.1,111.86c.57,5-6.83,9.61-16.53,10.19s-18-3.06-18.59-8.12,6.83-9.62,16.53-10.19S265.53,106.8,266.1,111.86Z"/><path class="cls-2" d="M245.23,82.37a.78.78,0,0,1-.63-.33c-12.08-17.16-27.57-8.72-27.72-8.63a.78.78,0,0,1-1.06-.29.77.77,0,0,1,.3-1.06c.16-.09,16.87-9.2,29.75,9.09a.78.78,0,0,1-.19,1.08.82.82,0,0,1-.45.14Z"/><path class="cls-2" d="M154.52,89.76a.8.8,0,0,1-.34-.07.77.77,0,0,1-.36-1c9.76-20.13,27.71-13.85,27.89-13.78a.77.77,0,1,1-.53,1.45c-.68-.25-16.83-5.84-26,13a.77.77,0,0,1-.69.43Z"/><path class="cls-2" d="M202.8,134.69a16.39,16.39,0,0,1-7.61-1.74c-2.79-1.47-4.44-3.68-4.64-6.2a1.55,1.55,0,0,1,1.41-1.67,1.53,1.53,0,0,1,1.67,1.42c.12,1.43,1.18,2.75,3,3.72A15.16,15.16,0,0,0,211.4,129c1.64-1.24,2.48-2.72,2.36-4.15a1.55,1.55,0,0,1,1.42-1.67,1.57,1.57,0,0,1,1.67,1.42c.2,2.52-1.07,5-3.58,6.87a17.07,17.07,0,0,1-8.85,3.14c-.54,0-1.08.07-1.62.07Z"/><path class="cls-2" d="M184.57,131.37h-.1a.77.77,0,0,1-.66-.87c1.33-9.6,7.41-11.33,7.67-11.4a.78.78,0,0,1,1,.55.77.77,0,0,1-.54.94c-.23.07-5.37,1.6-6.55,10.12a.78.78,0,0,1-.77.67Z"/><path class="cls-10" d="M156.17,52s-5.46-14,6-21.61v2.14S180,16.37,208.88,19.39s29.21.22,29.21.22,4.11,5.83-5.6,6.93c0,0,11.18,2.91,12.74,8.11h-7.48a10.82,10.82,0,0,1,10.79,8.88l-10.09-1.6a21.89,21.89,0,0,1,6.78,18.33s-16.88-20.59-34.29-19.81a5,5,0,0,1,4.38,5.89s-16-6.16-30.75,1.69c0,0,1.65.34,1.65,3.92S162.28,47.16,156.17,52Z"/><path class="cls-2" d="M245.23,61a.74.74,0,0,1-.59-.29c-.16-.18-14.58-17.55-30.11-19.39a6,6,0,0,1,1.56,5.06.79.79,0,0,1-.37.58.77.77,0,0,1-.68.06,42.75,42.75,0,0,0-13.71-2.24A34.67,34.67,0,0,0,186,48.17,6,6,0,0,1,187,52c0,1.12-1,1.69-3,1.69a62.84,62.84,0,0,1-8.28-1,88.3,88.3,0,0,0-12.85-1.43c-3,0-5.07.46-6.22,1.36a.76.76,0,0,1-.68.13.77.77,0,0,1-.52-.46c-.06-.15-5.55-14.7,6.32-22.54a.79.79,0,0,1,.8,0,.78.78,0,0,1,.4.69v.52a64.93,64.93,0,0,1,38.74-12.63,68.15,68.15,0,0,1,7.25.39c8.87.92,15.93,1.39,21,1.39,5.92,0,7.27-.65,7.49-.8a.76.76,0,0,1,.48-.35.77.77,0,0,1,.82.3c.07.1,1.69,2.44.66,4.72a5.66,5.66,0,0,1-3.8,2.83c3.56,1.28,9.23,3.88,10.38,7.71a.77.77,0,0,1-.74,1h-1.55a11.55,11.55,0,0,1,5.61,7.94.76.76,0,0,1-.19.7.74.74,0,0,1-.68.23l-7.78-1.23A22.62,22.62,0,0,1,246,60.34a.77.77,0,0,1-.55.66.54.54,0,0,1-.22,0ZM211.91,39.66c14.69,0,28.5,14,32.67,18.67A21.27,21.27,0,0,0,238,42.52a.77.77,0,0,1-.21-.91.76.76,0,0,1,.83-.44l8.91,1.41a9.86,9.86,0,0,0-9.41-7.16h-.32a.78.78,0,0,1-.06-1.55H244c-2.09-3.4-9-5.87-11.74-6.58a.77.77,0,0,1-.58-.81.76.76,0,0,1,.68-.71c3.07-.35,5-1.22,5.58-2.52a3.16,3.16,0,0,0-.15-2.51c-1.1.46-3.35.82-7.89.82-5.11,0-12.22-.47-21.14-1.41a70.61,70.61,0,0,0-7.09-.37c-24.05,0-38.85,13.14-39,13.27a.77.77,0,0,1-1.3-.57v-.63c-7.91,6.22-5.75,15.92-4.83,18.92a13.94,13.94,0,0,1,6.28-1.12A89.4,89.4,0,0,1,176,51.1a62.05,62.05,0,0,0,8,1c1.24,0,1.48-.21,1.49-.22,0-2.71-1.1-3.09-1.11-3.09a.74.74,0,0,1-.59-.64.77.77,0,0,1,.42-.79,35.9,35.9,0,0,1,17.12-4.08,44.83,44.83,0,0,1,13.25,2,4.15,4.15,0,0,0-3.73-4.05.77.77,0,0,1,.05-1.54c.34,0,.67,0,1,0Z"/><path class="cls-15" d="M870.38,191.73a146.69,146.69,0,0,1-9.55-29.39l-44.77,1.36a107.15,107.15,0,0,1-3.93,28"/><path class="cls-2" d="M870.38,192.51a.78.78,0,0,1-.71-.45,150,150,0,0,1-9.47-28.93l-43.37,1.32a109.79,109.79,0,0,1-4,27.49.76.76,0,0,1-1,.54.78.78,0,0,1-.53-1,107.05,107.05,0,0,0,3.89-27.81.79.79,0,0,1,.75-.79l44.77-1.35a.73.73,0,0,1,.79.62,147.16,147.16,0,0,0,9.49,29.22.77.77,0,0,1-.7,1.1Z"/><path class="cls-9" d="M856.69,162.34c.27,6.32-6.93,11.76-16.08,12.15s-16.79-4.42-17.06-10.74Z"/><path class="cls-2" d="M839.57,175.28c-9.14,0-16.52-5.05-16.8-11.49a.77.77,0,0,1,.21-.56.78.78,0,0,1,.53-.25l33.15-1.41a.77.77,0,0,1,.8.74c.15,3.31-1.56,6.49-4.81,8.94a21.59,21.59,0,0,1-12,4c-.36,0-.71,0-1.07,0Zm-15.18-10.79c.83,5.46,7.79,9.58,16.19,9.23a20.06,20.06,0,0,0,11.14-3.7c2.56-1.94,4-4.35,4.19-6.87l-31.52,1.34Z"/><path class="cls-16" d="M775.61,55s-29.4,48.31-8.25,94.86c0,0,8.58,1.42,14.91,2.65l.44-5.09,2.92,5.38s61.19,9.64,104.72,4l5.79-9.29L893.3,157l13.58-3.24s24.45-61,3.29-89.13"/><path class="cls-2" d="M859.08,159.27c-36.51,0-73.09-5.68-73.57-5.76a.78.78,0,0,1-.56-.39L783.26,150l-.22,2.53a.8.8,0,0,1-.31.55.77.77,0,0,1-.61.14c-6.25-1.22-14.8-2.63-14.88-2.65a.78.78,0,0,1-.58-.44c-21.08-46.39,8-95.1,8.29-95.58a.76.76,0,0,1,1.06-.26.78.78,0,0,1,.26,1.06c-.29.48-28.78,48.25-8.37,93.76,1.69.29,8.31,1.4,13.67,2.43l.37-4.24a.78.78,0,0,1,.61-.69.77.77,0,0,1,.84.39l2.74,5c5.21.79,62.62,9.22,103.76,4l5.6-9a.77.77,0,0,1,1.39.64l-2.46,8.25,11.89-2.84c2-5.13,23-61.64,3.24-88A.77.77,0,0,1,909.7,64a.78.78,0,0,1,1.09.15c21.17,28.2-2.18,87.38-3.19,89.89a.76.76,0,0,1-.54.46l-13.58,3.24a.73.73,0,0,1-.74-.22.76.76,0,0,1-.18-.75l1.2-4L891,157.14a.79.79,0,0,1-.56.35,247.35,247.35,0,0,1-31.37,1.78Z"/><path class="cls-9" d="M779.68,114.37s-11.89-20.69-18-7.73,4.25,33.45,17.88,23.7Z"/><path class="cls-2" d="M772.56,133.66h0c-3.86,0-7.4-2.23-10-6.27-3.89-6.11-4.54-14.78-1.59-21.08,1.47-3.13,3.42-4.71,5.8-4.71,6.35,0,13.25,11.87,13.54,12.38a.76.76,0,0,1,.1.39l-.09,16a.77.77,0,0,1-.32.63,12.9,12.9,0,0,1-7.48,2.69Zm-5.75-30.51c-1.73,0-3.21,1.28-4.4,3.82-2.74,5.84-2.13,13.9,1.49,19.59,2.28,3.58,5.35,5.55,8.66,5.55h0a11.12,11.12,0,0,0,6.26-2.18l.08-15.36c-2-3.35-7.64-11.42-12.09-11.42Z"/><path class="cls-2" d="M779.65,121.23a.76.76,0,0,1-.56-.24c-2.39-2.48-9.36-8.73-12.72-7.86-.84.22-1.41.92-1.74,2.14a.78.78,0,0,1-1.5-.4,4.06,4.06,0,0,1,2.86-3.24c4.87-1.26,13.27,7.31,14.21,8.29a.77.77,0,0,1-.55,1.31Z"/><path class="cls-9" d="M899,115s12.12-20.55,18-7.53-4.6,33.4-18.13,23.5Z"/><path class="cls-2" d="M906,134.39a12.79,12.79,0,0,1-7.56-2.77.79.79,0,0,1-.32-.63l.09-16a.79.79,0,0,1,.11-.39c.29-.5,7.28-12.23,13.61-12.23,2.41,0,4.36,1.61,5.81,4.78,2.86,6.29,2.14,14.92-1.76,21-2.59,4-6.14,6.24-10,6.24Zm-6.33-3.79a11.1,11.1,0,0,0,6.33,2.24c3.3,0,6.38-2,8.68-5.53,3.63-5.64,4.31-13.66,1.65-19.5-1.17-2.57-2.65-3.87-4.4-3.87-4.44,0-10.19,8-12.18,11.29l-.08,15.37Z"/><path class="cls-2" d="M898.93,121.88a.75.75,0,0,1-.54-.22.76.76,0,0,1,0-1.09c1-1,9.45-9.45,14.31-8.14a4.07,4.07,0,0,1,2.81,3.28.77.77,0,0,1-.55.94.79.79,0,0,1-1-.56c-.31-1.23-.87-1.94-1.72-2.16-3.37-.91-10.38,5.27-12.8,7.72a.74.74,0,0,1-.55.23Z"/><path class="cls-9" d="M773.07,111.55c.2-36.39,30.08-65.73,66.74-65.53s66.2,29.86,66,66.25-30,53.52-66.67,53.32S772.87,147.94,773.07,111.55Z"/><path class="cls-2" d="M839.78,166.36h-.63c-41.42-.23-67-21.23-66.85-54.82.2-36.55,30.32-66.3,67.13-66.3h.38c37,.2,67,30.27,66.78,67-.19,33.36-25.79,54.08-66.81,54.08Zm-.35-119.57c-36,0-65.39,29.05-65.58,64.76-.22,39,33.59,53.09,65.3,53.26h.63c31.41,0,65.05-13.81,65.26-52.55C905.24,76.36,876,47,839.8,46.79Z"/><path class="cls-9" d="M845.44,121.1c0,2.27-2.76,4.1-6.14,4.08s-6.1-1.87-6.08-4.15,2.75-4.1,6.13-4.08S845.45,118.83,845.44,121.1Z"/><path class="cls-2" d="M839.35,126h-.05a8.58,8.58,0,0,1-4.75-1.36,4.31,4.31,0,0,1-2.11-3.56c0-2.72,3-4.85,6.86-4.85a8.63,8.63,0,0,1,4.8,1.36,4.31,4.31,0,0,1,2.11,3.56c0,2.72-3,4.85-6.86,4.85Zm0-8.22c-2.91,0-5.34,1.51-5.35,3.31a2.81,2.81,0,0,0,1.43,2.27,7,7,0,0,0,3.89,1.09l0,.78v-.78c2.87,0,5.3-1.51,5.31-3.3a2.81,2.81,0,0,0-1.43-2.28,7,7,0,0,0-3.89-1.09Z"/><path class="cls-2" d="M868.78,103.65a7,7,0,1,1-7-7.08A7,7,0,0,1,868.78,103.65Z"/><path class="cls-2" d="M823.61,103.4a7,7,0,1,1-7-7.07A7,7,0,0,1,823.61,103.4Z"/><path class="cls-11" d="M814.32,123.49c.11,4.57-6.88,8.07-15.61,7.83s-15.91-4.14-16-8.71,6.88-8.07,15.61-7.83S814.2,118.93,814.32,123.49Z"/><path class="cls-11" d="M896.23,123c.11,4.57-6.87,8.07-15.61,7.83s-15.91-4.14-16-8.71,6.87-8.07,15.6-7.83S896.11,118.39,896.23,123Z"/><path class="cls-2" d="M879.88,95a.79.79,0,0,1-.67-.38c-9.44-16.2-23.48-10.12-24.08-9.85a.77.77,0,0,1-1-.39.78.78,0,0,1,.39-1c.15-.07,15.89-7,26,10.48a.77.77,0,0,1-.67,1.16Z"/><path class="cls-2" d="M798,94.58a.71.71,0,0,1-.4-.11.77.77,0,0,1-.27-1.06c10.34-17.31,26-10.26,26.17-10.19a.77.77,0,0,1-.66,1.4c-.58-.27-14.57-6.5-24.18,9.59a.76.76,0,0,1-.66.37Z"/><path class="cls-2" d="M839.35,139.38h-.13a18.11,18.11,0,0,1-9.59-2.61c-2.8-1.8-4.33-4.26-4.32-6.92a1.56,1.56,0,0,1,1.55-1.54h0a1.56,1.56,0,0,1,1.54,1.56c0,1.56,1,3.09,2.9,4.3a15,15,0,0,0,7.93,2.12h.11a14.89,14.89,0,0,0,7.85-2c1.89-1.19,2.94-2.71,2.95-4.27a1.54,1.54,0,0,1,1.54-1.54h0a1.54,1.54,0,0,1,1.54,1.56c0,2.66-1.57,5.1-4.39,6.87a18.09,18.09,0,0,1-9.5,2.5Z"/><path class="cls-3" d="M867.19,103.23a2.72,2.72,0,1,1-2.7-2.73A2.72,2.72,0,0,1,867.19,103.23Z"/><path class="cls-3" d="M822.78,103a2.73,2.73,0,1,1-2.71-2.74A2.74,2.74,0,0,1,822.78,103Z"/><path class="cls-16" d="M872.68,59s-.77,17.32-33.52,21.66c0,0,16.5-10.61,12-24.87,0,0,1.74,17.15-19.42,18.44,0,0,11.23-9.16,7.19-18.61,0,0-43.8,2-54.19,44.27,0,0-4.89-5.4-1-17.3,0,0-15.75,39.78-3.59,64.55,0,0-26.41-51.95-5.36-82.78,0,0-7.46-27,21.13-42,0,0-7.82,7.37-8.09,13.16,0,0,36.66-32.22,84.94-8.72,54.65,26.6,51.76,72,25.77,123,0,0,15-44.41.68-60.12l-5.76,9.64S896.35,73.59,872.68,59Z"/><path class="cls-2" d="M898.54,150.56a.66.66,0,0,1-.3-.07.76.76,0,0,1-.43-1C898,149.1,912,106.85,899.33,91l-5.2,8.72a.8.8,0,0,1-.92.34.78.78,0,0,1-.52-.82c0-.25,2.46-24.67-19.41-38.91-.85,4.18-5.76,17.38-34,21.12a.77.77,0,0,1-.52-1.41c.14-.09,11.16-7.32,12.29-17.58a16.62,16.62,0,0,1-3.17,5.75c-3.47,4.08-8.9,6.38-16.11,6.82a.77.77,0,0,1-.77-.49.78.78,0,0,1,.23-.88c.1-.09,10.32-8.57,7.17-17.2-5,.43-43.43,5-52.92,43.65a.77.77,0,0,1-.57.56.74.74,0,0,1-.76-.23c-.14-.16-2.49-2.84-2.69-8.39-3.82,13.16-9,37.74-.59,54.78a.78.78,0,0,1-1.39.69c-.26-.52-26.22-52.4-5.5-83.28-.75-3.29-5.42-28.4,21.6-42.54a.77.77,0,0,1,.89,1.25c-.07.06-6,5.68-7.49,10.72,5.35-4.06,23.41-16.19,48.07-16.19a82.12,82.12,0,0,1,36.08,8.65c21.4,10.42,35.17,24.42,40.94,41.63,7.25,21.63,2.4,48.58-14.82,82.39a.76.76,0,0,1-.69.43Zm.68-61.68a.75.75,0,0,1,.57.26c10.64,11.69,5.65,38.25,2,52.13,13.76-29.63,17.27-53.58,10.75-73-5.63-16.8-19.14-30.5-40.15-40.72a77.85,77.85,0,0,0-84.09,8.6.78.78,0,0,1-.85.12.76.76,0,0,1-.43-.73c.16-3.38,2.64-7.16,4.85-9.9-22.58,14.74-16.65,37.55-16.38,38.57a.77.77,0,0,1-.1.64c-14.17,20.75-6.35,51.64,0,69C772,110.52,782.48,83.67,783,82.31a.77.77,0,0,1,1-.44.76.76,0,0,1,.47,1c-2.62,8-1.16,12.89-.06,15.13,11.16-40.66,54-43.1,54.44-43.12a.8.8,0,0,1,.75.47c3.25,7.6-2.61,14.83-5.7,17.94,5.66-.71,10-2.75,12.78-6.07a16.55,16.55,0,0,0,3.67-11.32.78.78,0,0,1,1.51-.31c3.54,11.14-5.29,20.15-9.81,23.89C870.87,74.64,871.9,59.14,871.91,59a.77.77,0,0,1,.41-.65.78.78,0,0,1,.77,0c19,11.69,21.15,30.64,21.24,38l4.22-7.08a.78.78,0,0,1,.59-.37Z"/><path class="cls-17" d="M810.21,68.51A4.85,4.85,0,0,1,808,75h0a4.83,4.83,0,0,1-6.48-2.23l-5.91-12.11a4.85,4.85,0,0,1,2.22-6.49h0a4.86,4.86,0,0,1,6.49,2.23Z"/><path class="cls-2" d="M805.86,76.26a5.59,5.59,0,0,1-5.06-3.16L794.89,61A5.62,5.62,0,1,1,805,56.06l5.92,12.11a5.64,5.64,0,0,1-2.59,7.52,5.55,5.55,0,0,1-2.46.57Zm-5.92-21.81a4.15,4.15,0,0,0-1.79.41,4.08,4.08,0,0,0-1.87,5.45l5.91,12.11a4.15,4.15,0,0,0,5.45,1.88,4.08,4.08,0,0,0,1.87-5.45L803.6,56.73a4,4,0,0,0-3.66-2.28Z"/><path class="cls-18" d="M863,20c10.2,3.55,16.52,12,14.12,18.9s-12.6,9.6-22.79,6.06-16.51-12-14.12-18.89S852.83,16.41,863,20Z"/><path class="cls-19" d="M844.78,23.27c7.35,2.56,11.91,8.66,10.18,13.63s-9.09,6.93-16.44,4.37-11.91-8.65-10.18-13.62S837.43,20.72,844.78,23.27Z"/><path class="cls-20" d="M557,191.9a96,96,0,0,1-6.25-19.25l-29.31.89a70.36,70.36,0,0,1-2.57,18.35"/><path class="cls-2" d="M557,192.67a.78.78,0,0,1-.7-.45,99.21,99.21,0,0,1-6.18-18.77l-27.91.84a72.55,72.55,0,0,1-2.6,17.82.76.76,0,0,1-1,.53.78.78,0,0,1-.54-1,69.82,69.82,0,0,0,2.55-18.12.76.76,0,0,1,.75-.79l29.31-.89a.76.76,0,0,1,.78.63,96.75,96.75,0,0,0,6.19,19.06.78.78,0,0,1-.38,1,.71.71,0,0,1-.32.07Z"/><path class="cls-9" d="M548.05,172.65c.18,4.14-4.54,7.7-10.53,7.95s-11-2.88-11.17-7Z"/><path class="cls-2" d="M536.84,181.39c-6.13,0-11.07-3.41-11.26-7.78a.77.77,0,0,1,.74-.81l21.7-.92a.74.74,0,0,1,.8.74,7.28,7.28,0,0,1-3.26,6.08,14.32,14.32,0,0,1-8,2.68Zm-9.61-7.07c.71,3.29,5.08,5.74,10.26,5.51a12.82,12.82,0,0,0,7.14-2.36,6.16,6.16,0,0,0,2.61-4l-20,.86Z"/><path class="cls-21" d="M472.87,125.63s-14.56-6.54-24.29,3.12l3.78,3.09-3.78,2.25,4.86,1.6-4.86,5.75L454,143l-1.09,4.53s11.48,6.34,23.05-7.35Z"/><path class="cls-2" d="M459.6,149.81h0a15.78,15.78,0,0,1-7.07-1.56.77.77,0,0,1-.38-.86l.91-3.81-4.7-1.4a.77.77,0,0,1-.52-.52.76.76,0,0,1,.15-.72l4.12-4.87-3.77-1.24a.77.77,0,0,1-.16-1.4l2.84-1.69-2.93-2.38a.75.75,0,0,1-.28-.57.73.73,0,0,1,.22-.58,19.26,19.26,0,0,1,14.09-5.52,29.61,29.61,0,0,1,11.06,2.23.77.77,0,0,1,.44.55l3.09,14.59a.77.77,0,0,1-.17.66c-6.35,7.51-12.72,9.09-16.94,9.09Zm-5.8-2.67a15.28,15.28,0,0,0,5.8,1.12h0c3.84,0,9.63-1.44,15.52-8.26l-2.92-13.81a28.8,28.8,0,0,0-10.08-2,17.84,17.84,0,0,0-12.37,4.47l3.1,2.53a.78.78,0,0,1-.09,1.27l-2.32,1.38,3.25,1.07a.76.76,0,0,1,.34,1.23l-4.1,4.84,4.28,1.27a.78.78,0,0,1,.53.92l-.94,3.92Z"/><path class="cls-21" d="M598.7,114.38s14.55-6.54,24.29,3.13l-3.79,3.08,3.79,2.25-4.87,1.6,4.87,5.75-5.41,1.61,1.08,4.52s-11.48,6.34-23-7.35Z"/><path class="cls-2" d="M612,138.56c-4.23,0-10.6-1.57-17-9.09a.79.79,0,0,1-.16-.66l3.08-14.59a.79.79,0,0,1,.44-.55,29.63,29.63,0,0,1,11.07-2.23A19.22,19.22,0,0,1,623.53,117a.74.74,0,0,1,.23.58.79.79,0,0,1-.28.57l-2.93,2.38,2.83,1.69a.77.77,0,0,1,.38.75.79.79,0,0,1-.53.65l-3.78,1.24,4.13,4.87a.77.77,0,0,1-.37,1.24l-4.71,1.4.91,3.81a.77.77,0,0,1-.38.86,15.66,15.66,0,0,1-7.06,1.56Zm-15.52-9.81c5.88,6.82,11.67,8.27,15.52,8.27a15.17,15.17,0,0,0,5.79-1.13l-.93-3.92a.77.77,0,0,1,.53-.92l4.27-1.27-4.1-4.84a.79.79,0,0,1-.15-.71.77.77,0,0,1,.5-.52l3.25-1.07-2.32-1.38a.78.78,0,0,1-.38-.61.79.79,0,0,1,.28-.66l3.11-2.53A17.84,17.84,0,0,0,609.45,113a28.8,28.8,0,0,0-10.08,2l-2.92,13.81Z"/><path class="cls-21" d="M596.7,99.23c-8.82-22.54-15.65-41.38-45.57-46.94-24.86-4.62-49.87.37-53.12,11.18,0,0-27.72,4.07-29.92,38l3.48-8.71s-10.64,36.17,10.77,54.18h0l111.58-9.77s11.34-28.43,2.78-37.92"/><path class="cls-2" d="M491.86,155.7a.73.73,0,0,1-.5-.19l-9.52-8C466.7,134.77,467.35,113,469.11,101l-.3.75a.77.77,0,0,1-.89.46.76.76,0,0,1-.6-.8c2.05-31.66,26.36-37.85,30.1-38.61,2.82-7.91,16.52-13,35.17-13a102.67,102.67,0,0,1,18.68,1.74c29.78,5.53,37.13,24.35,45.65,46.14l.45,1.15c8.61,9.83-2.27,37.45-2.73,38.62a.79.79,0,0,1-.65.49l-109.73,9.6,8.09,6.8a.77.77,0,0,1-.49,1.37ZM471.57,92a.73.73,0,0,1,.25,0,.78.78,0,0,1,.49.95c-.1.36-10.17,35.62,10.28,53.16l110.78-9.69c1.37-3.62,10.33-28.29,2.75-36.68a.72.72,0,0,1-.14-.24l-.5-1.28C586.78,76,579.92,58.42,551,53.05a101.46,101.46,0,0,0-18.4-1.71c-18,0-31.62,5-33.84,12.35a.75.75,0,0,1-.62.54c-1,.16-24.07,3.91-28.63,31.6l1.35-3.37a.76.76,0,0,1,.72-.49Z"/><path class="cls-9" d="M485.13,135s-11.8-16.94-16.06-5.31,6.16,28.52,17.19,19.09Z"/><path class="cls-2" d="M479.7,152.27h0c-3.3,0-6.44-1.89-8.83-5.32a20,20,0,0,1-2.53-17.57c1.12-3,2.85-4.58,5.15-4.58,5.44,0,12,9.32,12.28,9.72a.72.72,0,0,1,.13.38L487,148.68a.77.77,0,0,1-.27.65,10.85,10.85,0,0,1-7.06,2.94Zm-6.21-25.93c-1.61,0-2.81,1.17-3.7,3.57a18.44,18.44,0,0,0,2.35,16.16c2.09,3,4.78,4.65,7.56,4.65h0a9.16,9.16,0,0,0,5.75-2.31l-1.07-13.17c-1.87-2.64-7.12-8.9-10.89-8.9Z"/><path class="cls-2" d="M485.56,141a.77.77,0,0,1-.51-.19c-2.23-2-8.65-6.8-11.45-5.81-.24.09-1,.35-1.27,1.9a.8.8,0,0,1-.9.63.77.77,0,0,1-.62-.9,3.62,3.62,0,0,1,2.28-3.09c4.14-1.47,12.09,5.33,13,6.1a.78.78,0,0,1,.08,1.1.8.8,0,0,1-.59.26Z"/><path class="cls-9" d="M588,126.59s8.91-18.63,15-7.85-1.47,29.15-13.88,21.63Z"/><path class="cls-2" d="M594.77,142.9a11.68,11.68,0,0,1-6-1.87.78.78,0,0,1-.37-.6l-1.12-13.78a.79.79,0,0,1,.07-.4c.23-.47,5.64-11.64,11.31-11.64,2,0,3.66,1.26,5.06,3.75a19.85,19.85,0,0,1-.28,18.93c-2.11,3.62-5.18,5.61-8.65,5.61Zm-4.88-3c4.81,2.74,9.39,1.4,12.2-3.4a18.53,18.53,0,0,0,.27-17.39c-1.11-2-2.37-3-3.72-3-3.83,0-8.3,7.46-9.82,10.57l1.07,13.18Z"/><path class="cls-2" d="M588.46,132.62a.74.74,0,0,1-.49-.18.78.78,0,0,1-.11-1.09c.75-.91,7.5-8.9,11.83-8.12a3.6,3.6,0,0,1,2.75,2.68.76.76,0,0,1-.47,1,.78.78,0,0,1-1-.47c-.52-1.49-1.3-1.62-1.56-1.67-2.93-.51-8.48,5.3-10.37,7.58a.75.75,0,0,1-.59.29Z"/><path class="cls-9" d="M479.23,133a57.24,57.24,0,0,1,52.62-61.5c31.62-2.58,59.33,20.79,61.88,52.18s-21.86,48.39-53.48,51S481.79,164.42,479.23,133Z"/><path class="cls-2" d="M532.5,175.76c-31.66,0-51.87-15.95-54-42.67-2.59-31.77,21.34-59.73,53.33-62.33,1.6-.13,3.22-.2,4.82-.2,30,0,55.47,23.32,57.89,53.08,2.37,29-18.4,48.89-54.19,51.8-2.63.22-5.26.32-7.81.32Zm4.11-103.65c-1.55,0-3.13.06-4.69.19C500.77,74.83,477.49,102.05,480,133c2.1,25.83,21.73,41.26,52.5,41.26,2.51,0,5.09-.11,7.69-.32,27.3-2.23,55.5-16.56,52.77-50.13-2.36-29-27.11-51.66-56.35-51.66Z"/><path class="cls-9" d="M542.34,135.84c.16,2-2.07,3.74-5,4s-5.4-1.16-5.56-3.12,2.08-3.74,5-4S542.18,133.88,542.34,135.84Z"/><path class="cls-2" d="M536.71,140.62c-3.06,0-5.51-1.66-5.69-3.86a3.84,3.84,0,0,1,1.63-3.3,7.55,7.55,0,0,1,4.07-1.51c3.38-.26,6.2,1.46,6.39,3.83s-2.3,4.53-5.69,4.81l-.71,0Zm.71-7.15-.58,0a5.9,5.9,0,0,0-3.22,1.18,2.31,2.31,0,0,0-1,2c.12,1.49,2.25,2.62,4.72,2.42s4.4-1.64,4.28-3.15-1.93-2.43-4.15-2.43Z"/><path class="cls-2" d="M561.16,119a6.09,6.09,0,1,1-6.57-5.57A6.1,6.1,0,0,1,561.16,119Z"/><path class="cls-2" d="M522.19,122.22a6.09,6.09,0,1,1-6.56-5.58A6.08,6.08,0,0,1,522.19,122.22Z"/><path class="cls-2" d="M570,110.89a.76.76,0,0,1-.64-.33c-9.29-13.17-20.87-6.92-21.36-6.65a.79.79,0,0,1-1.06-.3.78.78,0,0,1,.3-1c.13-.08,13.27-7.23,23.39,7.11a.78.78,0,0,1-.19,1.08.79.79,0,0,1-.44.14Z"/><path class="cls-2" d="M499.41,116.64a.81.81,0,0,1-.34-.08.76.76,0,0,1-.36-1c7.66-15.79,21.79-10.86,21.93-10.8a.77.77,0,1,1-.53,1.45c-.53-.19-13-4.48-20,10a.76.76,0,0,1-.69.44Z"/><path class="cls-2" d="M536.84,152.34c-6.17,0-11.05-3.09-11.4-7.43a1.55,1.55,0,0,1,3.08-.25c.23,2.86,4.62,4.94,9.6,4.53s9-3.16,8.74-6a1.55,1.55,0,0,1,1.41-1.67,1.53,1.53,0,0,1,1.67,1.42c.38,4.69-4.7,8.8-11.57,9.36q-.78.06-1.53.06Z"/><path class="cls-21" d="M596.6,115.38c-.55,9.71-6.33,13.37-6.33,13.37,2.34-14-1.81-20.88-1.81-20.88l-.43,5.58C574.91,74.24,524,80.33,524,80.33c-.5,7.72,15.3,15.6,15.3,15.6-12.5.41-21.65-13-21.65-13-.91,8.75,16.8,18.48,16.8,18.48C514,101.44,500.79,86,500.79,86s-16.63,9.59-18.22,42.83l-1.52-15.35-2.49,14.44S463.43,88.11,506,68.35,599.15,70.39,596.6,115.38Z"/><path class="cls-2" d="M482.57,129.57a.77.77,0,0,1-.77-.69l-1-9.67L479.33,128a.78.78,0,1,1-1.53-.26l2.48-14.44a.75.75,0,0,1,.79-.64.78.78,0,0,1,.75.69l.71,7.2c3.59-26.72,17.24-34.9,17.88-35.27a.78.78,0,0,1,1,.17c.12.15,11.91,13.69,30,15.09-5-3.16-15.31-10.57-14.57-17.67a.77.77,0,0,1,.58-.67.76.76,0,0,1,.82.31c.08.12,7.41,10.63,17.6,12.39-4.7-2.8-13-8.65-12.65-14.64a.77.77,0,0,1,.68-.72c.51-.06,48.81-5.38,63.67,30.34l.16-2.08a.77.77,0,0,1,.59-.7.79.79,0,0,1,.84.35c.17.28,3.87,6.57,2.23,19.31a17.78,17.78,0,0,0,4.48-11.44.76.76,0,0,1,.82-.73.78.78,0,0,1,.73.82c-.57,10-6.44,13.82-6.69,14a.77.77,0,0,1-.84,0,.77.77,0,0,1-.34-.77c1.41-8.43.42-14.21-.53-17.4l-.18,2.28a.77.77,0,0,1-1.5.18C575.35,78,530.8,80.51,524.73,81c.44,6.93,14.72,14.14,14.87,14.21a.78.78,0,0,1-.32,1.47c-9.8.35-17.42-7.29-20.65-11.15,2.19,7.47,16,15.13,16.14,15.21a.77.77,0,0,1-.37,1.45h0c-18.4,0-31.19-12.53-33.73-15.23-2.78,2-15.94,12.77-17.33,41.85a.77.77,0,0,1-.75.73Z"/><path class="cls-11" d="M510,135.92a7.1,7.1,0,1,1-7.1-7.12A7.11,7.11,0,0,1,510,135.92Z"/><path class="cls-11" d="M578.9,130.24a7.1,7.1,0,1,1-7.09-7.12A7.1,7.1,0,0,1,578.9,130.24Z"/><path class="cls-22" d="M568.38,59.54c8.29,6.55,11.43,16.4,7,22s-14.73,4.85-23-1.69-11.42-16.4-7-22S560.08,53,568.38,59.54Z"/><path class="cls-23" d="M550.44,56.76c6,4.72,8.24,11.83,5,15.87s-10.63,3.5-16.61-1.22-8.24-11.83-5-15.87S544.46,52,550.44,56.76Z"/><path class="cls-24" d="M566.57,94.75A2.32,2.32,0,0,1,564.72,91l12.33-16.36a2.31,2.31,0,0,1,3.7,2.78L568.41,93.82a2.28,2.28,0,0,1-1.84.93Z"/><path class="cls-2" d="M566.57,95.52a3.09,3.09,0,0,1-2.47-4.94l12.34-16.37A3.08,3.08,0,0,1,582,75.64a3.06,3.06,0,0,1-.6,2.28L569,94.29a3.08,3.08,0,0,1-2.46,1.23Zm12.33-21a1.52,1.52,0,0,0-1.23.61L565.34,91.51a1.53,1.53,0,0,0,.31,2.15,1.57,1.57,0,0,0,2.15-.3L580.13,77a1.5,1.5,0,0,0,.29-1.14,1.58,1.58,0,0,0-.59-1,1.55,1.55,0,0,0-.93-.31Z"/><path class="cls-2" d="M513.2,122.12s-5,1.43-6.65,0c0,0,.75,4.71,6.65,2.35"/><path class="cls-2" d="M558.67,118.06s5.16.55,6.55-1.15c0,0,.07,4.77-6.14,3.47"/><path class="cls-3" d="M559.76,118.81a2.36,2.36,0,1,1-2.54-2.16A2.37,2.37,0,0,1,559.76,118.81Z"/><path class="cls-3" d="M521.44,121.92a2.35,2.35,0,1,1-2.54-2.15A2.35,2.35,0,0,1,521.44,121.92Z"/><path class="cls-25" d="M591.17,71c-.93-2.37-4-3.42-7-2.54-.3-3.18-2.39-5.64-4.93-5.64-2.74,0-5,2.88-5,6.43a8.5,8.5,0,0,0,.08,1.14,7.93,7.93,0,0,0-1.12-.18c-3.54-.28-6.59,1.71-6.8,4.44-.21,2.53,2.08,4.81,5.22,5.37-1.11,3-.31,6.11,2,7.22s5.24-.19,6.9-2.91c2.37,2.13,5.58,2.52,7.44.8s1.73-5-.2-7.49C590.56,76.18,592.09,73.34,591.17,71Zm-12,4.68Z"/><path class="cls-2" d="M575.32,88.39a4.81,4.81,0,0,1-2.09-.47c-2.4-1.17-3.45-4.23-2.62-7.36-3.11-.87-5.22-3.33-5-6,.25-3.14,3.61-5.47,7.63-5.15l.21,0v-.21c0-4,2.57-7.2,5.74-7.2,2.67,0,4.95,2.3,5.57,5.47a8.66,8.66,0,0,1,1.51-.14c2.66,0,4.81,1.28,5.62,3.34,1,2.48-.34,5.44-3.07,7.18,1.7,2.75,1.58,6-.38,7.79A5,5,0,0,1,585,87h0a7.53,7.53,0,0,1-4.35-1.52,6.9,6.9,0,0,1-5.32,3Zm-2.81-17.45c-2.84,0-5.19,1.65-5.36,3.76s1.8,4,4.59,4.53a.77.77,0,0,1,.59,1c-1,2.65-.31,5.34,1.58,6.26s4.47-.29,5.9-2.63a.77.77,0,0,1,1.17-.17c2,1.82,4.91,2.19,6.41.81s1.42-4.2-.3-6.45a.79.79,0,0,1,.27-1.16c2.53-1.27,3.85-3.71,3.09-5.67a4.24,4.24,0,0,0-4.18-2.35,7.26,7.26,0,0,0-1.94.27.75.75,0,0,1-.65-.1.77.77,0,0,1-.33-.57c-.27-2.81-2.05-4.93-4.16-4.93-2.31,0-4.2,2.53-4.2,5.65a6.93,6.93,0,0,0,.08,1,.79.79,0,0,1-.24.67.77.77,0,0,1-.69.19,6.77,6.77,0,0,0-1-.15l-.61,0Z"/><path class="cls-24" d="M584,76a4.85,4.85,0,1,1-4.84-4.85A4.84,4.84,0,0,1,584,76Z"/><path class="cls-2" d="M579.13,81.57A5.62,5.62,0,1,1,584.74,76a5.63,5.63,0,0,1-5.61,5.62Zm0-9.69A4.07,4.07,0,1,0,583.2,76a4.07,4.07,0,0,0-4.07-4.07Z"/><path class="cls-26" d="M701,191.89,698.52,180l8.24-4.87s.75-10.54-13-9.58l-22.59-2.22S659,154.7,651.68,168l7.41,7.19a166.35,166.35,0,0,0-4.53,16.72"/><path class="cls-2" d="M701,192.67a.79.79,0,0,1-.76-.62l-2.46-11.86a.78.78,0,0,1,.37-.82l7.86-4.64a8.61,8.61,0,0,0-2.35-5.72c-2.07-2.07-5.4-3-9.85-2.65l-22.73-2.22a.84.84,0,0,1-.37-.14c-.05,0-5.11-3.59-10.42-2.39-3,.68-5.58,2.78-7.62,6.23l7,6.78a.75.75,0,0,1,.19.8,168.39,168.39,0,0,0-4.5,16.64.77.77,0,0,1-1.51-.33,169.22,169.22,0,0,1,4.4-16.34l-7.07-6.85a.8.8,0,0,1-.14-.94c2.31-4.16,5.32-6.68,8.94-7.5,5.46-1.23,10.47,1.84,11.47,2.52l22.4,2.2c4.8-.34,8.53.7,10.94,3.12a10.05,10.05,0,0,1,2.78,7.29.78.78,0,0,1-.38.61l-7.76,4.58,2.35,11.32a.77.77,0,0,1-.6.91l-.16,0Z"/><path class="cls-9" d="M689.51,165.62c-.43,4.12-5.61,7-11.58,6.33s-10.45-4.46-10-8.58Z"/><path class="cls-2" d="M679.57,172.81a16.81,16.81,0,0,1-1.72-.09c-6.38-.67-11.18-4.9-10.71-9.43a.79.79,0,0,1,.85-.69l21.6,2.25a.76.76,0,0,1,.52.29.75.75,0,0,1,.17.56c-.43,4.12-4.93,7.11-10.71,7.11Zm-10.9-8.58c.22,3.38,4.2,6.42,9.35,7s9.66-1.67,10.58-4.88l-19.93-2.07Z"/><path class="cls-9" d="M738,123.94s12.33-17.7,16.78-5.56-6.44,29.81-18,20Z"/><path class="cls-2" d="M743.65,142a11.32,11.32,0,0,1-7.35-3.06.8.8,0,0,1-.27-.66l1.18-14.39a.72.72,0,0,1,.13-.38c.29-.42,7.13-10.15,12.8-10.15,2.39,0,4.19,1.61,5.35,4.77a20.91,20.91,0,0,1-2.64,18.33c-2.49,3.57-5.76,5.54-9.2,5.54Zm-6-4c4.86,4,10.26,2.88,14-2.44A19.29,19.29,0,0,0,754,118.65c-.93-2.52-2.2-3.75-3.9-3.75-3.95,0-9.46,6.56-11.41,9.31L737.61,138Z"/><path class="cls-2" d="M737.53,130.2a.73.73,0,0,1-.58-.26.77.77,0,0,1,.07-1.09c.93-.81,9.2-7.9,13.53-6.37a3.73,3.73,0,0,1,2.36,3.2.76.76,0,0,1-.62.89.78.78,0,0,1-.9-.62,2.3,2.3,0,0,0-1.35-2c-2.94-1-9.66,4-12,6.07a.77.77,0,0,1-.51.19Z"/><path class="cls-9" d="M630.47,115.19s-9.31-19.46-15.67-8.2,1.54,30.45,14.5,22.6Z"/><path class="cls-2" d="M623.43,132.2h0c-3.61,0-6.81-2.08-9-5.85a20.71,20.71,0,0,1-.28-19.74c1.46-2.59,3.23-3.9,5.26-3.9,5.9,0,11.54,11.65,11.77,12.15a.76.76,0,0,1,.08.39l-1.17,14.4a.78.78,0,0,1-.37.6,12.2,12.2,0,0,1-6.27,1.95Zm-4-27.94c-1.43,0-2.75,1-3.92,3.11a19.39,19.39,0,0,0,.28,18.2c1.91,3.28,4.64,5.08,7.68,5.08h0a10.33,10.33,0,0,0,5.13-1.53l1.12-13.78c-1.59-3.26-6.28-11.08-10.29-11.08Z"/><path class="cls-2" d="M630,121.45a.74.74,0,0,1-.59-.28c-2-2.39-7.76-8.47-10.86-7.93-.75.13-1.3.71-1.67,1.76a.77.77,0,0,1-1,.48.78.78,0,0,1-.48-1,3.76,3.76,0,0,1,2.85-2.78c4.55-.81,11.54,7.53,12.33,8.48a.76.76,0,0,1-.6,1.26Z"/><path class="cls-9" d="M744.15,121.92c2.66-32.8-21.95-61.57-55-64.26s-62,21.72-64.65,54.52,22.85,50.56,55.88,53.25S741.48,154.72,744.15,121.92Z"/><path class="cls-2" d="M688.49,166.54h0c-2.66,0-5.41-.12-8.16-.34-37.37-3-59.06-23.77-56.59-54.08,2.53-31.09,29.08-55.43,60.45-55.43,1.67,0,3.36.06,5,.2,33.4,2.72,58.39,31.92,55.69,65.09-2.27,27.9-23.37,44.56-56.43,44.56Zm-4.3-108.31c-30.57,0-56.44,23.73-58.91,54-2.85,35.1,26.63,50.09,55.17,52.42,2.71.22,5.42.33,8,.33,32.17,0,52.69-16.13,54.89-43.13C746,89.53,721.66,61.08,689.1,58.43c-1.63-.13-3.28-.2-4.91-.2Z"/><path class="cls-9" d="M678.21,124.86c-.16,2,2.16,3.9,5.21,4.15s5.64-1.21,5.81-3.26-2.17-3.9-5.21-4.15S678.37,122.81,678.21,124.86Z"/><path class="cls-2" d="M684.09,129.81h0l-.74,0c-3.52-.29-6.11-2.48-5.91-5s3.11-4.26,6.64-4a7.83,7.83,0,0,1,4.23,1.57,4,4,0,0,1,1.69,3.42c-.19,2.28-2.73,4-5.91,4Zm-.74-7.47c-2.33,0-4.25,1.14-4.37,2.58-.13,1.59,1.93,3.11,4.5,3.32.2,0,.41,0,.61,0h0c2.33,0,4.25-1.14,4.37-2.58a2.5,2.5,0,0,0-1.11-2.08,6.33,6.33,0,0,0-3.39-1.24l-.61,0Z"/><path class="cls-2" d="M658.55,107.31a6.36,6.36,0,1,0,6.85-5.83A6.36,6.36,0,0,0,658.55,107.31Z"/><path class="cls-2" d="M699.26,110.62a6.36,6.36,0,1,0,6.86-5.82A6.37,6.37,0,0,0,699.26,110.62Z"/><path class="cls-2" d="M649.28,98.75a.72.72,0,0,1-.44-.14.78.78,0,0,1-.19-1.08C659.2,82.58,672.9,90,673,90.11a.78.78,0,0,1,.29,1.06.77.77,0,0,1-1.05.29c-.51-.28-12.63-6.83-22.36,7a.79.79,0,0,1-.64.32Z"/><path class="cls-2" d="M723.07,104.76a.77.77,0,0,1-.7-.44C715,89.1,702,93.63,701.43,93.83a.77.77,0,1,1-.53-1.45c.15,0,14.87-5.19,22.86,11.27a.78.78,0,0,1-.69,1.11Z"/><path class="cls-2" d="M684,142c-.53,0-1.06,0-1.59-.07-7.14-.58-12.43-4.84-12-9.7a1.55,1.55,0,1,1,3.09.25c-.24,3,4,5.94,9.2,6.37s9.85-1.78,10.1-4.8a1.55,1.55,0,1,1,3.08.25c-.37,4.49-5.44,7.7-11.84,7.7Z"/><path class="cls-11" d="M712,124.94a7.41,7.41,0,1,0,7.41-7.44A7.43,7.43,0,0,0,712,124.94Z"/><path class="cls-11" d="M640,119a7.41,7.41,0,1,0,7.41-7.44A7.43,7.43,0,0,0,640,119Z"/><path class="cls-3" d="M660,107.06a2.46,2.46,0,1,0,2.66-2.25A2.46,2.46,0,0,0,660,107.06Z"/><path class="cls-3" d="M700,110.32a2.46,2.46,0,1,0,2.66-2.26A2.46,2.46,0,0,0,700,110.32Z"/><path class="cls-27" d="M750.63,110.52c-1.75,7.27-10.5,14.78-10.5,14.78,1.35-5.85,0-13.73,0-13.73a62.59,62.59,0,0,1-3.32,10c.39-12-5.15-26-5.15-26-.68,6.1-4.88,18.61-4.88,18.61.54-13.55-7.41-24.53-7.41-24.53.59,4.93-3,8.64-3,8.64,0-5.42-4.45-12.72-4.45-12.72.3,4.22-8.52,12.4-8.52,12.4.92-4.37-4.2-15.88-4.2-15.88.78,3.12-7.18,11.35-7.18,11.35,1.74-3.48-2.82-14.75-2.82-14.75C686.45,80.45,683.72,98,683.72,98c-7.62-11.49-3-25.93-3-25.93S659.6,78.36,658.53,98c0,0-2.72-16.31,2.44-27,0,0-12.41,9.68-11.69,21,0,0-4.67-5.84-4-13.3,0,0-12.06,9.22-8.07,22.76,0,0-4.19-4.6-4-13.54,0,0-3.3,10.07-10.1,13.54,0,0-2.57-8.45,3.19-19.36,0,0-7.12,7.3-7.12,10.22,0,0-1-15,12.88-22.83,0,0-11-7.16-7.73-13.74,0,0,6.71,6.18,11.79,5.89,0,0-11.17-12.85,3.9-25.88,0,0-3.56,10.79,2.2,14.13,0,0,4.66-19.36,18.76-21.74,0,0-5.44,8.81-2.44,12.88,0,0,71.32-10.84,79,24.06,0,0,4.08-8.47-.72-11.86,0,0,7.73,4.28,3,14.5,0,0,3.18-.61,6.51,7.18l-3.8-.34s6.43,0,9.65,20.33l-7.31-2.58S753.7,97.76,750.63,110.52Z"/><path class="cls-2" d="M740.13,126.08a.8.8,0,0,1-.4-.11.77.77,0,0,1-.35-.84,33.21,33.21,0,0,0,.44-9.41c-1,3-2.23,6-2.3,6.15a.77.77,0,0,1-.88.46.78.78,0,0,1-.61-.78c.29-8.51-2.53-18.21-4.09-22.88a160.16,160.16,0,0,1-4.43,15.76.77.77,0,0,1-1.5-.27c.38-9.66-3.7-18.08-5.91-21.88A12.85,12.85,0,0,1,717,98.83a.77.77,0,0,1-1.33-.53c0-3.54-2-8-3.32-10.48-1.65,4.41-7.57,10-8.35,10.73a.78.78,0,0,1-1.29-.73c.58-2.74-1.58-9.09-3.17-13.08-1.54,3.59-5.83,8.15-6.89,9.25a.78.78,0,0,1-1,.09.77.77,0,0,1-.24-1c1.15-2.31-1-9.28-2.39-12.93-1.61,2.84-3.52,11.68-4.5,17.92a.77.77,0,0,1-.59.64.78.78,0,0,1-.81-.33c-6.4-9.65-4.49-21.12-3.53-25.13C675,75.07,660.17,82.05,659.3,98a.77.77,0,0,1-.73.73.79.79,0,0,1-.81-.64c-.1-.61-2.23-13.84,1.26-24.36-3.49,3.43-9.46,10.47-9,18.2a.78.78,0,0,1-1.38.53,21.46,21.46,0,0,1-4.25-12c-2.92,2.82-9.5,10.58-6.5,20.76a.79.79,0,0,1-.36.9.78.78,0,0,1-1-.16c-.16-.17-3.3-3.7-4-10.51-1.59,3.35-4.59,8.36-9.13,10.68a.76.76,0,0,1-.66,0,.73.73,0,0,1-.43-.48c-.1-.31-1.94-6.63,1.23-15.41-1.93,2.35-3.64,4.83-3.64,6a.77.77,0,0,1-.75.77.75.75,0,0,1-.8-.72c0-.15-.84-14.84,12.22-22.94-2.77-2-10-8.1-7-14a.75.75,0,0,1,.55-.41.73.73,0,0,1,.66.19c.06,0,5.21,4.75,9.66,5.58a18.71,18.71,0,0,1-3.11-11.34c.37-5.12,3.1-9.91,8.11-14.24a.78.78,0,0,1,.94-.06.76.76,0,0,1,.3.88c0,.1-2.91,9,1,12.6,1.24-4.24,6.45-19.09,19.08-21.21a.81.81,0,0,1,.78.33.79.79,0,0,1,0,.84c-1.38,2.24-4.42,8.49-2.72,11.63a182.51,182.51,0,0,1,23.45-1.53c22,0,49,4.23,55.3,23.91.79-2.57,1.51-6.73-1.3-8.71a.77.77,0,0,1,.82-1.31c.08.05,7.81,4.47,3.73,14.55,1.44.44,3.77,2.06,6.1,7.51a.8.8,0,0,1-.09.76.75.75,0,0,1-.69.31l-.37,0c2.34,2.33,5.22,7.53,7.06,19.13a.79.79,0,0,1-.27.72.78.78,0,0,1-.75.13l-3.79-1.34c2.43,2.89,5.24,8.24,3.28,16.41-1.8,7.43-10.39,14.88-10.76,15.19a.73.73,0,0,1-.5.19Zm0-15.29h0a.78.78,0,0,1,.76.65,46.11,46.11,0,0,1,.39,11.73c2.58-2.54,7.39-7.8,8.6-12.83,2.9-12-5.1-17.15-5.45-17.36a.78.78,0,0,1,.67-1.39l6.08,2.15c-3-17.35-8.38-18.35-8.65-18.39a.9.9,0,0,1-.68-.49,1,1,0,0,1-.06-.33.73.73,0,0,1,.71-.73h.09l.14,0,2.32.2c-2.57-5.36-4.82-5.52-5.09-5.52a.74.74,0,0,1-.77-.26.78.78,0,0,1-.1-.83c1.91-4.11,1.7-7.17.83-9.33a18.05,18.05,0,0,1-1.69,7.34.78.78,0,0,1-.79.43.74.74,0,0,1-.66-.6c-4.56-20.7-32.11-25-54.42-25a179.1,179.1,0,0,0-23.72,1.58.76.76,0,0,1-.74-.3c-2.49-3.38.09-9.38,1.55-12.2C647.27,32.72,643,49.89,643,50.07a.82.82,0,0,1-.45.53.79.79,0,0,1-.69,0c-4.43-2.57-3.93-8.84-3.22-12.43-4.62,4.71-6.45,9.83-5.45,15.25a17.94,17.94,0,0,0,3.54,7.76.78.78,0,0,1-.54,1.28c-4.33.21-9.5-3.69-11.52-5.37-1.52,5.64,7.73,11.73,7.83,11.79a.78.78,0,0,1-.05,1.33,24.27,24.27,0,0,0-12.21,18,56.51,56.51,0,0,1,5.52-6.63.77.77,0,0,1,1.24.9c-4.44,8.42-3.79,15.35-3.35,17.81,5.85-3.67,8.82-12.5,8.85-12.59a.77.77,0,0,1,1.5.26,22.68,22.68,0,0,0,1.69,9.38c-.78-11.5,9-19.15,9.13-19.24a.79.79,0,0,1,.85-.06.76.76,0,0,1,.39.75,19.05,19.05,0,0,0,2.52,10.68c1-10.45,11.47-18.73,12-19.11a.78.78,0,0,1,1,0,.77.77,0,0,1,.21.94c-3.12,6.48-3.28,15.18-3,20.83,4.38-15.43,21.56-20.75,21.75-20.81a.78.78,0,0,1,1,1c0,.14-3.93,12.78,1.88,23.5.88-5.13,3-16.17,5.52-17.74a.78.78,0,0,1,.65-.08.77.77,0,0,1,.48.45c.39,1,3.19,8,3.27,12.64,2.8-3.21,5.66-7.22,5.27-8.76a.78.78,0,0,1,1.46-.51c.18.42,4,9,4.34,14.29,2.79-2.82,7.09-7.78,6.9-10.44a.78.78,0,0,1,.54-.79.76.76,0,0,1,.89.33c.17.27,3.56,5.89,4.39,11a10.25,10.25,0,0,0,1.6-6.45.76.76,0,0,1,.48-.81.77.77,0,0,1,.91.27,44.9,44.9,0,0,1,7.43,20.38c1.28-4.18,3.05-10.39,3.46-14.1a.79.79,0,0,1,.67-.68.75.75,0,0,1,.82.49c.21.51,4.49,11.48,5.14,22.34a42.18,42.18,0,0,0,1.85-6.21.78.78,0,0,1,.76-.64Z"/><path class="cls-28" d="M726.2,56.17c8.67,6.84,11.94,17.13,7.32,23s-15.4,5.06-24.06-1.78-11.94-17.13-7.32-23S717.54,49.33,726.2,56.17Z"/><path class="cls-29" d="M707.46,53.27c6.24,4.93,8.61,12.35,5.27,16.58s-11.1,3.65-17.35-1.28S686.77,56.21,690.1,52,701.21,48.33,707.46,53.27Z"/><path class="cls-30" d="M1033.7,191.73a146.69,146.69,0,0,1-9.55-29.39l-44.77,1.36a107.15,107.15,0,0,1-3.93,28"/><path class="cls-2" d="M1033.7,192.51a.8.8,0,0,1-.71-.45,149,149,0,0,1-9.46-28.93l-43.38,1.32a110.1,110.1,0,0,1-3.95,27.49.77.77,0,1,1-1.49-.42,107.33,107.33,0,0,0,3.9-27.81.78.78,0,0,1,.75-.79l44.77-1.35a.75.75,0,0,1,.78.62,147.16,147.16,0,0,0,9.49,29.22.78.78,0,0,1-.38,1,.71.71,0,0,1-.32.07Z"/><path class="cls-9" d="M1020,162.34c.27,6.32-6.92,11.76-16.08,12.15s-16.79-4.42-17.06-10.74Z"/><path class="cls-2" d="M1002.89,175.28c-9.14,0-16.52-5.05-16.79-11.49a.76.76,0,0,1,.2-.56.78.78,0,0,1,.53-.25l33.15-1.41a.74.74,0,0,1,.8.74c.15,3.31-1.56,6.49-4.81,8.94a21.56,21.56,0,0,1-12,4c-.36,0-.71,0-1.07,0Zm-15.17-10.79c.82,5.46,7.8,9.58,16.18,9.23A20.06,20.06,0,0,0,1015,170c2.57-1.94,4-4.35,4.19-6.87l-31.51,1.34Z"/><path class="cls-9" d="M1068.63,116.28s14.51-20.83,19.75-6.54-7.57,35.06-21.13,23.48Z"/><path class="cls-2" d="M1075.31,137.37a13.13,13.13,0,0,1-8.56-3.57.77.77,0,0,1-.27-.65l1.38-16.94a.86.86,0,0,1,.13-.38c.34-.48,8.35-11.87,15-11.87,2.74,0,4.81,1.85,6.16,5.51,2.45,6.68,1.2,15.29-3.1,21.45-2.9,4.16-6.7,6.45-10.7,6.45Zm-7.26-4.49a11.52,11.52,0,0,0,7.26,2.94c3.48,0,6.83-2,9.44-5.79,4-5.76,5.19-13.8,2.91-20-1.12-3-2.66-4.51-4.71-4.51-5.41,0-12.56,9.65-13.57,11l-1.33,16.33Z"/><path class="cls-2" d="M1068.1,123.51a.76.76,0,0,1-.58-.27.77.77,0,0,1,.07-1.09c1.09-1,10.78-9.23,15.79-7.47a4.3,4.3,0,0,1,2.69,3.66.77.77,0,0,1-1.52.28,2.85,2.85,0,0,0-1.69-2.48c-3.54-1.24-11.48,4.76-14.25,7.18a.75.75,0,0,1-.51.19Z"/><path class="cls-9" d="M942.14,106s-10.95-22.89-18.43-9.64,1.8,35.83,17,26.58Z"/><path class="cls-2" d="M933.86,125.86h0c-4.2,0-7.92-2.42-10.49-6.81-4-6.86-4.14-16.36-.33-23.09,1.69-3,3.73-4.52,6.07-4.52,6.86,0,13.45,13.63,13.73,14.21a.67.67,0,0,1,.07.39L941.53,123a.73.73,0,0,1-.37.6,14.09,14.09,0,0,1-7.3,2.28ZM929.11,93c-1.74,0-3.33,1.26-4.73,3.74-3.49,6.18-3.35,15.24.33,21.55,2.28,3.89,5.52,6,9.15,6h0a12.32,12.32,0,0,0,6.16-1.85l1.34-16.33C939.49,102.3,933.91,93,929.11,93Z"/><path class="cls-2" d="M941.62,113.21a.8.8,0,0,1-.6-.27c-2.34-2.84-9.18-10-12.9-9.39-.93.16-1.61.87-2.06,2.17a.77.77,0,1,1-1.46-.52,4.27,4.27,0,0,1,3.25-3.17c5.24-.93,13.45,8.81,14.36,9.92a.77.77,0,0,1-.1,1.09.75.75,0,0,1-.49.17Z"/><path class="cls-9" d="M1075.89,113.9c3.14-38.59-25.83-72.44-64.69-75.6s-72.92,25.56-76.07,64.14,26.88,59.48,65.75,62.65S1072.75,152.48,1075.89,113.9Z"/><path class="cls-2" d="M1010.4,166.25h0c-3.12,0-6.35-.13-9.58-.39-43.89-3.57-69.35-27.9-66.46-63.48,3-36.5,34.16-65.09,71-65.09,2,0,3.95.08,5.91.24,39.23,3.19,68.57,37.48,65.4,76.43-2.66,32.74-27.44,52.29-66.26,52.29Zm-5-127.41c-36,0-66.54,28-69.45,63.66-3.36,41.4,31.39,59.08,65,61.82,3.19.26,6.38.39,9.46.39,37.93,0,62.13-19,64.72-50.87,3.1-38.11-25.61-71.65-64-74.77-1.92-.15-3.86-.23-5.78-.23Z"/><path class="cls-9" d="M998.31,117.36c-.19,2.4,2.55,4.59,6.13,4.88s6.64-1.42,6.84-3.83-2.56-4.6-6.13-4.89S998.51,115,998.31,117.36Z"/><path class="cls-2" d="M1005.22,123.05h0l-.85,0a9.09,9.09,0,0,1-4.89-1.82,4.56,4.56,0,0,1-1.94-3.91c.23-2.8,3.6-4.86,7.67-4.54s7.07,2.84,6.84,5.72c-.22,2.61-3.15,4.58-6.83,4.58Zm-.86-8.79c-2.82,0-5.13,1.39-5.28,3.16a3.07,3.07,0,0,0,1.36,2.57,7.53,7.53,0,0,0,4.06,1.48c3.12.27,5.85-1.2,6-3.12s-2.32-3.81-5.41-4.06l-.73,0Z"/><path class="cls-2" d="M975.18,96.71a7.48,7.48,0,1,0,8.07-6.85A7.49,7.49,0,0,0,975.18,96.71Z"/><path class="cls-2" d="M1023.08,100.61a7.48,7.48,0,1,0,8.07-6.86A7.47,7.47,0,0,0,1023.08,100.61Z"/><path class="cls-2" d="M964.28,86.51a.82.82,0,0,1-.45-.14.78.78,0,0,1-.18-1.08C976,67.79,992,76.51,992.16,76.6A.77.77,0,1,1,991.4,78c-.6-.34-15-8.1-26.49,8.23a.76.76,0,0,1-.63.33Z"/><path class="cls-2" d="M1051.09,93.57a.79.79,0,0,1-.7-.43c-8.73-18-24.16-12.65-24.81-12.41a.78.78,0,0,1-.53-1.46c.17-.06,17.38-6.07,26.73,13.19a.77.77,0,0,1-.36,1,.75.75,0,0,1-.33.07Z"/><path class="cls-2" d="M1005.08,137.36c-.61,0-1.24,0-1.87-.08a19.18,19.18,0,0,1-10-3.54c-2.82-2.13-4.24-4.85-4-7.66a1.62,1.62,0,0,1,3.23.26c-.14,1.67.83,3.38,2.73,4.82a16,16,0,0,0,8.27,2.89c6.24.51,11.8-2.16,12.1-5.82a1.62,1.62,0,1,1,3.23.26c-.42,5.18-6.3,8.87-13.73,8.87Z"/><path class="cls-11" d="M951.64,119.8a9.63,9.63,0,1,0,9.62-9.67A9.65,9.65,0,0,0,951.64,119.8Z"/><path class="cls-11" d="M1036.57,127.7a9.62,9.62,0,1,0,9.62-9.66A9.64,9.64,0,0,0,1036.57,127.7Z"/><path class="cls-3" d="M976.9,96.42A2.89,2.89,0,1,0,980,93.77,2.9,2.9,0,0,0,976.9,96.42Z"/><path class="cls-3" d="M1024,100.25a2.89,2.89,0,1,0,3.12-2.65A2.9,2.9,0,0,0,1024,100.25Z"/><path class="cls-31" d="M1075.89,113.9s17.36-58.16-32.12-75.84c0,0-20.34-25.68-53.65-17.59s-71.84,37.4-55.21,74.86c0,0,1.68-11.79,7.23-18.15,0,0-1.65,15.14,2.67,21.45,0,0,17.3-46.54,62.93-49.42,0,0,0,19.3,9.45,36.73,0,0-5.43-27.57,0-33.11,0,0,32.33,49,50.91,51.36a28.46,28.46,0,0,1-10.4-18.25S1075.19,91.3,1075.89,113.9Z"/><path class="cls-2" d="M1075.89,114.67h-.1a.79.79,0,0,1-.68-.75c-.57-18.6-12.56-25.15-16.45-26.8a28.11,28.11,0,0,0,9.9,16.45.78.78,0,0,1,.26.91.79.79,0,0,1-.82.48c-17.53-2.27-46.2-43.89-50.85-50.8-3.33,5.59-.61,24.46.8,31.63a.78.78,0,0,1-.49.88.8.8,0,0,1-1-.36c-8.33-15.37-9.39-32.37-9.52-36.27-44,3.31-61.28,48.4-61.45,48.85a.77.77,0,0,1-1.36.17c-3.36-4.89-3.28-14.58-3-19.29-4.12,6.33-5.48,15.57-5.49,15.67a.78.78,0,0,1-1.48.2c-5.57-12.54-5.44-24.9.38-36.72,10.63-21.6,36.47-34.62,55.36-39.2a55.38,55.38,0,0,1,13-1.6c24.36,0,39.61,17.34,41.25,19.29,49.35,17.8,32.57,76.12,32.4,76.71a.77.77,0,0,1-.74.55ZM1057.7,85.16a.93.93,0,0,1,.23,0c.17,0,15.45,5,18.3,23.83,2.78-14,7.35-55.92-32.72-70.24a.73.73,0,0,1-.35-.25c-.15-.19-15.26-18.87-40.18-18.87a53.75,53.75,0,0,0-12.67,1.55C971.74,25.73,946.36,38.49,936,59.61c-5.24,10.63-5.69,21.73-1.35,33,.84-3.9,2.86-11.27,6.94-15.94a.77.77,0,0,1,1.35.59c0,.14-1.37,13,1.79,19.6,3.48-8,22-45.85,63-48.43a.76.76,0,0,1,.82.77,88.39,88.39,0,0,0,7,31.56c-1.3-8.42-3.06-24.22,1.12-28.48a.77.77,0,0,1,.63-.23.78.78,0,0,1,.57.34c.3.46,29,43.71,47.38,50.28A28.83,28.83,0,0,1,1056.93,86a.76.76,0,0,1,.27-.68.8.8,0,0,1,.5-.19Z"/><path class="cls-32" d="M984.72,24.53c10.63-1.86,20.26,2.45,21.52,9.64s-6.33,14.52-17,16.38S969,48.1,967.75,40.91,974.09,26.39,984.72,24.53Z"/><path class="cls-33" d="M970.39,36.3c7.67-1.34,14.62,1.77,15.52,7s-4.56,10.48-12.23,11.82-14.62-1.77-15.53-7S962.72,37.65,970.39,36.3Z"/><path class="cls-31" d="M1060.24,55.38c-.24-11.48,16.47-15.81,16.47-15.81-10-13.35-32.94-1.51-32.94-1.51S1056.15,16,1038.2,7V24.1a20.28,20.28,0,0,0-18.33-13L1024,31.16"/><path class="cls-2" d="M1060.24,56.16a.77.77,0,0,1-.77-.76c-.22-10.29,12-15,15.91-16.25-9.88-11.25-31-.51-31.26-.4a.78.78,0,0,1-.91-.15.8.8,0,0,1-.12-.92c.07-.11,6.15-11.15,3.3-20.46a15.44,15.44,0,0,0-7.42-9V24.1a.76.76,0,0,1-.65.76.79.79,0,0,1-.86-.53,19.27,19.27,0,0,0-16.62-12.43L1024.75,31a.78.78,0,0,1-1.52.31l-4.11-20.11a.75.75,0,0,1,.17-.66.78.78,0,0,1,.63-.27,21.07,21.07,0,0,1,17.51,10.45V7a.76.76,0,0,1,.36-.66.79.79,0,0,1,.76,0c4.79,2.42,7.93,5.95,9.33,10.52,2.31,7.57-.73,15.9-2.44,19.65,6-2.6,23.25-8.81,31.89,2.68a.81.81,0,0,1,.11.72.79.79,0,0,1-.54.5c-.16,0-16.11,4.31-15.89,15a.77.77,0,0,1-.75.79Z"/><path class="cls-20" d="M506.55,185.36s-6,14.39,3.33,16.11,13.22-11.6,13.22-11.6l3.25-13.23-10.86-4A43.3,43.3,0,0,0,506.55,185.36Z"/><path class="cls-2" d="M511.52,202.4h0a9.84,9.84,0,0,1-1.78-.17,6.51,6.51,0,0,1-4.85-3.33c-2.71-5,.8-13.48.95-13.83a43.5,43.5,0,0,1,9.14-13,.75.75,0,0,1,.78-.15l10.86,4a.76.76,0,0,1,.48.91l-3.25,13.24c-.15.53-3.68,12.34-12.33,12.34Zm4.16-28.86a44,44,0,0,0-8.43,12.16c0,.05-3.35,8.13-1,12.47a5,5,0,0,0,3.77,2.54,8.55,8.55,0,0,0,1.5.14c7.49,0,10.8-11.08,10.84-11.19l3.08-12.54-9.76-3.58Z"/><path class="cls-9" d="M515.49,172.65s-.15-3-5.61-5.11.37-9.66,5.61-6.22,16.48,5.3,10.86,15.32Z"/><path class="cls-2" d="M526.35,177.41a.75.75,0,0,1-.26,0l-10.86-4a.79.79,0,0,1-.51-.69s-.29-2.52-5.13-4.43c-2-.78-3-2.34-2.61-4.19a5.84,5.84,0,0,1,8.94-3.4,34.52,34.52,0,0,0,3.88,2c3.49,1.65,7.45,3.53,8.56,7,.67,2.11.23,4.49-1.33,7.28a.78.78,0,0,1-.68.4Zm-10.19-5.34,9.83,3.61c1.09-2.14,1.38-3.94.89-5.48-.9-2.85-4.38-4.5-7.74-6.1a33.41,33.41,0,0,1-4.07-2.14,4.39,4.39,0,0,0-2.41-.76,4.33,4.33,0,0,0-4.16,3.16c-.21,1.1.37,1.95,1.66,2.46,4.53,1.79,5.7,4.19,6,5.25Z"/><path class="cls-20" d="M569.9,185.36s6,14.39-3.32,16.11-13.22-11.6-13.22-11.6l-3.25-13.23,10.85-4A43.09,43.09,0,0,1,569.9,185.36Z"/><path class="cls-2" d="M564.94,202.4c-8.65,0-12.18-11.81-12.32-12.31l-3.26-13.27a.76.76,0,0,1,.48-.91l10.86-4a.75.75,0,0,1,.78.15,43.35,43.35,0,0,1,9.12,13c.17.38,3.67,8.87,1,13.86a6.51,6.51,0,0,1-4.85,3.33,9.92,9.92,0,0,1-1.78.17ZM551,177.12l3.09,12.57c0,.08,3.34,11.16,10.83,11.16a8.64,8.64,0,0,0,1.5-.14,5,5,0,0,0,3.77-2.54c2.35-4.34-1-12.42-1-12.51a43.86,43.86,0,0,0-8.41-12.12L551,177.12Z"/><path class="cls-9" d="M561,172.65s.16-3,5.62-5.11-.37-9.66-5.62-6.22-16.47,5.3-10.85,15.32Z"/><path class="cls-2" d="M550.11,177.41a.78.78,0,0,1-.68-.4c-1.56-2.79-2-5.17-1.33-7.28,1.11-3.49,5.07-5.37,8.56-7a34.52,34.52,0,0,0,3.88-2,5.84,5.84,0,0,1,8.94,3.4c.35,1.85-.63,3.41-2.61,4.19-4.87,1.91-5.13,4.41-5.13,4.43a.79.79,0,0,1-.51.69l-10.86,4a.75.75,0,0,1-.26,0ZM563.8,161.2a4.39,4.39,0,0,0-2.41.76,33.41,33.41,0,0,1-4.07,2.14c-3.36,1.6-6.84,3.25-7.74,6.1-.49,1.54-.2,3.34.89,5.48l9.82-3.61c.31-1.06,1.48-3.46,6-5.25,1.29-.51,1.87-1.36,1.66-2.46a4.33,4.33,0,0,0-4.16-3.16Z"/><path class="cls-26" d="M642.08,182.89s-7,16.6,3.83,18.58,15.26-13.38,15.26-13.38l3.75-15.28-12.53-4.59A49.5,49.5,0,0,0,642.08,182.89Z"/><path class="cls-2" d="M647.81,202.42h0a11.89,11.89,0,0,1-2-.19,7.43,7.43,0,0,1-5.51-3.78c-3.09-5.71.93-15.45,1.1-15.86a50,50,0,0,1,10.52-15,.77.77,0,0,1,.78-.15l12.53,4.6a.76.76,0,0,1,.48.91l-3.75,15.27c-.18.61-4.22,14.15-14.11,14.15Zm4.77-33.31a50.41,50.41,0,0,0-9.8,14.11c0,.06-3.9,9.44-1.16,14.5a5.9,5.9,0,0,0,4.43,3,9.6,9.6,0,0,0,1.76.16c8.73,0,12.58-12.87,12.62-13L664,173.3l-11.43-4.19Z"/><path class="cls-9" d="M652.39,168.22s-.18-3.42-6.48-5.9.44-11.15,6.48-7.19,19,6.12,12.53,17.68Z"/><path class="cls-2" d="M664.92,173.59a.75.75,0,0,1-.26-.05l-12.53-4.6a.77.77,0,0,1-.51-.68s-.32-3-6-5.22c-2.24-.88-3.34-2.64-2.94-4.7a6.63,6.63,0,0,1,6.43-5,6.71,6.71,0,0,1,3.7,1.15,39.4,39.4,0,0,0,4.49,2.36c4,1.9,8.55,4.05,9.81,8,.77,2.4.27,5.12-1.52,8.31a.78.78,0,0,1-.68.4Zm-11.85-6,11.49,4.21c1.32-2.54,1.67-4.67,1.09-6.5-1.06-3.34-5.1-5.25-9-7.11a39,39,0,0,1-4.68-2.46,5.19,5.19,0,0,0-2.85-.89,5.1,5.1,0,0,0-4.91,3.74c-.26,1.33.43,2.36,2,3,5.29,2.08,6.57,4.88,6.88,6Z"/><path class="cls-26" d="M715.33,182.89s7,16.6-3.84,18.58-15.25-13.38-15.25-13.38l-3.76-15.28L705,168.22A49.62,49.62,0,0,1,715.33,182.89Z"/><path class="cls-2" d="M709.6,202.42c-9.9,0-13.94-13.54-14.11-14.12L691.73,173a.77.77,0,0,1,.49-.91l12.52-4.6a.79.79,0,0,1,.79.15A50.32,50.32,0,0,1,716,182.55c.19.45,4.21,10.19,1.12,15.9a7.43,7.43,0,0,1-5.52,3.78,11.71,11.71,0,0,1-2,.19ZM693.4,173.3,697,187.9c0,.1,3.88,13,12.61,13a9.57,9.57,0,0,0,1.75-.16,5.9,5.9,0,0,0,4.44-3c2.74-5.07-1.13-14.44-1.17-14.54a50.34,50.34,0,0,0-9.79-14.07L693.4,173.3Z"/><path class="cls-9" d="M705,168.22s.18-3.42,6.48-5.9-.43-11.15-6.48-7.19-19,6.12-12.53,17.68Z"/><path class="cls-2" d="M692.48,173.59a.77.77,0,0,1-.67-.4c-1.79-3.19-2.29-5.91-1.53-8.31,1.27-4,5.81-6.13,9.81-8a39.6,39.6,0,0,0,4.5-2.36,6.6,6.6,0,0,1,10.13,3.85c.39,2.06-.71,3.82-2.94,4.7-5.67,2.23-6,5.2-6,5.23a.77.77,0,0,1-.5.67l-12.53,4.6a.86.86,0,0,1-.27.05Zm15.81-18.7a5.2,5.2,0,0,0-2.86.89,39.6,39.6,0,0,1-4.67,2.46c-3.91,1.86-7.94,3.77-9,7.11-.59,1.83-.23,4,1.09,6.5l11.49-4.21c.3-1.16,1.59-4,6.87-6,1.55-.61,2.24-1.64,2-3a5.1,5.1,0,0,0-4.91-3.74Z"/><path class="cls-15" d="M793.3,181.76s-9.21,22,5.08,24.6,20.2-17.71,20.2-17.71l5-20.23L807,162.34A65.86,65.86,0,0,0,793.3,181.76Z"/><path class="cls-2" d="M800.89,207.37h0a15,15,0,0,1-2.65-.25,9.64,9.64,0,0,1-7.13-4.87c-4-7.46,1.25-20.25,1.48-20.79a65.9,65.9,0,0,1,13.86-19.7.79.79,0,0,1,.78-.15l16.58,6.09a.78.78,0,0,1,.49.91l-5,20.22c-.23.79-5.53,18.54-18.44,18.54Zm6.25-44.14A67.3,67.3,0,0,0,794,182.09c0,.09-5.21,12.62-1.52,19.42a8.11,8.11,0,0,0,6,4.09,13.75,13.75,0,0,0,2.37.22c11.75,0,16.89-17.22,16.94-17.39l4.8-19.52-15.49-5.68Z"/><path class="cls-9" d="M807,162.34s-.24-4.52-8.58-7.8S799,139.78,807,145s25.16,8.1,16.59,23.4Z"/><path class="cls-2" d="M823.55,169.2a.86.86,0,0,1-.27,0l-16.58-6.08a.79.79,0,0,1-.51-.69s-.41-4.1-8.09-7.12c-2.84-1.12-4.24-3.34-3.74-5.95a8.5,8.5,0,0,1,13-4.93,52.15,52.15,0,0,0,6,3.14c5.25,2.49,11.21,5.32,12.85,10.48,1,3.1.34,6.64-2,10.8a.77.77,0,0,1-.67.4Zm-15.9-7.43,15.54,5.7c1.85-3.52,2.36-6.47,1.56-9-1.44-4.52-6.83-7.08-12-9.55a53.13,53.13,0,0,1-6.16-3.25,7.1,7.1,0,0,0-3.91-1.23,7,7,0,0,0-6.75,5.16c-.36,1.87.63,3.37,2.78,4.22,7.13,2.8,8.66,6.57,9,8Z"/><path class="cls-15" d="M890.07,181.76s9.22,22-5.07,24.6-20.2-17.71-20.2-17.71l-5-20.23,16.59-6.08A65.73,65.73,0,0,1,890.07,181.76Z"/><path class="cls-2" d="M882.49,207.37c-12.91,0-18.21-17.75-18.43-18.51l-5-20.25a.78.78,0,0,1,.49-.91l16.58-6.09a.79.79,0,0,1,.78.15,65.75,65.75,0,0,1,13.84,19.67c.24.57,5.53,13.36,1.49,20.82a9.6,9.6,0,0,1-7.12,4.87,15,15,0,0,1-2.65.25Zm-21.74-38.46,4.8,19.55c.05.14,5.19,17.36,16.94,17.36a13.84,13.84,0,0,0,2.37-.22,8.12,8.12,0,0,0,6-4.09c3.69-6.8-1.49-19.33-1.54-19.45a66.73,66.73,0,0,0-13.13-18.83l-15.48,5.68Z"/><path class="cls-9" d="M876.42,162.34s.24-4.52,8.58-7.8-.58-14.76-8.58-9.52-25.16,8.1-16.59,23.4Z"/><path class="cls-2" d="M859.83,169.2a.77.77,0,0,1-.67-.4c-2.33-4.16-3-7.7-2-10.8,1.64-5.16,7.6-8,12.85-10.48a52.15,52.15,0,0,0,6-3.14,8.5,8.5,0,0,1,13,4.93c.5,2.61-.9,4.83-3.74,5.95-7.78,3.06-8.09,7.08-8.09,7.12a.79.79,0,0,1-.51.69l-16.58,6.08a.86.86,0,0,1-.27,0Zm20.93-24.76a7.1,7.1,0,0,0-3.92,1.23,53.13,53.13,0,0,1-6.16,3.25c-5.22,2.47-10.61,5-12,9.55-.81,2.53-.3,5.48,1.56,9l15.53-5.7c.33-1.38,1.86-5.15,9-8,2.15-.85,3.14-2.35,2.78-4.22a7,7,0,0,0-6.74-5.16Z"/><path class="cls-8" d="M323.42,181.76s-9.21,22,5.08,24.6,20.19-17.71,20.19-17.71l5-20.23-16.58-6.08A65.86,65.86,0,0,0,323.42,181.76Z"/><path class="cls-2" d="M331,207.37h0a15,15,0,0,1-2.64-.25,9.62,9.62,0,0,1-7.13-4.87c-4-7.46,1.25-20.25,1.48-20.79a66.18,66.18,0,0,1,13.85-19.7.81.81,0,0,1,.79-.15l16.58,6.09a.78.78,0,0,1,.49.91l-5,20.22c-.22.79-5.52,18.54-18.43,18.54Zm6.25-44.14a67.08,67.08,0,0,0-13.14,18.86c0,.09-5.21,12.62-1.53,19.42a8.13,8.13,0,0,0,6.05,4.09,13.73,13.73,0,0,0,2.36.22c11.76,0,16.9-17.22,16.95-17.39l4.8-19.52-15.49-5.68Z"/><path class="cls-9" d="M337.08,162.34s-.24-4.52-8.58-7.8.57-14.76,8.58-9.52,25.16,8.1,16.58,23.4Z"/><path class="cls-2" d="M353.66,169.2a.85.85,0,0,1-.26,0l-16.59-6.08a.77.77,0,0,1-.5-.69s-.41-4.1-8.1-7.12c-2.83-1.12-4.23-3.34-3.73-5.95a8.49,8.49,0,0,1,13-4.93,53.88,53.88,0,0,0,6,3.14c5.26,2.49,11.22,5.32,12.86,10.48,1,3.1.33,6.64-2,10.8a.78.78,0,0,1-.68.4Zm-15.9-7.43,15.54,5.7c1.86-3.52,2.37-6.47,1.56-9-1.43-4.52-6.82-7.08-12-9.55a53.13,53.13,0,0,1-6.16-3.25,7.13,7.13,0,0,0-3.92-1.23A7,7,0,0,0,326,149.6c-.36,1.87.63,3.37,2.78,4.22,7.13,2.8,8.66,6.57,9,8Z"/><path class="cls-8" d="M420.19,181.76s9.22,22-5.07,24.6-20.2-17.71-20.2-17.71l-5-20.23,16.58-6.08A65.65,65.65,0,0,1,420.19,181.76Z"/><path class="cls-2" d="M412.61,207.37c-12.91,0-18.21-17.75-18.43-18.51l-5-20.25a.78.78,0,0,1,.49-.91l16.58-6.09a.79.79,0,0,1,.78.15,66,66,0,0,1,13.84,19.67c.24.57,5.53,13.36,1.49,20.81a9.6,9.6,0,0,1-7.12,4.88,15,15,0,0,1-2.65.25Zm-21.74-38.46,4.8,19.55c0,.14,5.19,17.36,16.94,17.36a13.84,13.84,0,0,0,2.37-.22,8.14,8.14,0,0,0,6-4.09c3.68-6.8-1.49-19.33-1.54-19.45a67,67,0,0,0-13.13-18.83l-15.48,5.68Z"/><path class="cls-9" d="M406.53,162.34s.25-4.52,8.59-7.8-.58-14.76-8.59-9.52-25.15,8.1-16.58,23.4Z"/><path class="cls-2" d="M390,169.2a.77.77,0,0,1-.67-.4c-2.34-4.16-3-7.7-2-10.8,1.64-5.16,7.6-8,12.85-10.48a52.15,52.15,0,0,0,6-3.14,8.5,8.5,0,0,1,13,4.93c.49,2.61-.91,4.83-3.74,5.95-7.79,3.06-8.09,7.08-8.09,7.12a.79.79,0,0,1-.51.69l-16.58,6.08a.86.86,0,0,1-.27,0Zm20.92-24.76a7.1,7.1,0,0,0-3.91,1.23,52.51,52.51,0,0,1-6.17,3.25c-5.21,2.47-10.6,5-12,9.55-.81,2.53-.3,5.48,1.56,9l15.54-5.7c.33-1.38,1.86-5.15,9-8,2.15-.85,3.14-2.35,2.79-4.22a7,7,0,0,0-6.75-5.16Z"/><path class="cls-14" d="M154.93,181.76s-9.21,22,5.08,24.6,20.2-17.71,20.2-17.71l5-20.23-16.58-6.08A65.86,65.86,0,0,0,154.93,181.76Z"/><path class="cls-2" d="M162.52,207.37h0a15,15,0,0,1-2.65-.25,9.64,9.64,0,0,1-7.13-4.87c-4-7.46,1.25-20.25,1.48-20.79a65.9,65.9,0,0,1,13.86-19.7.79.79,0,0,1,.78-.15l16.58,6.09a.78.78,0,0,1,.49.91l-5,20.22c-.23.79-5.53,18.54-18.44,18.54Zm6.25-44.14a67.3,67.3,0,0,0-13.14,18.86c0,.09-5.21,12.62-1.52,19.42a8.1,8.1,0,0,0,6,4.09,13.75,13.75,0,0,0,2.37.22c11.75,0,16.89-17.22,16.94-17.39l4.8-19.52-15.49-5.68Z"/><path class="cls-9" d="M168.59,162.34s-.24-4.52-8.58-7.8.58-14.76,8.58-9.52,25.16,8.1,16.58,23.4Z"/><path class="cls-2" d="M185.17,169.2a.85.85,0,0,1-.26,0l-16.58-6.08a.79.79,0,0,1-.51-.69s-.41-4.1-8.09-7.12c-2.84-1.12-4.24-3.34-3.74-5.95a8.5,8.5,0,0,1,13-4.93,52.15,52.15,0,0,0,6,3.14c5.25,2.49,11.21,5.32,12.85,10.48,1,3.1.33,6.64-2,10.8a.78.78,0,0,1-.68.4Zm-15.89-7.43,15.53,5.7c1.86-3.52,2.37-6.47,1.56-9-1.43-4.52-6.82-7.08-12-9.55a53.13,53.13,0,0,1-6.16-3.25,7.1,7.1,0,0,0-3.91-1.23,7,7,0,0,0-6.75,5.16c-.36,1.87.63,3.37,2.78,4.22,7.13,2.8,8.66,6.57,9,8Z"/><path class="cls-14" d="M251.7,181.76s9.22,22-5.07,24.6-20.2-17.71-20.2-17.71l-5-20.23,16.59-6.08A65.73,65.73,0,0,1,251.7,181.76Z"/><path class="cls-2" d="M244.12,207.37c-12.91,0-18.21-17.75-18.43-18.51l-5-20.25a.78.78,0,0,1,.49-.91l16.58-6.09a.79.79,0,0,1,.78.15,65.75,65.75,0,0,1,13.84,19.67c.24.57,5.53,13.36,1.49,20.82a9.62,9.62,0,0,1-7.12,4.87,15,15,0,0,1-2.65.25Zm-21.74-38.46,4.8,19.55c0,.14,5.19,17.36,16.94,17.36a13.84,13.84,0,0,0,2.37-.22,8.12,8.12,0,0,0,6-4.09c3.69-6.81-1.49-19.33-1.54-19.45a67,67,0,0,0-13.13-18.83l-15.48,5.68Z"/><path class="cls-9" d="M238.05,162.34s.24-4.52,8.58-7.8-.58-14.76-8.58-9.52-25.16,8.1-16.59,23.4Z"/><path class="cls-2" d="M221.46,169.2a.77.77,0,0,1-.67-.4c-2.33-4.16-3-7.7-2-10.8,1.64-5.16,7.6-8,12.85-10.48a52.15,52.15,0,0,0,6-3.14,8.5,8.5,0,0,1,13,4.93c.49,2.61-.9,4.83-3.74,5.95-7.68,3-8.09,7.09-8.09,7.13a.81.81,0,0,1-.51.68l-16.58,6.08a.86.86,0,0,1-.27,0Zm20.92-24.76a7.1,7.1,0,0,0-3.91,1.23,53.13,53.13,0,0,1-6.16,3.25c-5.22,2.47-10.61,5-12,9.55-.81,2.53-.3,5.48,1.56,9l15.53-5.7c.33-1.38,1.86-5.15,9-8,2.15-.85,3.14-2.35,2.78-4.22a7,7,0,0,0-6.75-5.16Z"/><path class="cls-30" d="M955.08,183.31s-9.22,22,5.07,24.6,20.2-17.71,20.2-17.71l5-20.22-16.59-6.09A66,66,0,0,0,955.08,183.31Z"/><path class="cls-2" d="M962.66,208.92h0a15,15,0,0,1-2.65-.25,9.62,9.62,0,0,1-7.12-4.87c-4-7.46,1.25-20.25,1.47-20.79a66,66,0,0,1,13.86-19.69.75.75,0,0,1,.78-.15l16.58,6.08a.78.78,0,0,1,.49.91l-5,20.22c-.23.79-5.53,18.54-18.44,18.54Zm6.26-44.14a67.25,67.25,0,0,0-13.14,18.86c0,.09-5.21,12.62-1.53,19.42a8.11,8.11,0,0,0,6,4.09,13.84,13.84,0,0,0,2.37.22c11.75,0,16.9-17.21,17-17.39l4.79-19.52-15.48-5.68Z"/><path class="cls-9" d="M968.73,163.89s-.24-4.52-8.58-7.8.58-14.76,8.58-9.51,25.17,8.09,16.59,23.4Z"/><path class="cls-2" d="M985.32,170.75a.86.86,0,0,1-.27-.05l-16.58-6.08a.79.79,0,0,1-.51-.69s-.41-4.1-8.09-7.12c-2.84-1.12-4.23-3.34-3.74-5.95a8.5,8.5,0,0,1,13-4.93,50.62,50.62,0,0,0,6,3.14c5.25,2.5,11.21,5.32,12.85,10.48,1,3.1.34,6.64-2,10.8a.77.77,0,0,1-.67.4Zm-15.9-7.43L985,169c1.86-3.51,2.37-6.47,1.56-9-1.44-4.52-6.83-7.08-12-9.55a52.51,52.51,0,0,1-6.17-3.25,7,7,0,0,0-10.66,3.93c-.35,1.87.63,3.37,2.79,4.22,7.12,2.8,8.65,6.57,9,7.95Z"/><path class="cls-30" d="M1055.22,183.31s9.21,22-5.08,24.6S1030,190.2,1030,190.2L1025,170l16.58-6.09A65.86,65.86,0,0,1,1055.22,183.31Z"/><path class="cls-2" d="M1047.64,208.92c-12.92,0-18.22-17.75-18.44-18.51l-5-20.25a.77.77,0,0,1,.48-.91l16.58-6.08a.77.77,0,0,1,.79.15A65.85,65.85,0,0,1,1055.92,183c.24.57,5.52,13.36,1.49,20.82a9.62,9.62,0,0,1-7.13,4.87,15,15,0,0,1-2.64.25Zm-21.75-38.46L1030.7,190c0,.15,5.18,17.36,16.94,17.36a12.8,12.8,0,0,0,2.36-.22,8.12,8.12,0,0,0,6-4.09c3.68-6.81-1.49-19.33-1.55-19.45a66.79,66.79,0,0,0-13.12-18.83l-15.49,5.68Z"/><path class="cls-9" d="M1041.56,163.89s.24-4.52,8.58-7.8-.57-14.76-8.58-9.51S1016.4,154.67,1025,170Z"/><path class="cls-2" d="M1025,170.75a.78.78,0,0,1-.68-.4c-2.33-4.16-3-7.7-2-10.8,1.65-5.16,7.6-8,12.86-10.48a52.24,52.24,0,0,0,6-3.14,8.49,8.49,0,0,1,13,4.93c.5,2.61-.9,4.83-3.74,5.95-7.68,3-8.09,7.09-8.09,7.13a.8.8,0,0,1-.5.68l-16.59,6.08a.75.75,0,0,1-.26.05ZM1045.9,146a7.12,7.12,0,0,0-3.92,1.22,53.13,53.13,0,0,1-6.16,3.25c-5.21,2.47-10.6,5-12,9.55-.81,2.53-.3,5.49,1.56,9l15.53-5.7c.33-1.38,1.86-5.15,9-7.95,2.15-.85,3.14-2.35,2.78-4.22a7,7,0,0,0-6.74-5.15Z"/><path class="cls-4" d="M106.07,116.4c-7.79-2.26-17.37,3.83-22.66,7.92a43.57,43.57,0,0,0-50.31.17c-5.24-4.09-15-10.38-22.86-8.09,0,0-7.54,23.68,6.08,32.68a43,43,0,0,0-1.25,12c.9,23.74,22.61,26.8,46.52,25.89s41-5.42,40.05-29.16a43,43,0,0,0-1.29-8.94C113.47,139.65,106.07,116.4,106.07,116.4Z"/><path class="cls-2" d="M54.87,187.88h0c-18.43,0-39.7-3-40.6-26.81a44,44,0,0,1,1.14-11.64C2.07,140,9.15,117.14,9.46,116.16a.81.81,0,0,1,.55-.53,13.56,13.56,0,0,1,3.82-.53c6.86,0,14.19,4.47,19.3,8.38a44.38,44.38,0,0,1,50.26-.16c5-3.83,12.3-8.22,19.09-8.22a13.61,13.61,0,0,1,3.82.53.78.78,0,0,1,.54.53c.31,1,7.27,23.4-5.57,33a44.31,44.31,0,0,1,1.18,8.57c.43,11.39-3.21,19.2-11.13,23.87-6.35,3.75-15.24,5.59-29.7,6.13-2.43.1-4.64.14-6.75.14Zm-44-70.81c-.9,3.17-6.09,23.42,5.88,31.33a.79.79,0,0,1,.34.87A41.92,41.92,0,0,0,15.88,161c.66,17.46,12.68,25.25,39,25.25h0c2.1,0,4.28,0,6.69-.13,14.17-.54,22.83-2.31,28.94-5.91,7.46-4.4,10.74-11.52,10.33-22.42A42.19,42.19,0,0,0,99.56,149a.82.82,0,0,1,.32-.86c11.55-8.08,6.44-28,5.54-31.1a12.15,12.15,0,0,0-2.94-.35c-6.89,0-14.59,5.17-18.57,8.24a.81.81,0,0,1-1,0,42.69,42.69,0,0,0-49.37.16.8.8,0,0,1-1,0c-4-3.13-11.82-8.4-18.78-8.4a12.29,12.29,0,0,0-2.95.35Z"/><path class="cls-6" d="M64.69,166.36c.07,1.93-2.19,3.58-5,3.69s-5.25-1.36-5.32-3.29,2.18-3.57,5-3.68S64.61,164.44,64.69,166.36Z"/><path class="cls-2" d="M59.33,170.83c-3.16,0-5.7-1.77-5.78-4a3.78,3.78,0,0,1,1.74-3.18,7.42,7.42,0,0,1,4.05-1.31h.33c3.16,0,5.7,1.77,5.79,4s-2.45,4.37-5.79,4.49Zm.34-7H59.4a5.9,5.9,0,0,0-3.2,1,2.32,2.32,0,0,0-1.11,1.87c0,1.41,2,2.56,4.24,2.56h.28c2.39-.09,4.36-1.42,4.3-2.89s-1.95-2.55-4.24-2.55Z"/><path class="cls-2" d="M83.51,158a6,6,0,1,1-6.19-5.74A6,6,0,0,1,83.51,158Z"/><path class="cls-2" d="M45.2,159.49a6,6,0,1,1-6.2-5.73A6,6,0,0,1,45.2,159.49Z"/><path class="cls-7" d="M36.88,173.79a5.79,5.79,0,1,1-5.54-6A5.8,5.8,0,0,1,36.88,173.79Z"/><path class="cls-7" d="M93.21,171.56a5.79,5.79,0,1,1-5.53-6.06A5.79,5.79,0,0,1,93.21,171.56Z"/><path class="cls-3" d="M82.15,157.72a2.31,2.31,0,1,1-2.4-2.22A2.31,2.31,0,0,1,82.15,157.72Z"/><path class="cls-3" d="M44.48,159.18a2.31,2.31,0,0,1-4.62.18,2.31,2.31,0,1,1,4.62-.18Z"/><path class="cls-2" d="M55.16,179.08a6,6,0,0,1-6-5.74,1.54,1.54,0,0,1,1.48-1.61,1.58,1.58,0,0,1,1.61,1.48,2.89,2.89,0,0,0,5,1.84,2.9,2.9,0,0,0,.76-2.08v-.07a1.56,1.56,0,0,1,1.48-1.55,1.54,1.54,0,0,1,1.61,1.49,2.93,2.93,0,0,0,.94,2,2.84,2.84,0,0,0,2.08.75,2.89,2.89,0,0,0,2.77-3,1.55,1.55,0,0,1,3.09-.13,6,6,0,0,1-10,4.66,2.08,2.08,0,0,1-.21-.21c-.07.08-.13.16-.2.23a5.91,5.91,0,0,1-4.16,1.93Z"/><path class="cls-6" d="M98.61,143.5c8.8-5.85,3.92-21.18,3.92-21.18-5.19-1.51-11.58,2.68-15,5.33A43.11,43.11,0,0,1,98.61,143.5Z"/><path class="cls-6" d="M18.2,143.32a43,43,0,0,1,11.13-15.8c-3.42-2.66-9.69-6.68-14.78-5.2C14.55,122.32,9.77,137.33,18.2,143.32Z"/><path class="cls-4" d="M21.3,190.46s12.15-13.35,21.76-4.73-1.12,9.44-1.12,9.44S22.54,205.92,21.3,190.46Z"/><path class="cls-2" d="M29.64,199.62c-3.84,0-8.54-1.58-9.14-9.09a.78.78,0,0,1,.2-.61c.3-.33,7.27-7.9,15.08-7.9a11.47,11.47,0,0,1,7.82,3.11c3.45,3.1,4.79,5.6,4.1,7.64-.87,2.56-4.57,3.09-5.52,3.19-1.06.57-7.09,3.66-12.54,3.66Zm-7.5-8.86c.5,4.87,2.95,7.24,7.5,7.24,5.45,0,11.84-3.5,11.91-3.54a.91.91,0,0,1,.33-.1c1-.08,3.78-.61,4.28-2.11.45-1.31-.85-3.41-3.64-5.91a9.87,9.87,0,0,0-6.74-2.7c-6.33,0-12.37,5.82-13.64,7.12Z"/><path class="cls-4" d="M94.66,190.46s-12.15-13.35-21.76-4.73S74,195.17,74,195.17,93.42,205.92,94.66,190.46Z"/><path class="cls-2" d="M86.33,199.62h0c-5.45,0-11.48-3.09-12.53-3.66-1-.1-4.66-.63-5.53-3.19-.69-2,.65-4.54,4.1-7.64A11.47,11.47,0,0,1,80.18,182c7.81,0,14.78,7.57,15.08,7.9a.83.83,0,0,1,.21.61c-.61,7.51-5.31,9.09-9.14,9.09Zm-6.15-16a9.87,9.87,0,0,0-6.74,2.7c-2.79,2.5-4.09,4.6-3.64,5.91.51,1.5,3.33,2,4.28,2.11a1,1,0,0,1,.34.1c.06,0,6.45,3.54,11.9,3.54h0c4.54,0,7-2.37,7.49-7.24-1.27-1.3-7.31-7.12-13.64-7.12Z"/><path class="cls-5" d="M1102,190.46s12.14-13.35,21.75-4.73-1.12,9.44-1.12,9.44S1103.22,205.92,1102,190.46Z"/><path class="cls-2" d="M1110.32,199.62c-3.84,0-8.54-1.58-9.14-9.09a.79.79,0,0,1,.21-.61c.29-.33,7.27-7.9,15.07-7.9a11.45,11.45,0,0,1,7.82,3.11c3.46,3.1,4.8,5.6,4.1,7.64-.87,2.56-4.57,3.09-5.52,3.19-1.06.57-7.08,3.66-12.54,3.66Zm-7.49-8.86c.49,4.87,3,7.24,7.49,7.24,5.45,0,11.84-3.5,11.91-3.54a.91.91,0,0,1,.33-.1c1-.08,3.78-.61,4.29-2.11.44-1.31-.86-3.41-3.65-5.91a9.87,9.87,0,0,0-6.74-2.7c-6.33,0-12.37,5.82-13.63,7.12Z"/><path class="cls-5" d="M1175.34,190.46s-12.14-13.35-21.76-4.73,1.13,9.44,1.13,9.44S1174.1,205.92,1175.34,190.46Z"/><path class="cls-2" d="M1167,199.62h0c-5.46,0-11.49-3.09-12.54-3.66-1-.1-4.65-.63-5.52-3.19-.7-2,.64-4.54,4.09-7.64a11.47,11.47,0,0,1,7.82-3.11c7.81,0,14.79,7.57,15.08,7.9a.79.79,0,0,1,.21.61c-.6,7.51-5.3,9.09-9.14,9.09Zm-6.15-16a9.89,9.89,0,0,0-6.74,2.7c-2.79,2.5-4.08,4.6-3.64,5.91.51,1.5,3.34,2,4.29,2.11a1,1,0,0,1,.33.1c.06,0,6.45,3.54,11.91,3.54h0c4.54,0,7-2.37,7.49-7.24-1.26-1.3-7.31-7.12-13.64-7.12Z"/></g></g></svg>