<svg xmlns="http://www.w3.org/2000/svg" width="315.37" height="42.51" viewBox="0 0 315.37 42.51"><defs><style>.cls-1{fill:#f9b5b6;}</style></defs><title>logo</title><g id="レイヤー_2" data-name="レイヤー 2"><g id="レイヤー_1-2" data-name="レイヤー 1"><path class="cls-1" d="M2.55,31.34v0c.31.57.64,1.13,1,1.67a1.17,1.17,0,0,0,1.64,0l.07,0a1,1,0,0,0,.45-1.19,3.58,3.58,0,0,0-.64-1.35,14.3,14.3,0,0,0-2.37-2.36c-.33-.28-.66-.54-1-.83a21.6,21.6,0,0,0,.87,4.05M3,26.12A23.09,23.09,0,0,0,5.38,28.8,4.84,4.84,0,0,0,7.32,30a1.09,1.09,0,0,0,1.43-.53l.12-.22a1.06,1.06,0,0,0-.22-1.4A3.79,3.79,0,0,0,7.27,27,20.79,20.79,0,0,0,3,26c0,.06,0,.08,0,.09M7.86,23a12.3,12.3,0,0,0-3,.79c-.46.16-.91.34-1.41.53l.14.08c1,.34,2,.71,3,1a5.47,5.47,0,0,0,2.38.24c.76-.11,1.14-.43,1.22-1.08.11-.85-.2-1.38-1-1.52A4.83,4.83,0,0,0,8.25,23l-.39,0m30.79-.24c-.07.17-.14.34-.2.52a10.78,10.78,0,0,0-.7,2.48,2.33,2.33,0,0,0,.12,1.11.6.6,0,0,0,.46.42,2.72,2.72,0,0,0,.57,0,.66.66,0,0,0,.59-.47,2.51,2.51,0,0,0,.1-1.09,8.38,8.38,0,0,0-.46-1.82c-.14-.39-.29-.78-.43-1.18ZM.54,26.06A1.9,1.9,0,0,0,1.8,24.34,1.85,1.85,0,0,0,0,22.47a21.27,21.27,0,0,0,.51,3.59m36.89-3.64a14.18,14.18,0,0,0-2,1.84,2.8,2.8,0,0,0-.66,1.19.72.72,0,0,0,.31.83l.22.13a.74.74,0,0,0,1-.15,2.58,2.58,0,0,0,.59-.94,13.71,13.71,0,0,0,.67-2.93l-.07,0m3,2.71a3.24,3.24,0,0,0,.54,1,.82.82,0,0,0,.87.37c.16-.61.28-1.23.38-1.85l-.07-.11a9.43,9.43,0,0,0-1.61-1.61c-.22-.19-.45-.36-.71-.57a14.83,14.83,0,0,0,.6,2.77m.32-3.56a16.47,16.47,0,0,0,1.61,1.83l0,0c.05-.52.08-1.06.1-1.6-.58-.13-1.17-.22-1.77-.31a.1.1,0,0,0,0,.06m-6.89.53a3.19,3.19,0,0,0-1,.52A.84.84,0,0,0,32.73,24h0a.71.71,0,0,0,.79.3,2.45,2.45,0,0,0,.92-.44,9.2,9.2,0,0,0,1.62-1.62c.19-.22.37-.45.57-.7a14.82,14.82,0,0,0-2.77.59M42,20l-1,.36c.06,0,.07.05.1.05l1.37.49c0-.36,0-.71,0-1.06L42,20m-9.44-.53a.84.84,0,0,0-.85,1s0,.06,0,.09a.67.67,0,0,0,.53.6,2.93,2.93,0,0,0,.66.1A4.14,4.14,0,0,0,34.35,21l1.93-.65v-.06l-.07,0c-.59-.21-1.18-.43-1.78-.62A4.76,4.76,0,0,0,33,19.4l-.41,0m4.85.88a1.28,1.28,0,0,0,1.24,1.28,1.26,1.26,0,1,0,0-2.52h0a1.27,1.27,0,0,0-1.24,1.24M7.49,18.54a3.93,3.93,0,0,0-1.57.81,16.15,16.15,0,0,0-2.39,2.5l-.59.74A22.76,22.76,0,0,0,7,21.71,4.92,4.92,0,0,0,8.41,21,1.22,1.22,0,0,0,8.69,19l0-.06a1,1,0,0,0-.85-.47,1.76,1.76,0,0,0-.31,0m33.62.12-.41.5c.57-.09,1.13-.17,1.67-.29,0-.47-.12-.94-.2-1.4a12,12,0,0,0-1.06,1.19m-8.47-1.82,0,.11a.69.69,0,0,0,.14.93,3.31,3.31,0,0,0,.8.54,12,12,0,0,0,3.09.74l0-.08c-.53-.6-1-1.21-1.59-1.79a3,3,0,0,0-1.31-.85,1.34,1.34,0,0,0-.36-.06.76.76,0,0,0-.68.46M3.5,15.64a4.11,4.11,0,0,0-.88,1.44,20.35,20.35,0,0,0-.94,4.25,21.1,21.1,0,0,0,3.18-2.91,3.91,3.91,0,0,0,.86-1.65,1,1,0,0,0-.43-1.16,3.79,3.79,0,0,0-.34-.2,1.38,1.38,0,0,0-.63-.18,1.12,1.12,0,0,0-.82.41M0,20.76a19.26,19.26,0,0,0,1.27-4.1,3.53,3.53,0,0,0-.13-1.88.89.89,0,0,0-.08-.17A21.21,21.21,0,0,0,0,20.76m41.09-6.34a2.71,2.71,0,0,0-.6,1,13.88,13.88,0,0,0-.65,2.9,14.76,14.76,0,0,0,2.1-1.9,19.19,19.19,0,0,0-.63-2.16,1.16,1.16,0,0,0-.22.18m-6-.08-.06.05a.7.7,0,0,0-.32.82,2.69,2.69,0,0,0,.55,1.06,13.31,13.31,0,0,0,2.14,2s0,0,.11.05c-.17-.79-.32-1.55-.5-2.3a3.43,3.43,0,0,0-.69-1.47.9.9,0,0,0-.66-.38,1.12,1.12,0,0,0-.57.2m3.32-.95a.64.64,0,0,0-.58.47,2.33,2.33,0,0,0-.11,1.08,8.38,8.38,0,0,0,.49,1.91c.13.36.27.73.41,1.09h0a13.87,13.87,0,0,0,.88-2.83,2.49,2.49,0,0,0-.09-1.27A.63.63,0,0,0,39,13.4l-.35,0h-.21M25.76,9.24c-.09.24-.19.48-.27.71a14.09,14.09,0,0,0-1,3.41,3.18,3.18,0,0,0,.16,1.53.83.83,0,0,0,.63.57,3.4,3.4,0,0,0,.78,0,.9.9,0,0,0,.81-.65,3.26,3.26,0,0,0,.14-1.49,10.71,10.71,0,0,0-.63-2.49c-.19-.55-.4-1.08-.6-1.62h-.06m-1.67-.42a19.68,19.68,0,0,0-2.79,2.53A3.86,3.86,0,0,0,20.4,13a1,1,0,0,0,.42,1.13,1.92,1.92,0,0,0,.31.18,1,1,0,0,0,1.32-.21,3.6,3.6,0,0,0,.82-1.28,18.76,18.76,0,0,0,.91-4c-.05,0-.07,0-.09,0m4.12,3.72A4.46,4.46,0,0,0,29,13.91a1.12,1.12,0,0,0,1.73.24l.07,0A1,1,0,0,0,31.18,13a3.41,3.41,0,0,0-.6-1.26,12.9,12.9,0,0,0-2.22-2.21c-.3-.26-.61-.5-1-.78a20.52,20.52,0,0,0,.81,3.8m.44-4.88a21.94,21.94,0,0,0,2.21,2.5,4.48,4.48,0,0,0,1.82,1.15,1,1,0,0,0,1.34-.5c0-.06.07-.13.11-.2a1,1,0,0,0-.2-1.31,3.68,3.68,0,0,0-1.3-.82,18.76,18.76,0,0,0-4-.91l0,.09m-9.45.72a4.44,4.44,0,0,0-1.32.71,1.15,1.15,0,0,0-.24,1.84v0a.94.94,0,0,0,1.08.4A3.36,3.36,0,0,0,20,10.76a13.38,13.38,0,0,0,2.22-2.23c.26-.3.5-.62.78-1a20.52,20.52,0,0,0-3.8.81m14-3.68a11.69,11.69,0,0,0-2.83.74L29,5.94l.13.07c.93.33,1.86.67,2.81,1a5.05,5.05,0,0,0,2.22.22c.72-.1,1.07-.4,1.15-1a1.43,1.43,0,0,0-.16-1l-.38-.32a1.9,1.9,0,0,0-.36-.12,5.26,5.26,0,0,0-.89-.08h-.37m-15.78,0a1.16,1.16,0,0,0-1.16,1.43s0,.08,0,.12A.92.92,0,0,0,17,7.1a4.08,4.08,0,0,0,.92.13,5.73,5.73,0,0,0,2-.32c.89-.28,1.77-.6,2.65-.89a.19.19,0,0,0,0-.08l-.11-.05C21.58,5.6,20.78,5.29,20,5a6.78,6.78,0,0,0-2-.36,3.64,3.64,0,0,0-.57,0m6.66,1.22a1.73,1.73,0,1,0,1.76-1.7h-.06a1.74,1.74,0,0,0-1.7,1.7m5.07-2.27c-.18.21-.35.43-.55.69a20.57,20.57,0,0,0,3.82-.83l.35-.13a21.86,21.86,0,0,0-2.26-1.28c-.48.49-.92,1-1.36,1.55M27.4,3.17c.66-.53,1.3-1,1.89-1.59-.5-.2-1-.39-1.52-.56-.15.7-.26,1.42-.37,2.15m-9.88-2s-.05.09-.08.14a.94.94,0,0,0,.2,1.27,4.29,4.29,0,0,0,1.1.75,16.63,16.63,0,0,0,4.24,1,1.15,1.15,0,0,0-.07-.11c-.72-.82-1.42-1.66-2.17-2.46A4.17,4.17,0,0,0,18.94.61a1.66,1.66,0,0,0-.5-.09,1,1,0,0,0-.92.65M10.39,8.31c0-2.12,2.07-3.92,3.32-4.3.44,4.85,2.08,13.47,8.08,15.8,0,0-2.44-3.1-2.62-4.69,0,0,4.12,4.81,6,5.38a10.53,10.53,0,0,1-1.65-3.87s4.52,2.46,5.15,9.15-3.77,9-3.77,9a9.9,9.9,0,0,0,5.7-5.62s.15,3.56,2.28,5c0,0-.82-3.75.66-5.53a9.26,9.26,0,0,1,2.56,4.11A18.82,18.82,0,0,1,22.42,40c.09-.21.18-.42.26-.64A14.18,14.18,0,0,0,23.46,34c0-.08,0-.15,0-.26-.37.17-.71.33-1.06.47a11.74,11.74,0,0,1-5.11.81,4.64,4.64,0,0,1-.83-.14A2.33,2.33,0,0,1,14.56,32a7,7,0,0,1,.3-1.11,1.1,1.1,0,0,0-.06-1,2,2,0,0,0-1.27-1.13.67.67,0,0,1-.33-1,6,6,0,0,1,.52-.63,4.29,4.29,0,0,1-.5-.19,1.12,1.12,0,0,1-.56-1.52A2.7,2.7,0,0,1,12.9,25a1,1,0,0,0,0-1.06.9.9,0,0,0-.89-.49c-1,0-1.42-.6-1.08-1.54A5.46,5.46,0,0,1,12.37,20c.52-.51,1-1,1.5-1.61a1.12,1.12,0,0,0-.52-1.73,1.79,1.79,0,0,1-.71-.48c-.27-.29-.23-.58,0-.91a2.53,2.53,0,0,0,.39.52,3,3,0,0,0,.59.32c-.21-.59-.45-1.13-.59-1.68A6.66,6.66,0,0,1,13,11.77a.87.87,0,0,0-.06-.48,7.89,7.89,0,0,1-.7-5.14,3,3,0,0,0,.1-.5,4.23,4.23,0,0,0-1,2.1,2.11,2.11,0,0,0,.83,2.07l-.26,0a1.5,1.5,0,0,1-1.49-1.53M1.48,13.44a2.29,2.29,0,0,1,.79,1.22c0,.17.08.35.13.53,1.18-1.15,2-1.35,3.06-.78a2.63,2.63,0,0,1,1.2,1.13,2.55,2.55,0,0,1,0,2.11,2.74,2.74,0,0,1,1.82-.16,2.33,2.33,0,0,1,1.34,1.18,2.28,2.28,0,0,1-.72,3.2l.23.05a2.19,2.19,0,0,1,2,1.93s0,0,0,.06v.8a.09.09,0,0,0,0,.05,2.18,2.18,0,0,1-1.89,1.92l-.3.07a2.24,2.24,0,0,1,.88,2.86A2.33,2.33,0,0,1,6.61,31a2.76,2.76,0,0,1,.19,1.73,2.2,2.2,0,0,1-1,1.34,2.92,2.92,0,0,1-1.13.45,21.24,21.24,0,0,0,37-7.2h0a1.7,1.7,0,0,1-1.24-.72c-.09.25-.17.51-.28.75a1.2,1.2,0,0,1-.54.55,1.72,1.72,0,0,1-.77.19,1.66,1.66,0,0,1-1.21-.36A1.89,1.89,0,0,1,37,26.53a2,2,0,0,1-1,.71,1.52,1.52,0,0,1-1.14-.17,1.73,1.73,0,0,1-.8-.76,1.77,1.77,0,0,1,0-1.44A1.67,1.67,0,0,1,32.46,22c-1.11-.31-1.49-.72-1.51-1.6a1.65,1.65,0,0,1,.28-1.06,1.77,1.77,0,0,1,1.24-.67,1.54,1.54,0,0,1-.58-2,1.58,1.58,0,0,1,2.23-.87c-.28-1.07-.14-1.6.55-2.06a1.7,1.7,0,0,1,1.25-.33,1.84,1.84,0,0,1,1.09.73c0-.07,0-.12,0-.17a1.51,1.51,0,0,1,1.19-1.31l.17,0h.54l.06,0a1.43,1.43,0,0,1,1.25,1.12l.09.36a3.29,3.29,0,0,1,.72-.57,21.32,21.32,0,0,0-4.68-7.21.08.08,0,0,0,0,0,2,2,0,0,1-1.76,1.8l-.29.06a2.09,2.09,0,0,1,.82,2.68A2.19,2.19,0,0,1,32,12.18a2.56,2.56,0,0,1,.19,1.62,2.08,2.08,0,0,1-1,1.26,2.49,2.49,0,0,1-1.4.43,2.34,2.34,0,0,1-1.7-1c-.13.34-.23.69-.38,1a1.65,1.65,0,0,1-.75.75,2.63,2.63,0,0,1-2.71-.23,2.57,2.57,0,0,1-.76-1.59,2.64,2.64,0,0,1-1.33,1,2.1,2.1,0,0,1-1.57-.23,2.46,2.46,0,0,1-1.1-1,2.44,2.44,0,0,1,0-2,2.13,2.13,0,0,1-2.91-.87,2.14,2.14,0,0,1,.62-3.07c-1.53-.42-2-1-2.08-2.2a2.32,2.32,0,0,1,.38-1.45,2.44,2.44,0,0,1,1.71-.92,2.12,2.12,0,0,1-.8-2.76q.12-.22.24-.42a21.33,21.33,0,0,0-15.24,13M25.2,1.17c.17.5.37,1,.56,1.5h.06c.26-.66.52-1.33.73-2C26,.53,25.47.41,24.91.32c.09.28.19.57.29.85M20.87,0c.09.13.18.26.28.38a18.43,18.43,0,0,0,2.94,2.71s0,0,.14.06c-.22-1-.42-2-.64-3A20.14,20.14,0,0,0,21.25,0h-.38"/><path d="M50.51,35.71V9.39h4.38V20.16H75.65V9.39H80V35.71H75.65V23.78H54.89V35.71Z"/><path d="M88.35,35.71l12.5-21.62h3.72l12.8,21.62h-4.43l-2.81-5.05H95.19l-2.76,5.05Zm8.57-8.16H108.4l-5.77-10.3Z"/><path d="M127.83,35.71h-4.08V14.14h4.08Z"/><path d="M137.72,35.71V14.09h17.44q4.54,0,4.55,4.18v4.84c0,2.76-1.52,4.13-4.56,4.13h-2.86l9.54,8.47h-5.46l-8.63-8.47H141.8v8.47ZM153.33,17.3H141.8v6.94h11.53c1.09,0,1.77-.26,2-.76a3.06,3.06,0,0,0,.25-1.42V19.48C155.62,18,154.86,17.3,153.33,17.3Z"/><path d="M212.34,12.91H193.72v7.4H210.3c2.38,0,4,.44,4.85,1.32s1.27,2.52,1.27,4.9v3c0,2.41-.43,4.05-1.27,4.92s-2.47,1.3-4.85,1.3H195c-2.38,0-4-.43-4.87-1.3s-1.3-2.51-1.3-4.92v-.71l4.08-1V32h19.58V24.13H195.92q-3.53,0-4.82-1.3t-1.3-4.92V15.62q0-3.67,1.3-4.95t4.82-1.28h14c2.25,0,3.84.41,4.77,1.21s1.4,2.31,1.4,4.51v.56l-3.77,1.07Z"/><path d="M227.9,35.71V14.09H232V32.45h16.83v3.26Z"/><path d="M254.67,19.24c0-2,.38-3.33,1.12-4.06s2.15-1.09,4.19-1.09h15.6c2,0,3.44.36,4.19,1.09s1.12,2.09,1.12,4.06V30.61c0,2-.38,3.32-1.12,4s-2.15,1.07-4.19,1.07H260c-2.08,0-3.48-.35-4.21-1s-1.1-2.05-1.1-4.06Zm4.08,13.26h18.06V17.3H258.75Z"/><path d="M293.84,18.42a23.54,23.54,0,0,1,.31,3.88V35.71h-3.78V14.09h3.12l15.86,14.12a17,17,0,0,1,2.6,3,22,22,0,0,1-.36-4v-13h3.78V35.71h-2.81L296.39,21.38A12.71,12.71,0,0,1,293.84,18.42Z"/></g></g></svg>