<svg xmlns="http://www.w3.org/2000/svg" width="60" height="60" viewBox="0 0 60 60"><defs><style>.cls-1{isolation:isolate;}.cls-2{fill:#80bee7;}.cls-3{fill:#e3e3e3;}.cls-4{fill:#fff;}</style></defs><title>ico_tel</title><g id="レイヤー_2" data-name="レイヤー 2"><g id="レイヤー_1-2" data-name="レイヤー 1"><g class="cls-1"><circle class="cls-2" cx="30" cy="30" r="30"/></g><path class="cls-3" d="M30,3.29l-1.37,0-1.36.1-1.33.17-1.31.24-1.29.29-1.26.36-1.24.43-1.21.47-1.18.54-1.16.59-1.11.65-1.09.69L14,8.61,13,9.4l-1,.84-.93.89-.89.93L9.4,13l-.79,1-.75,1.05-.69,1.09-.65,1.11-.59,1.16-.54,1.18-.47,1.21-.43,1.24-.36,1.26-.29,1.29L3.6,25.94l-.17,1.33-.1,1.36,0,1.37,0,1.37.1,1.36.17,1.33.24,1.31.29,1.29.36,1.26.43,1.24.47,1.21.54,1.18.59,1.16.65,1.11.69,1.09L8.61,46l.79,1,.84,1,.89.93.93.89,1,.84,1,.79,1.05.75,1.09.69,1.11.65,1.16.59,1.18.54,1.21.47,1.24.43,1.26.36,1.29.29,1.31.24,1.33.17,1.36.1,1.37,0,1.37,0,1.36-.1,1.33-.17,1.31-.24,1.29-.29,1.26-.36,1.24-.43,1.21-.47,1.18-.54,1.16-.59,1.11-.65,1.09-.69L46,51.39l1-.79,1-.84.93-.89.89-.93.84-1,.79-1,.75-1.05.69-1.09.65-1.11.59-1.16.54-1.18.47-1.21.43-1.24.36-1.26.29-1.29.24-1.31.17-1.33.1-1.36,0-1.37,0-1.37-.1-1.36-.17-1.33-.24-1.31-.29-1.29-.36-1.26-.43-1.24-.47-1.21-.54-1.18-.59-1.16-.65-1.11-.69-1.09L51.39,14l-.79-1-.84-1-.89-.93-.93-.89L47,9.4l-1-.79-1.05-.75-1.09-.69-1.11-.65-1.16-.59-1.18-.54-1.21-.47-1.24-.43-1.26-.36-1.29-.29L34.06,3.6l-1.33-.17-1.36-.1ZM30,0A30,30,0,1,1,0,30,30.06,30.06,0,0,1,30,0Z"/><path class="cls-4" d="M39.29,48l2.47-1.42a1,1,0,0,0,.41-.62,1.33,1.33,0,0,0-.27-.9l-4.54-7.84c-.46-.8-.91-1-1.48-.66L33.48,38ZM19.5,36.16l.22.38c3,5.14,6,8.56,9.05,10.24,3.73,2.08,6.75,2.76,9.19,2l.07,0-5.88-10a2.12,2.12,0,0,1-2.11,0,6.83,6.83,0,0,1-2-2.07c-.76-1.16-1.61-2.49-2.53-4.08-1.15-2-1.84-3.33-2.2-3.95a7,7,0,0,1-.69-2.79,1.91,1.91,0,0,1,1.06-1.82L17.79,13.93a8.59,8.59,0,0,0-2.38,4.79,17.41,17.41,0,0,0-.31,6.17C15.56,28.13,17.05,31.88,19.5,36.16Zm5.28-12.77L27.18,22c.64-.37.66-1.06.13-2L23.07,12.7c-.39-.68-.68-1-.94-1a1.66,1.66,0,0,0-.92.31l-2.28,1.32Z"/></g></g></svg>