<svg xmlns="http://www.w3.org/2000/svg" width="900" height="62" viewBox="0 0 900 62"><defs><style>.cls-1{fill:#0089ce;}.cls-2{fill:#fff;}.cls-3{fill:none;stroke:#fff;stroke-linecap:round;stroke-linejoin:round;stroke-width:12px;}.cls-4{fill:#a1d3ed;}</style></defs><title>bar_goannai</title><g id="レイヤー_2" data-name="レイヤー 2"><g id="レイヤー_1-2" data-name="レイヤー 1"><rect class="cls-1" y="11" width="900" height="40"/><path class="cls-2" d="M87.5,41.84V22.33h19V41.84ZM104,24.53H98.23v1.41h4.32v1.45H98.23v1.16h5V30H90.73V28.55h5.06V27.39H91.46V25.94h4.33V24.53H90V39.67h14Zm-2,12.52,1.25.59v1.74l-5-2.44v2.11H95.79V36.43a8.18,8.18,0,0,1-5.06,2.78v-1.9a5.45,5.45,0,0,0,4-2.15H91.57v-4h10.87v4H98.23v.13l2.58,1.23,1.1-1.28h1.56Zm-1.72-4.67H93.72v1.54h6.56Z"/><path class="cls-2" d="M120.26,41.49v-2.9c3.69-.31,5.43-2.25,5.43-6.65,0-3.94-2-6.82-6.34-6.82-5.23,0-7.3,3.15-7.3,7.79,0,3,1,4.86,2.4,4.86,1.8,0,3.19-4,3.45-11.55h2.69c-.29,9.84-2.49,14.7-6.3,14.7-2.86,0-4.88-2.82-4.88-8,0-5.85,2.88-10.43,10-10.43,6,0,9,3.85,9,9.55C128.49,38.61,125.1,41.18,120.26,41.49Z"/><path class="cls-2" d="M140.06,41.16c-6.19,0-8.12-1.76-8.12-5a6.77,6.77,0,0,1,1.56-4.36h3a5.83,5.83,0,0,0-1.67,3.89c0,2.14,1.39,2.82,5.37,2.82h9.52v2.66Zm3.36-12.45H140.1l2.6-2.42h-9.55V23.65h12.69v2.64Zm3.37-2.86V22.33h1.52v3.52Zm2.55,0V22.33h1.54v3.52Z"/><path class="cls-2" d="M170.57,26V24.86h-7.74a12.11,12.11,0,0,1-.86,1.78h10.54v2.11h-3.85a8.51,8.51,0,0,1-2,2.09l5.06.95v2.33l-7.2-1.91c-2.44,1.19-5.72,1.89-10.27,1.89V31.9h.39a26.58,26.58,0,0,0,6.43-.64l-4.67-1.21a10.49,10.49,0,0,0,1.19-1.3H153.5V26.64h5.8a8.93,8.93,0,0,0,.95-1.78h-4.82V26H153V22.7h8.71V22h2.66v.72h8.72V26Zm-6,11.25h-.18v4.84h-2.66V37.27h-.17c-1.37,2.68-4,4.57-8.54,4.84V39.89c3.32-.18,4.91-1.26,5.94-2.62H153V35.05h8.71V33.4h2.66v1.65h8.72v2.22h-5.94c1,1.36,2.59,2.44,5.94,2.62v2.22C168.48,41.84,165.86,40,164.52,37.27Zm-3.94-8.52c-.24.31-.48.58-.72.84l3.93.75a7.4,7.4,0,0,0,2-1.59Z"/><path class="cls-2" d="M192.06,42.11h-3.85V39.49h2.86a.68.68,0,0,0,.73-.68V26.75h-5.46c0,.26,0,.53-.06.77a7.88,7.88,0,0,0,4.42,6.82v2.93A10.19,10.19,0,0,1,185,32.08a10,10,0,0,1-5.7,5.19v-3c2.73-1.25,4.18-3.74,4.36-7.57h-5.48V42.11H175.5v-18h8.16V22h2.71v2.15h8.14V39.67A2.38,2.38,0,0,1,192.06,42.11Z"/><circle class="cls-3" cx="35" cy="31" r="25"/><circle class="cls-4" cx="35" cy="31" r="25"/><path class="cls-2" d="M49.08,29.1,35.92,16.41a1.49,1.49,0,0,0-1-.41,1.53,1.53,0,0,0-1,.41L20.69,29.1a.86.86,0,0,0-.32,1c.07.18.28.48.89.48h1.48V41.81A2.21,2.21,0,0,0,24.9,44h6.67V36.34H38V44h6.84A2.18,2.18,0,0,0,47,41.81V30.54h1.52c.62,0,.82-.3.89-.48a.84.84,0,0,0-.32-1Z"/></g></g></svg>