<svg xmlns="http://www.w3.org/2000/svg" width="900" height="62" viewBox="0 0 900 62"><defs><style>.cls-1{fill:#e11c24;}.cls-2{fill:#fff;}.cls-3{fill:none;stroke:#fff;stroke-linecap:round;stroke-linejoin:round;stroke-width:12px;}.cls-4{fill:#f08e8f;}</style></defs><title>bar_omoi</title><g id="レイヤー_2" data-name="レイヤー 2"><g id="レイヤー_1-2" data-name="レイヤー 1"><rect class="cls-1" y="11" width="900" height="40"/><path class="cls-2" d="M92.87,29.9v1.45L96,33.48v2.75l-3.08-2.44v8.32H90.29v-6.6A12.54,12.54,0,0,1,87,39.45V35.93a11.67,11.67,0,0,0,3.28-6H87V27.56h3.32V25.43c-.92,0-2,.07-3.32.07V23.16c5.28,0,6.89-.35,8.67-1.18v2.5a10,10,0,0,1-2.77.75v2.33h3.25V29.9Zm11.79,12.21-.31-1.65a7.5,7.5,0,0,1-4.8,1.38h-3.8V39.18h.86L99.2,22h2.69l-2.73,17.2h.5a6.28,6.28,0,0,0,4.14-1.25l-1.34-6.12h2.46l2.14,10.3Z"/><path class="cls-2" d="M109,24.62V22l4.55,2v2.69Zm6.84,17.22c-2.25,0-3.21-.52-3.9-1.58L109,42.11V39.25l2.09-1.34v-5.2H109V30.14h4.57v7.72c0,1.1.84,1.59,2.73,1.59h12.79v2.39Zm7.3-4.18v1.19h-2.61V37.66h-6V35.73h6v-1.1h-5.37V32.69h5.37V31.55h-6V29.63h2.91c-.11-.52-.27-1.12-.42-1.58h-2.49V26.13h6V24.9h-5.37V23h5.37V22h2.61v1h5.42V24.9h-5.42v1.23h6v1.92h-2.2l-.44,1.58h2.64v1.92h-6v1.14h5.42v1.94h-5.42v1.1h6v1.93Zm-3.76-9.61c.13.46.29,1,.4,1.58h4.33l.4-1.58Z"/><path class="cls-2" d="M142.26,41.49v-2.9c3.69-.31,5.43-2.25,5.43-6.65,0-3.94-2-6.82-6.34-6.82-5.23,0-7.3,3.15-7.3,7.79,0,3,1,4.86,2.4,4.86,1.8,0,3.19-4,3.45-11.55h2.69c-.29,9.84-2.49,14.7-6.3,14.7-2.86,0-4.88-2.82-4.88-8,0-5.85,2.88-10.43,10.05-10.43,6,0,9,3.85,9,9.55C150.49,38.61,147.1,41.18,142.26,41.49Z"/><path class="cls-2" d="M159,26.07V27l2.93,2.2v2.79L159,29.63v5h-2.68v-4a9.74,9.74,0,0,1-3.32,3V30.56a6.67,6.67,0,0,0,3.32-4.45v0H153V23.76h3.32V22H159v1.78h3v2.31Zm-3.23,15.77H153a15.2,15.2,0,0,0,1.36-6.05H157A16.82,16.82,0,0,1,155.74,41.84Zm10.85,0H161a2.12,2.12,0,0,1-2.4-2.33v-3.7h2.57V38.9a.68.68,0,0,0,.73.66h4.68a3.51,3.51,0,0,0,2-.49v2.38A4.29,4.29,0,0,1,166.59,41.82Zm-3.54-7.17V22.33h9.46V34.65Zm1.38,3.89-.92-3.43h2.37l1,3.43Zm5.63-14.45h-4.57v1.76h4.57Zm0,3.5h-4.57v1.76h4.57Zm0,3.52h-4.57v1.76h4.57Zm.33,10.73-1.76-6.05h2.69l1.76,6.05Z"/><path class="cls-2" d="M180.8,41.49c-3.5.16-4.75-3-5-7.41A68.44,68.44,0,0,1,176.33,23h2.86a64.72,64.72,0,0,0-.44,10.83c.16,3.41.95,4.59,2.47,4.51,1.34-.07,3.87-1.74,5.26-3.85v3.91C185.05,39.87,182.87,41.4,180.8,41.49Zm11.07-3c-.31-6.64-1.57-11.48-3.46-13.84h3c1.83,2.29,3.06,7.13,3.35,13.84Z"/><circle class="cls-3" cx="35" cy="31" r="25"/><circle class="cls-4" cx="35" cy="31" r="25"/><path class="cls-2" d="M35.18,43.55C29.72,39.28,22,28.79,22,24.5c0-3.75,3.69-6.25,6.83-6.25,2.86,0,5.12,1.58,6,4.84a.42.42,0,0,0,.37.31.41.41,0,0,0,.36-.31,6,6,0,0,1,6.16-4.81c3.14,0,6.71,2.59,6.71,6.09C48.41,29.68,40.7,39.28,35.18,43.55Z"/></g></g></svg>