<svg xmlns="http://www.w3.org/2000/svg" width="900" height="62" viewBox="0 0 900 62"><defs><style>.cls-1{fill:#eb871e;}.cls-2{fill:#fff;}.cls-3{fill:none;stroke:#fff;stroke-linecap:round;stroke-linejoin:round;stroke-width:12px;}.cls-4{fill:#ffc954;}</style></defs><title>bar_oshirase</title><g id="レイヤー_2" data-name="レイヤー 2"><g id="レイヤー_1-2" data-name="レイヤー 1"><rect class="cls-1" y="11" width="900" height="40"/><path class="cls-2" d="M87.5,41.84V22.33h19V41.84ZM104,24.53H98.23v1.41h4.32v1.45H98.23v1.16h5V30H90.73V28.55h5.06V27.39H91.46V25.94h4.33V24.53H90V39.67h14Zm-2,12.52,1.25.59v1.74l-5-2.44v2.11H95.79V36.43a8.18,8.18,0,0,1-5.06,2.78v-1.9a5.45,5.45,0,0,0,4-2.15H91.57v-4h10.87v4H98.23v.13l2.58,1.23,1.1-1.28h1.56Zm-1.72-4.67H93.72v1.54h6.56Z"/><path class="cls-2" d="M116.89,41.27h-1.45V38.43h1.18c2.29,0,3.64-.66,3.64-4.15V30.34c0-2.36-.6-3-2.49-3h-2.53a94.3,94.3,0,0,1-3,13.66s-2.9,0-2.9,0a79.87,79.87,0,0,0,3.14-13.66h-2.88V24.64h3.21c.09-.68.16-1.34.2-2h2.84c-.06.66-.13,1.32-.22,2h3c3,0,4.4,1.19,4.4,5.7v4.27C123,39.8,120.56,41.27,116.89,41.27Zm9-4.29a51.07,51.07,0,0,0-1.61-13.46h2.8A55,55,0,0,1,128.68,37Z"/><path class="cls-2" d="M138.69,41.4h-4.95V38.74h4.8c7.48,0,9.22-1.82,9.22-4.22,0-1.54-1.19-3.3-4.69-3.3a9.87,9.87,0,0,0-8.47,3.87h-2.66l1-8.6h2.76l-.66,5.3a11.26,11.26,0,0,1,8.27-3.15c5.23,0,7.48,2.69,7.48,5.9C150.75,38.52,148.11,41.4,138.69,41.4Zm-.53-15.77a27.33,27.33,0,0,1-5.65-.44v-2.6a23.26,23.26,0,0,0,5.61.49c1.52,0,8.58,0,10.78,0v2.57C146.88,25.69,139.75,25.65,138.16,25.63Z"/><path class="cls-2" d="M164.26,41.49v-2.9c3.69-.31,5.43-2.25,5.43-6.65,0-3.94-2-6.82-6.34-6.82-5.23,0-7.3,3.15-7.3,7.79,0,3,1,4.86,2.4,4.86,1.8,0,3.19-4,3.45-11.55h2.69c-.29,9.84-2.49,14.7-6.3,14.7-2.86,0-4.88-2.82-4.88-8,0-5.85,2.88-10.43,10.05-10.43,6,0,9,3.85,9,9.55C172.49,38.61,169.1,41.18,164.26,41.49Z"/><path class="cls-2" d="M186.83,41.43h-.51V38.72h.46c3.3,0,4.91-1.43,4.91-3.59,0-2.46-1.91-3.83-6.12-3.83H185v5.4c0,3-1.78,4.51-4.54,4.51a4.82,4.82,0,0,1-5.08-5.15c0-3.7,2.42-6.18,6.95-7V26.57h-6V24h6v-1.6H185V24h4.9v2.53H185v2.29h.55c5.65,0,9,2,9,6.32C194.55,39.71,190.48,41.43,186.83,41.43Zm-4.54-9.84c-3.12.64-4.29,2.29-4.29,4.2s1.08,2.69,2.23,2.69c1.49,0,2.06-.79,2.06-2.4Zm9.93-2.84a31.31,31.31,0,0,0-.66-5.89h2.51a29.2,29.2,0,0,1,.64,5.89Z"/><path class="cls-2" d="M204.38,32.38a12,12,0,0,1-.37,2l3.17,3.43V41.6L203,37a10.06,10.06,0,0,1-6,5.13v-3a8.35,8.35,0,0,0,4.79-6.76h-4.62V29.81h4.74V25.28h-1.94a23,23,0,0,1-.66,3h-2.44a20.62,20.62,0,0,0,.92-6.29h2.46c0,.3,0,.59,0,.9h7v2.4h-2.69v4.53h2.84v2.57Zm3.94,9.46V22.7h8.19V41.84ZM214,25.23h-3.09V39.31H214Z"/><path class="cls-2" d="M226.69,41.4h-4.95V38.74h4.8c7.48,0,9.22-1.82,9.22-4.22,0-1.54-1.19-3.3-4.69-3.3a9.87,9.87,0,0,0-8.47,3.87h-2.66l1-8.6h2.76l-.66,5.3a11.26,11.26,0,0,1,8.27-3.15c5.23,0,7.48,2.69,7.48,5.9C238.75,38.52,236.11,41.4,226.69,41.4Zm-.53-15.77a27.33,27.33,0,0,1-5.65-.44v-2.6a23.26,23.26,0,0,0,5.61.49c1.52,0,8.58,0,10.78,0v2.57C234.88,25.69,227.75,25.65,226.16,25.63Z"/><path class="cls-2" d="M258.55,28.18v3.3c0,2.29-1.23,3.54-3.83,3.54a16.12,16.12,0,0,1-3.87-.28V32.23a9.46,9.46,0,0,0,3.3.33c1.16,0,1.74-.44,1.74-1.67V28.18h-9.8v6.89c0,2.59,1.35,3.54,3.92,3.54h9.51v2.68h-9.86c-4.2,0-6.23-1.58-6.23-5.94V28.18h-2V25.47h2V22.79h2.66v2.68h9.8V22.72h2.66v2.75h1.94v2.71Z"/><circle class="cls-3" cx="35" cy="31" r="25"/><circle class="cls-4" cx="35" cy="31" r="25"/><path class="cls-2" d="M32.1,23.15V17h6.28v6.15Zm0,18.54V25.2h6.28V41.69Z"/></g></g></svg>