<svg xmlns="http://www.w3.org/2000/svg" xmlns:xlink="http://www.w3.org/1999/xlink" width="284" height="74" viewBox="0 0 284 74"><defs><style>.cls-1{fill:none;}.cls-2{isolation:isolate;}.cls-3{fill:silver;}.cls-4{fill:#fff;}.cls-5{clip-path:url(#clip-path);}.cls-6{fill:url(#linear-gradient);}.cls-7{opacity:0.5;mix-blend-mode:multiply;}</style><clipPath id="clip-path"><path class="cls-1" d="M19.29,0a4.58,4.58,0,0,0-4.52,4.89V74l21-14,21,14V4.89C56.8,2.19,55.09,0,52.39,0Z"/></clipPath><linearGradient id="linear-gradient" x1="-1152.53" y1="-427.51" x2="-1151.81" y2="-427.51" gradientTransform="matrix(0, 103.58, 103.58, 0, 44319.31, 119383.45)" gradientUnits="userSpaceOnUse"><stop offset="0" stop-color="#ec931e"/><stop offset="0.07" stop-color="#ffffa2"/><stop offset="0.15" stop-color="#f0e221"/><stop offset="0.9" stop-color="#ec911e"/><stop offset="1" stop-color="#eb871e"/></linearGradient></defs><title>bt_access</title><g class="cls-2"><g id="レイヤー_2" data-name="レイヤー 2"><g id="レイヤー_1-2" data-name="レイヤー 1"><rect class="cls-3" y="11.38" width="284" height="46.68"/><rect class="cls-4" y="5.69" width="284" height="50.09"/><g class="cls-5"><rect class="cls-6" x="14.77" width="42.03" height="74"/></g><g class="cls-7"><path d="M147.74,30.61a5.13,5.13,0,0,0-.06,1.11c-.05,2.67-.5,4.24-1.58,5.62A8.65,8.65,0,0,1,142,40.09,3,3,0,0,0,141.3,39a7.66,7.66,0,0,0,2.91-1.47c1.69-1.36,2.31-3,2.31-6.09a4,4,0,0,0-.07-.86Zm6.28-2a2.72,2.72,0,0,0-.38.64A9.6,9.6,0,0,1,149,33.78a3.24,3.24,0,0,0-.78-.91,6.93,6.93,0,0,0,2.51-1.51A8.53,8.53,0,0,0,152.51,29h-9a16.24,16.24,0,0,0-1.88.08V27.83a11.7,11.7,0,0,0,1.9.11H152c1.07,0,1.07,0,1.35-.11Z"/><path d="M163.49,26.94a2.66,2.66,0,0,0-.35.65A14.17,14.17,0,0,1,162.4,29a45.91,45.91,0,0,1,4.81-.12,1.47,1.47,0,0,0,.82-.12l.69.67c-.15.19-.15.21-.32.78a17,17,0,0,1-3.18,6,15.7,15.7,0,0,1-5.53,4,2.37,2.37,0,0,0-.8-.94,13.45,13.45,0,0,0,5.61-4,14.64,14.64,0,0,0,2.74-5.34l-5.36.1a15.35,15.35,0,0,1-3.8,4.14,2.39,2.39,0,0,0-.89-.83,11.75,11.75,0,0,0,4-4.37,7.13,7.13,0,0,0,1-2.32Z"/><path d="M176.21,28.68a9.78,9.78,0,0,0-.06-1.47h1.28a9.69,9.69,0,0,0-.08,1.47V31l6.46-.87a1.7,1.7,0,0,0,.91-.22l.78.65a4.19,4.19,0,0,0-.26.45,10.33,10.33,0,0,1-1.21,2,12.2,12.2,0,0,1-2.7,2.49,2.86,2.86,0,0,0-1-.77,8.7,8.7,0,0,0,3.6-3.69l-.36.07-.19,0-6.08.84v3.77c0,1.48.07,1.81.4,2.1s1,.4,2.31.4a18,18,0,0,0,4.62-.56l.08,1.29c-.43,0-.52,0-.95.08a28,28,0,0,1-3.77.29c-1.81,0-2.73-.22-3.24-.75s-.59-1-.59-2.63V32.19l-1.92.27a9.53,9.53,0,0,0-1.56.27l-.15-1.2h.24c.27,0,.83-.05,1.37-.11l2-.27Z"/><path d="M200.65,39.74a29.28,29.28,0,0,0-5.09-4.92,17.3,17.3,0,0,1-3,2.85,20.24,20.24,0,0,1-3.12,1.91,3.55,3.55,0,0,0-.78-1,12.62,12.62,0,0,0,3.23-1.83,17.3,17.3,0,0,0,5.68-7.19.84.84,0,0,1,.08-.19.28.28,0,0,0,0-.12,2.12,2.12,0,0,1-.38,0L192,29.3a11.09,11.09,0,0,0-1.64.13l0-1.29a7.93,7.93,0,0,0,1.26.08H192l5.68-.07a2.68,2.68,0,0,0,1-.13l.67.69a2.78,2.78,0,0,0-.44.78A19.17,19.17,0,0,1,196.26,34a38.67,38.67,0,0,1,5.3,4.78Z"/></g><path class="cls-3" d="M147.74,31.49a5.32,5.32,0,0,0-.06,1.12c-.05,2.66-.5,4.24-1.58,5.61A8.59,8.59,0,0,1,142,41a3.18,3.18,0,0,0-.73-1.07,7.51,7.51,0,0,0,2.91-1.46c1.69-1.36,2.31-3,2.31-6.09a4.11,4.11,0,0,0-.07-.87Zm6.28-2a2.62,2.62,0,0,0-.38.63A9.58,9.58,0,0,1,149,34.67a3.11,3.11,0,0,0-.78-.91,6.81,6.81,0,0,0,2.51-1.52,8.34,8.34,0,0,0,1.78-2.37h-9a14.26,14.26,0,0,0-1.88.08V28.72a11.7,11.7,0,0,0,1.9.11H152c1.07,0,1.07,0,1.35-.11Z"/><path class="cls-3" d="M163.49,27.83a2.3,2.3,0,0,0-.35.65,15.5,15.5,0,0,1-.74,1.42,46.37,46.37,0,0,1,4.81-.13c.55,0,.6,0,.82-.11l.69.67c-.15.19-.15.21-.32.78a17,17,0,0,1-3.18,6,15.56,15.56,0,0,1-5.53,4,2.52,2.52,0,0,0-.8-.94,13.52,13.52,0,0,0,5.61-4,14.64,14.64,0,0,0,2.74-5.34l-5.36.09a15.38,15.38,0,0,1-3.8,4.15,2.39,2.39,0,0,0-.89-.83,11.75,11.75,0,0,0,4-4.37,7.08,7.08,0,0,0,1-2.33Z"/><path class="cls-3" d="M176.21,29.56a9.63,9.63,0,0,0-.06-1.46h1.28a9.46,9.46,0,0,0-.08,1.46v2.33l6.46-.86a1.8,1.8,0,0,0,.91-.22l.78.65a4.19,4.19,0,0,0-.26.45A10.33,10.33,0,0,1,184,34a12.45,12.45,0,0,1-2.7,2.49,2.74,2.74,0,0,0-1-.77A8.72,8.72,0,0,0,184,32l-.36.08-.19,0-6.08.85v3.76c0,1.48.07,1.82.4,2.11a3.9,3.9,0,0,0,2.31.4,18,18,0,0,0,4.62-.56l.08,1.29c-.43,0-.52,0-.95.08a28,28,0,0,1-3.77.29c-1.81,0-2.73-.23-3.24-.75s-.59-1-.59-2.64V33.07l-1.92.27a12.51,12.51,0,0,0-1.56.27l-.15-1.19h.24c.27,0,.83-.05,1.37-.11l2-.27Z"/><path class="cls-3" d="M200.65,40.63a29.31,29.31,0,0,0-5.09-4.93,17.38,17.38,0,0,1-3,2.86,20.24,20.24,0,0,1-3.12,1.91,3.42,3.42,0,0,0-.78-1,13,13,0,0,0,3.23-1.84,17.3,17.3,0,0,0,5.68-7.19,1.08,1.08,0,0,1,.08-.19.25.25,0,0,0,0-.11,2.12,2.12,0,0,1-.38,0l-5.31.08a10,10,0,0,0-1.64.12l0-1.29a6.9,6.9,0,0,0,1.26.08H192l5.68-.06a2.91,2.91,0,0,0,1-.13l.67.69a2.78,2.78,0,0,0-.44.78,19.08,19.08,0,0,1-2.63,4.46,39.41,39.41,0,0,1,5.3,4.79Z"/></g></g></g></svg>