<svg xmlns="http://www.w3.org/2000/svg" xmlns:xlink="http://www.w3.org/1999/xlink" width="284" height="74" viewBox="0 0 284 74"><defs><style>.cls-1{fill:none;}.cls-2{isolation:isolate;}.cls-3{fill:silver;}.cls-4{fill:#fff;}.cls-5{clip-path:url(#clip-path);}.cls-6{fill:url(#linear-gradient);}.cls-7{opacity:0.5;mix-blend-mode:multiply;}</style><clipPath id="clip-path"><path class="cls-1" d="M19.29,0a4.58,4.58,0,0,0-4.52,4.89V74l21-14,21,14V4.89C56.8,2.19,55.09,0,52.39,0Z"/></clipPath><linearGradient id="linear-gradient" x1="-1470.54" y1="-422.71" x2="-1469.83" y2="-422.71" gradientTransform="matrix(0, 103.58, 103.58, 0, 43821.44, 152324.89)" gradientUnits="userSpaceOnUse"><stop offset="0" stop-color="#ec931e"/><stop offset="0.07" stop-color="#ffffa2"/><stop offset="0.15" stop-color="#f0e221"/><stop offset="0.9" stop-color="#ec911e"/><stop offset="1" stop-color="#eb871e"/></linearGradient></defs><title>bt_contact</title><g class="cls-2"><g id="レイヤー_2" data-name="レイヤー 2"><g id="レイヤー_1-2" data-name="レイヤー 1"><rect class="cls-3" y="11.38" width="284" height="46.68"/><rect class="cls-4" y="5.69" width="284" height="50.09"/><g class="cls-5"><rect class="cls-6" x="14.77" width="42.03" height="74"/></g><g class="cls-7"><path d="M148.9,30.16l-.48.1a28,28,0,0,1-2.81.48v2.75a11.33,11.33,0,0,1,3.42-.57,5.32,5.32,0,0,1,2.81.67,3.28,3.28,0,0,1-1.6,6.12,2.34,2.34,0,0,1-2.45-1.8,5.8,5.8,0,0,1-.19-1.8,3.4,3.4,0,0,0,1.05-.42,5.11,5.11,0,0,0,0,.63c0,1.65.47,2.34,1.63,2.34a2.11,2.11,0,0,0,2.13-2.25c0-1.56-1.32-2.53-3.4-2.53a10.71,10.71,0,0,0-3.37.62v4c0,.87-.38,1.28-1.16,1.28a4.2,4.2,0,0,1-2.62-1,1.92,1.92,0,0,1-.74-1.5,2.89,2.89,0,0,1,1.26-2.12,8.65,8.65,0,0,1,2.24-1.31v-3l-.63.05h-2.52V29.79a9,9,0,0,0,1.63.12c.43,0,1.05,0,1.52-.05V28.28a9.82,9.82,0,0,0-.08-1.52h1.18a9.65,9.65,0,0,0-.08,1.49v1.53a15.69,15.69,0,0,0,3.24-.69Zm-4.31,4.71c-1.57.76-2.46,1.62-2.46,2.39a1.21,1.21,0,0,0,.68,1,3,3,0,0,0,1.42.47c.31,0,.36-.1.36-.79Zm8.73-3a13.09,13.09,0,0,0-3.21-3.13l.83-.62a13.56,13.56,0,0,1,3.21,3Z"/><path d="M158,38.91a11.88,11.88,0,0,0,.09,1.79h-1.17a12.83,12.83,0,0,0,.09-1.79V28.57c0-.78,0-1.25-.06-1.76a13.7,13.7,0,0,0,1.65.07h2.27a13.32,13.32,0,0,0,1.63-.07c0,.48-.05.89-.05,1.52v2.13a14.53,14.53,0,0,0,.05,1.47c-.35,0-1-.05-1.61-.05H158ZM158,29h3.54v-1.3H158Zm0,2.13h3.54V29.75H158Zm8.17,5.77a8.39,8.39,0,0,0,.05,1,9.91,9.91,0,0,0-1,0h-3.82V39h-1a10.69,10.69,0,0,0,.07-1.49V34.35c0-.36,0-.68,0-1,.32,0,.66,0,1.09,0h3.57c.46,0,.87,0,1.16,0a9.5,9.5,0,0,0-.05,1Zm-4.77.06h3.83V34.24h-3.83Zm8.36,2.23c0,1-.3,1.33-1.4,1.33-.62,0-1.19,0-1.89-.07a3.15,3.15,0,0,0-.28-1,16.83,16.83,0,0,0,2,.16c.47,0,.58-.09.58-.46V31.88h-3.18c-.67,0-1.28,0-1.62.05,0-.46,0-.88,0-1.47V28.33c0-.56,0-1,0-1.52a13,13,0,0,0,1.62.07h2.57a14,14,0,0,0,1.67-.07,15.91,15.91,0,0,0-.08,1.76ZM165,29h3.84v-1.3H165Zm0,2.13h3.84V29.75H165Z"/><path d="M179.82,26.38a11,11,0,0,0,2.62,2.89,16.65,16.65,0,0,0,4.36,2.61,4.11,4.11,0,0,0-.64,1A22.23,22.23,0,0,1,181.68,30a13.45,13.45,0,0,1-2.45-2.68,14.85,14.85,0,0,1-3.34,3.5,18.1,18.1,0,0,1-3.37,2.07,2.66,2.66,0,0,0-.67-.91,16.57,16.57,0,0,0,4.33-2.77,11.63,11.63,0,0,0,2.45-2.78Zm-5.55,14.26a12.32,12.32,0,0,0,.1-1.57V35.55a10.66,10.66,0,0,0-.08-1.47,7.87,7.87,0,0,0,1.24.07H183a8,8,0,0,0,1.24-.07,10.21,10.21,0,0,0-.08,1.47v3.52a10.27,10.27,0,0,0,.1,1.57h-1.15v-.93h-7.68v.93Zm1.14-1.87h7.68V35.12h-7.68Zm.12-7.54a7.8,7.8,0,0,0,1.25.06h4.93a9.38,9.38,0,0,0,1.34-.06v1.08a11.51,11.51,0,0,0-1.34-.06h-4.94a10.56,10.56,0,0,0-1.24.06Z"/><path d="M192.59,27.47a19.79,19.79,0,0,0-.14,3.33c2.57-.14,3.21-.18,5.2-.26V30.1c0-.18,0-.35,0-.55a15.53,15.53,0,0,0-.09-2.42h1.22a8.44,8.44,0,0,0-.06,1.23V29l0,1v.43c1.56,0,2.8-.08,3.33-.15l0,1.13c-.43,0-.53,0-1.2,0-.14,0-.55,0-1.08,0h-1.11a15.28,15.28,0,0,1-.29,3.11c-.25.94-.77,1.41-1.6,1.41a4.52,4.52,0,0,1-2.21-.74c0-.24,0-.32,0-.47s0-.34,0-.66a4.55,4.55,0,0,0,2.08.88c.45,0,.64-.26.78-1a14.07,14.07,0,0,0,.19-2.45c-1.92.06-3.07.12-5.18.27v1.43a24.59,24.59,0,0,0,.16,4,1.36,1.36,0,0,0,1.06,1,9,9,0,0,0,2.48.27,14.3,14.3,0,0,0,4.42-.59l.13,1.23c-.22,0-.25,0-.64.08a27.36,27.36,0,0,1-4,.33c-2.83,0-4-.54-4.45-2a16.7,16.7,0,0,1-.21-3.78v-2a30.33,30.33,0,0,0-3.19.34l-.1-1.12a2.74,2.74,0,0,0,.35,0q.44,0,2.94-.21v-1a15.86,15.86,0,0,0-.08-2.37Z"/></g><path class="cls-3" d="M148.9,31.05l-.48.09a28,28,0,0,1-2.81.48v2.76a11.33,11.33,0,0,1,3.42-.57,5.32,5.32,0,0,1,2.81.67,3.28,3.28,0,0,1-1.6,6.12,2.34,2.34,0,0,1-2.45-1.8,5.84,5.84,0,0,1-.19-1.8,3.66,3.66,0,0,0,1.05-.42,5,5,0,0,0,0,.62c0,1.66.47,2.35,1.63,2.35a2.11,2.11,0,0,0,2.13-2.25c0-1.56-1.32-2.54-3.4-2.54a10.71,10.71,0,0,0-3.37.62v4c0,.86-.38,1.28-1.16,1.28a4.2,4.2,0,0,1-2.62-1,1.92,1.92,0,0,1-.74-1.5A2.89,2.89,0,0,1,142.35,36a8.37,8.37,0,0,1,2.24-1.31v-3l-.63,0c-.29,0-.56,0-1,0-.24,0-.67,0-.84,0h-.66V30.68a9.11,9.11,0,0,0,1.63.11c.43,0,1.05,0,1.52,0V29.17a9.82,9.82,0,0,0-.08-1.52h1.18a9.58,9.58,0,0,0-.08,1.48v1.53a15.76,15.76,0,0,0,3.24-.68Zm-4.31,4.7c-1.57.77-2.46,1.63-2.46,2.39a1.21,1.21,0,0,0,.68,1,3,3,0,0,0,1.42.46c.31,0,.36-.09.36-.78Zm8.73-3a12.88,12.88,0,0,0-3.21-3.12l.83-.62a13.36,13.36,0,0,1,3.21,3Z"/><path class="cls-3" d="M158,39.8a12.07,12.07,0,0,0,.09,1.79h-1.17A12.93,12.93,0,0,0,157,39.8V29.45c0-.78,0-1.24-.06-1.75a14.15,14.15,0,0,0,1.65.06h2.27a13.76,13.76,0,0,0,1.63-.06c0,.48-.05.89-.05,1.51v2.14a14.65,14.65,0,0,0,.05,1.47c-.35,0-1,0-1.61,0H158Zm0-9.95h3.54V28.54H158ZM158,32h3.54V30.63H158Zm8.17,5.78a8.39,8.39,0,0,0,.05,1,9.66,9.66,0,0,0-1-.05h-3.82v1.26h-1a10.46,10.46,0,0,0,.07-1.48V35.24c0-.37,0-.68,0-1,.32,0,.66,0,1.09,0h3.57c.46,0,.87,0,1.16,0a9.35,9.35,0,0,0-.05,1Zm-4.77.06h3.83V35.13h-3.83ZM169.78,40c0,1-.3,1.32-1.4,1.32-.62,0-1.19,0-1.89-.06a3,3,0,0,0-.28-1,16.83,16.83,0,0,0,2,.16c.47,0,.58-.1.58-.46V32.77h-3.18c-.67,0-1.28,0-1.62,0,0-.46,0-.88,0-1.47V29.21c0-.55,0-1,0-1.51a13.47,13.47,0,0,0,1.62.06h2.57a14.43,14.43,0,0,0,1.67-.06,15.73,15.73,0,0,0-.08,1.75ZM165,29.85h3.84V28.54H165ZM165,32h3.84V30.63H165Z"/><path class="cls-3" d="M179.82,27.27a11,11,0,0,0,2.62,2.88,16.69,16.69,0,0,0,4.36,2.62,4.05,4.05,0,0,0-.64,1,22.19,22.19,0,0,1-4.48-2.93,13.45,13.45,0,0,1-2.45-2.68,14.61,14.61,0,0,1-3.34,3.49,18.69,18.69,0,0,1-3.37,2.08,2.57,2.57,0,0,0-.67-.91A16.6,16.6,0,0,0,176.18,30a11.6,11.6,0,0,0,2.45-2.77Zm-5.55,14.25a12,12,0,0,0,.1-1.56V36.44a10.66,10.66,0,0,0-.08-1.47,8.11,8.11,0,0,0,1.24.06H183a8.19,8.19,0,0,0,1.24-.06,10.21,10.21,0,0,0-.08,1.47V40a10.13,10.13,0,0,0,.1,1.56h-1.15V40.6h-7.68v.92Zm1.14-1.86h7.68V36h-7.68Zm.12-7.54a9.21,9.21,0,0,0,1.25.06h4.93a11.16,11.16,0,0,0,1.34-.06V33.2a9.63,9.63,0,0,0-1.34-.06h-4.94a8.75,8.75,0,0,0-1.24.06Z"/><path class="cls-3" d="M192.59,28.35a19.87,19.87,0,0,0-.14,3.34c2.57-.15,3.21-.18,5.2-.26V31c0-.17,0-.35,0-.54a15.45,15.45,0,0,0-.09-2.42h1.22a8.44,8.44,0,0,0-.06,1.23v.66l0,1v.43c1.56,0,2.8-.08,3.33-.14l0,1.13c-.43,0-.53,0-1.2,0-.14,0-.55,0-1.08,0h-1.11a15.36,15.36,0,0,1-.29,3.11,1.58,1.58,0,0,1-1.6,1.4,4.49,4.49,0,0,1-2.21-.73c0-.24,0-.32,0-.48s0-.33,0-.65a4.55,4.55,0,0,0,2.08.88c.45,0,.64-.26.78-1a14.11,14.11,0,0,0,.19-2.46c-1.92.07-3.07.13-5.18.27v1.44a24.77,24.77,0,0,0,.16,4,1.35,1.35,0,0,0,1.06,1,8.67,8.67,0,0,0,2.48.27,14.3,14.3,0,0,0,4.42-.59l.13,1.23-.64.08a26.14,26.14,0,0,1-4,.34c-2.83,0-4-.54-4.45-2a16.7,16.7,0,0,1-.21-3.78v-2c-1.57.11-2.46.21-3.19.33l-.1-1.11h.35c.29,0,1.27-.06,2.94-.2v-1a16,16,0,0,0-.08-2.38Z"/></g></g></g></svg>