<svg xmlns="http://www.w3.org/2000/svg" xmlns:xlink="http://www.w3.org/1999/xlink" width="284" height="74" viewBox="0 0 284 74"><defs><style>.cls-1{fill:none;}.cls-2{isolation:isolate;}.cls-3{fill:silver;}.cls-4{fill:#fff;}.cls-5{clip-path:url(#clip-path);}.cls-6{fill:url(#linear-gradient);}.cls-7{opacity:0.5;mix-blend-mode:multiply;}</style><clipPath id="clip-path"><path class="cls-1" d="M19.29,0a4.58,4.58,0,0,0-4.52,4.89V74l21-14,21,14V4.89C56.8,2.19,55.09,0,52.39,0Z"/></clipPath><linearGradient id="linear-gradient" x1="-1147.11" y1="-315.34" x2="-1146.4" y2="-315.34" gradientTransform="matrix(0, 103.58, 103.58, 0, 32700.4, 118822.38)" gradientUnits="userSpaceOnUse"><stop offset="0" stop-color="#ec931e"/><stop offset="0.07" stop-color="#ffffa2"/><stop offset="0.15" stop-color="#f0e221"/><stop offset="0.9" stop-color="#ec911e"/><stop offset="1" stop-color="#eb871e"/></linearGradient></defs><title>bt_faq</title><g class="cls-2"><g id="レイヤー_2" data-name="レイヤー 2"><g id="レイヤー_1-2" data-name="レイヤー 1"><rect class="cls-3" y="11.38" width="284" height="46.68"/><rect class="cls-4" y="5.69" width="284" height="50.09"/><g class="cls-5"><rect class="cls-6" x="14.77" width="42.03" height="74"/></g><g class="cls-7"><path d="M132,26.75a11.6,11.6,0,0,0-.09,2.1c0,.35,0,.53,0,1.66a15.87,15.87,0,0,0,4.66-.6l.14,1.18a6.67,6.67,0,0,0-1,.11,27.53,27.53,0,0,1-3.83.35c0,1.54.13,3.09.21,4.11a13.81,13.81,0,0,1,4.25,2.27,6.6,6.6,0,0,0,.73.49l-.75,1.12a6.88,6.88,0,0,0-1.65-1.39,17.26,17.26,0,0,0-2.15-1.23,2.41,2.41,0,0,1-.38-.17,4.65,4.65,0,0,1,.06.68,2.81,2.81,0,0,1-.4,1.61,3.36,3.36,0,0,1-2.83,1.1c-2.05,0-3.3-.89-3.3-2.36s1.48-2.52,3.73-2.52a6.87,6.87,0,0,1,1.39.15c.08,0,.08,0,.14,0s0,0,.08,0a.34.34,0,0,0,0-.14v-.1c-.12-1.83-.24-4.91-.25-7.19a8.17,8.17,0,0,0-.08-1.29Zm-2.54,9.52c-1.62,0-2.61.57-2.61,1.5a1.1,1.1,0,0,0,.24.68,2.54,2.54,0,0,0,1.91.64,2.64,2.64,0,0,0,1.76-.53,1.47,1.47,0,0,0,.38-1.19,7.4,7.4,0,0,0-.05-.88A5.51,5.51,0,0,0,129.47,36.27Z"/><path d="M150.48,27.58c-.18.14-.31.25-2,1.85a47.11,47.11,0,0,1-3.66,3c-.59.45-.7.57-.7.8s.13.4,1.42,1.4A47.42,47.42,0,0,1,150.67,39a4.11,4.11,0,0,0,.44.39l-1,1a14.89,14.89,0,0,0-2.05-2.18c-1.07-1-1.7-1.52-4-3.33-.89-.71-1.15-1.06-1.15-1.6a1.56,1.56,0,0,1,.46-1.07,12.3,12.3,0,0,1,1.35-1.08,25,25,0,0,0,4.66-4.37Z"/><path d="M157.63,28.74a11.14,11.14,0,0,0,3,.26l.39,0c0-.38,0-.38.08-1.19,0-.18,0-.8,0-.91s0-.13,0-.24l1.24.08A9.91,9.91,0,0,0,162,29a24.58,24.58,0,0,0,6.06-.89l.06,1.11-.55.08a44.78,44.78,0,0,1-5.63.64c-.1,1.36-.1,1.36-.11,2.14a8.13,8.13,0,0,1,2.35-.32,7.7,7.7,0,0,1,.92.05,5.9,5.9,0,0,0,.38-1.44l1.1.34c0,.09-.22.52-.49,1.27,2.19.51,3.42,1.87,3.42,3.73a4.11,4.11,0,0,1-2.5,3.69,8.81,8.81,0,0,1-3.24.9,3.57,3.57,0,0,0-.51-1.06,7.58,7.58,0,0,0,2.38-.43c1.74-.61,2.74-1.77,2.74-3.19s-.91-2.33-2.63-2.78a14.4,14.4,0,0,1-3,4.79,5.2,5.2,0,0,1-3.54,1.92,2.17,2.17,0,0,1-2.05-2.42c0-2,1.38-3.75,3.69-4.75,0-1.16,0-1.24.09-2.41h-.64l-2.14-.08h-.54Zm1.53,5.9a3.79,3.79,0,0,0-1,2.38c0,.87.46,1.45,1.14,1.45a2.87,2.87,0,0,0,1.83-.81,23,23,0,0,1-.31-4.33A5.76,5.76,0,0,0,159.16,34.64ZM162.07,37a1.87,1.87,0,0,1,.3-.41,14.36,14.36,0,0,0,2.43-4c-.5,0-.58,0-.76,0a7.11,7.11,0,0,0-2.21.37,26.39,26.39,0,0,0,.18,3.65,1.55,1.55,0,0,1,0,.22V37Z"/><path d="M175.1,27.72a7.18,7.18,0,0,0,1.49.1c1.32,0,3.44-.1,4.87-.21a1.51,1.51,0,0,0,.76-.18l.67.88a2.9,2.9,0,0,0-.81.67,41.94,41.94,0,0,1-5.23,4.53l0,.05a8,8,0,0,1,3.89-1c2.66,0,4.36,1.31,4.36,3.35,0,2.48-2.31,4.13-5.84,4.13-2.24,0-3.53-.83-3.53-2.3a2.07,2.07,0,0,1,2.31-1.86,3.2,3.2,0,0,1,2.62,1.3,4.45,4.45,0,0,1,.73,1.53c1.67-.46,2.55-1.43,2.55-2.79,0-1.53-1.27-2.44-3.42-2.44a10.15,10.15,0,0,0-6.69,2.73l-.72-1a17.09,17.09,0,0,0,2.23-1.63c1.7-1.35,4.21-3.57,5.31-4.65l.22-.23.06-.06.07-.06,0,0-.15,0c-.51.1-2.41.21-4.83.29a6.25,6.25,0,0,0-.86.08Zm3,9.07c-.8,0-1.29.39-1.29,1a1.09,1.09,0,0,0,.63,1,4.13,4.13,0,0,0,1.78.36,5.5,5.5,0,0,0,1.17-.11C180,37.56,179.23,36.79,178.09,36.79Z"/><path d="M190.08,29.54a5.35,5.35,0,0,1-1.46,3.16,4.32,4.32,0,0,0-.78-.75,4.48,4.48,0,0,0,1.41-3.78,7.31,7.31,0,0,0-.09-1.17h.35a20.19,20.19,0,0,0,2.62-.25,6.08,6.08,0,0,0,2-.61l.72.8a16.17,16.17,0,0,1-4.63.85c0,.44,0,.6,0,.9h3.46a6.41,6.41,0,0,0,1.28-.08v1a6.72,6.72,0,0,0-1.26-.08H193v.76a9.07,9.07,0,0,0,.06,1H192c0-.27.06-.67.06-1v-.78Zm3.4,9.55a12.36,12.36,0,0,1-4.83,1.77,3.47,3.47,0,0,0-.57-.94,10.91,10.91,0,0,0,2.68-.56,7.24,7.24,0,0,0,1.89-.91Zm5-7.46c.76,0,1.27,0,1.8-.07a12.4,12.4,0,0,0-.08,1.82v3.17a10.54,10.54,0,0,0,.08,1.79,15.89,15.89,0,0,0-1.7-.06h-6.84a16.41,16.41,0,0,0-1.72.06,11.48,11.48,0,0,0,.08-1.82V33.37a13.14,13.14,0,0,0-.08-1.81,17.69,17.69,0,0,0,1.77.07Zm-7.39,2h8.14V32.44h-8.14Zm0,1.91h8.14V34.35h-8.14Zm0,2h8.14V36.27h-8.14Zm9.7-8.76a6.83,6.83,0,0,0,1.28-.08v1a6.71,6.71,0,0,0-1.28-.08H199.6v.8a6.17,6.17,0,0,0,.07.95H198.6a8.42,8.42,0,0,0,.06-.94v-.81h-2.27a4.26,4.26,0,0,1-1,2,3.24,3.24,0,0,0-.78-.65,2.82,2.82,0,0,0,.77-1.23,7.38,7.38,0,0,0,.23-1.93,5.38,5.38,0,0,0,0-.75,3.71,3.71,0,0,0,.44,0,20.92,20.92,0,0,0,2.31-.21,7.48,7.48,0,0,0,2.33-.64l.74.8-1,.29a17,17,0,0,1-3.82.54c0,.43,0,.57-.06.92Zm-3.28,9.81A11.24,11.24,0,0,0,202.18,40a3.26,3.26,0,0,0-.54,1,12.33,12.33,0,0,1-4.87-1.82Z"/><path d="M205.73,38.92a11.81,11.81,0,0,0,.09,1.78h-1.17a12.76,12.76,0,0,0,.09-1.78V28.57a17.25,17.25,0,0,0-.06-1.76,13.7,13.7,0,0,0,1.65.07h2.28a13.24,13.24,0,0,0,1.62-.07c0,.48,0,.9,0,1.52v2.13c0,.64,0,1.09,0,1.47-.35,0-1-.05-1.61-.05h-2.89Zm0-10h3.54v-1.3h-3.54Zm0,2.13h3.54V29.75h-3.54Zm8.17,5.77a8.39,8.39,0,0,0,0,1,9.91,9.91,0,0,0-1,0h-3.82V39h-1a10.51,10.51,0,0,0,.08-1.49V34.35c0-.36,0-.68-.05-1,.32,0,.67,0,1.1,0h3.56c.46,0,.87,0,1.16,0a9.5,9.5,0,0,0,0,1Zm-4.77.06H213V34.24h-3.83Zm8.36,2.23c0,1-.3,1.33-1.4,1.33-.62,0-1.19,0-1.89-.07a3.15,3.15,0,0,0-.28-1,17,17,0,0,0,2,.16c.46,0,.57-.09.57-.46V31.88h-3.18c-.67,0-1.27,0-1.62.05,0-.46,0-.88,0-1.47V28.33c0-.56,0-1,0-1.52a13.14,13.14,0,0,0,1.62.07h2.57a14,14,0,0,0,1.67-.07,15.91,15.91,0,0,0-.08,1.76ZM212.68,29h3.83v-1.3h-3.83Zm0,2.13h3.83V29.75h-3.83Z"/></g><path class="cls-3" d="M132,27.64a11.53,11.53,0,0,0-.09,2.1c0,.35,0,.53,0,1.66a15.82,15.82,0,0,0,4.66-.61l.14,1.18c-.27,0-.27,0-1,.11a26.08,26.08,0,0,1-3.83.35c0,1.55.13,3.1.21,4.12a14,14,0,0,1,4.25,2.26,6.59,6.59,0,0,0,.73.5l-.75,1.11A7.13,7.13,0,0,0,134.75,39a16.07,16.07,0,0,0-2.15-1.23,3.57,3.57,0,0,1-.38-.18,4.92,4.92,0,0,1,.06.69,2.81,2.81,0,0,1-.4,1.61,3.36,3.36,0,0,1-2.83,1.1c-2.05,0-3.3-.89-3.3-2.36s1.48-2.52,3.73-2.52a6.93,6.93,0,0,1,1.39.14c.08,0,.08,0,.14,0s0,0,.08,0a.39.39,0,0,0,0-.15v-.09c-.12-1.84-.24-4.91-.25-7.19a8.17,8.17,0,0,0-.08-1.29Zm-2.54,9.51c-1.62,0-2.61.58-2.61,1.5a1.11,1.11,0,0,0,.24.69A2.54,2.54,0,0,0,129,40a2.64,2.64,0,0,0,1.76-.53,1.48,1.48,0,0,0,.38-1.2,7.34,7.34,0,0,0-.05-.87A5.22,5.22,0,0,0,129.47,37.15Z"/><path class="cls-3" d="M150.48,28.46c-.18.15-.31.26-2,1.85a46.52,46.52,0,0,1-3.66,3c-.59.44-.7.57-.7.79s.13.4,1.42,1.41a48.44,48.44,0,0,1,5.09,4.35,3.44,3.44,0,0,0,.44.4l-1,1a15.35,15.35,0,0,0-2.05-2.19c-1.07-1-1.7-1.51-4-3.33-.89-.7-1.15-1-1.15-1.59a1.55,1.55,0,0,1,.46-1.07A12.89,12.89,0,0,1,144.7,32a25,25,0,0,0,4.66-4.36Z"/><path class="cls-3" d="M157.63,29.63a11.24,11.24,0,0,0,3,.25H161c0-.38,0-.38.08-1.2,0-.17,0-.8,0-.91s0-.12,0-.24l1.24.08a10,10,0,0,0-.34,2.24,24.49,24.49,0,0,0,6.06-.9l.06,1.12-.55.08a44.78,44.78,0,0,1-5.63.64c-.1,1.35-.1,1.35-.11,2.13a8.49,8.49,0,0,1,2.35-.32c.33,0,.53,0,.92,0a5.83,5.83,0,0,0,.38-1.43l1.1.33c0,.1-.22.53-.49,1.28,2.19.51,3.42,1.86,3.42,3.73a4.09,4.09,0,0,1-2.5,3.68,8.61,8.61,0,0,1-3.24.91,3.62,3.62,0,0,0-.51-1.07,7.31,7.31,0,0,0,2.38-.43c1.74-.6,2.74-1.77,2.74-3.19s-.91-2.33-2.63-2.77a14.34,14.34,0,0,1-3,4.78,5.18,5.18,0,0,1-3.54,1.93A2.17,2.17,0,0,1,157.16,38c0-2,1.38-3.75,3.69-4.75,0-1.17,0-1.25.09-2.41h-.64l-2.14-.08a2.09,2.09,0,0,0-.29,0,1.29,1.29,0,0,0-.25,0Zm1.53,5.9a3.77,3.77,0,0,0-1,2.37c0,.88.46,1.46,1.14,1.46a2.84,2.84,0,0,0,1.83-.82,22.93,22.93,0,0,1-.31-4.32A5.76,5.76,0,0,0,159.16,35.53Zm2.91,2.36a2,2,0,0,1,.3-.42,14.16,14.16,0,0,0,2.43-4c-.5,0-.58,0-.76,0a7.1,7.1,0,0,0-2.21.36,26.2,26.2,0,0,0,.18,3.65,1.77,1.77,0,0,1,0,.23v.17Z"/><path class="cls-3" d="M175.1,28.61a7.32,7.32,0,0,0,1.49.09c1.32,0,3.44-.09,4.87-.2a1.75,1.75,0,0,0,.76-.18l.67.88a2.72,2.72,0,0,0-.81.67,41.94,41.94,0,0,1-5.23,4.53l0,0a8.05,8.05,0,0,1,3.89-1c2.66,0,4.36,1.3,4.36,3.34,0,2.49-2.31,4.13-5.84,4.13-2.24,0-3.53-.83-3.53-2.29a2.07,2.07,0,0,1,2.31-1.87,3.18,3.18,0,0,1,2.62,1.31,4.45,4.45,0,0,1,.73,1.53c1.67-.46,2.55-1.44,2.55-2.79,0-1.53-1.27-2.44-3.42-2.44a10.15,10.15,0,0,0-6.69,2.73l-.72-1a18.13,18.13,0,0,0,2.23-1.63c1.7-1.36,4.21-3.57,5.31-4.66l.22-.22.06-.06.07-.07,0,0-.15,0c-.51.09-2.41.2-4.83.28-.35,0-.51,0-.86.08Zm3,9.07c-.8,0-1.29.38-1.29,1a1.08,1.08,0,0,0,.63,1,4,4,0,0,0,1.78.37,6.25,6.25,0,0,0,1.17-.11C180,38.45,179.23,37.68,178.09,37.68Z"/><path class="cls-3" d="M190.08,30.43a5.3,5.3,0,0,1-1.46,3.15,5.13,5.13,0,0,0-.78-.75,4.47,4.47,0,0,0,1.41-3.78,7.18,7.18,0,0,0-.09-1.16h.35a22.11,22.11,0,0,0,2.62-.25,6.34,6.34,0,0,0,2-.61l.72.8a16.17,16.17,0,0,1-4.63.84c0,.45,0,.61,0,.91h3.46a7.27,7.27,0,0,0,1.28-.08v1a6.72,6.72,0,0,0-1.26-.08H193v.76a9.07,9.07,0,0,0,.06,1H192c0-.27.06-.67.06-1v-.78Zm3.4,9.55a12.52,12.52,0,0,1-4.83,1.77,3.19,3.19,0,0,0-.57-.94,11.4,11.4,0,0,0,2.68-.56,7.24,7.24,0,0,0,1.89-.91Zm5-7.47c.76,0,1.27,0,1.8-.06a12.4,12.4,0,0,0-.08,1.82v3.17a10.54,10.54,0,0,0,.08,1.79,15.47,15.47,0,0,0-1.7-.07h-6.84a16,16,0,0,0-1.72.07,11.48,11.48,0,0,0,.08-1.82V34.25a12.9,12.9,0,0,0-.08-1.8c.51,0,1,.06,1.77.06Zm-7.39,2h8.14V33.33h-8.14Zm0,1.91h8.14V35.24h-8.14Zm0,1.94h8.14V37.15h-8.14Zm9.7-8.75a7.8,7.8,0,0,0,1.28-.08v1a6.71,6.71,0,0,0-1.28-.08H199.6v.79a6.41,6.41,0,0,0,.07,1H198.6a8.42,8.42,0,0,0,.06-.94v-.81h-2.27a4.26,4.26,0,0,1-1,2,3,3,0,0,0-.78-.65,2.88,2.88,0,0,0,.77-1.23,7.38,7.38,0,0,0,.23-1.93,5.28,5.28,0,0,0,0-.75H196a20.61,20.61,0,0,0,2.31-.2,7.76,7.76,0,0,0,2.33-.64l.74.8-1,.28a16.87,16.87,0,0,1-3.82.55c0,.43,0,.57-.06.92Zm-3.28,9.81a11.55,11.55,0,0,0,4.63,1.45,3.2,3.2,0,0,0-.54.95A12.17,12.17,0,0,1,196.77,40Z"/><path class="cls-3" d="M205.73,39.8a12,12,0,0,0,.09,1.79h-1.17a12.93,12.93,0,0,0,.09-1.79V29.45a17,17,0,0,0-.06-1.75,14.15,14.15,0,0,0,1.65.06h2.28a13.67,13.67,0,0,0,1.62-.06c0,.48,0,.89,0,1.51v2.14c0,.64,0,1.08,0,1.47-.35,0-1,0-1.61,0h-2.89Zm0-9.95h3.54V28.54h-3.54Zm0,2.12h3.54V30.63h-3.54Zm8.17,5.78a8.39,8.39,0,0,0,0,1,9.66,9.66,0,0,0-1-.05h-3.82v1.26h-1a10.27,10.27,0,0,0,.08-1.48V35.24c0-.36,0-.68-.05-1,.32,0,.67,0,1.1,0h3.56c.46,0,.87,0,1.16,0a9.35,9.35,0,0,0,0,1Zm-4.77.06H213V35.13h-3.83ZM217.49,40c0,1-.3,1.32-1.4,1.32-.62,0-1.19,0-1.89-.06a3,3,0,0,0-.28-1,17,17,0,0,0,2,.16c.46,0,.57-.1.57-.46V32.77h-3.18c-.67,0-1.27,0-1.62,0,0-.46,0-.88,0-1.47V29.21c0-.55,0-1,0-1.51a13.57,13.57,0,0,0,1.62.06h2.57a14.43,14.43,0,0,0,1.67-.06,15.73,15.73,0,0,0-.08,1.75Zm-4.81-10.19h3.83V28.54h-3.83Zm0,2.12h3.83V30.63h-3.83Z"/></g></g></g></svg>