<svg xmlns="http://www.w3.org/2000/svg" xmlns:xlink="http://www.w3.org/1999/xlink" width="284" height="91" viewBox="0 0 284 91"><defs><style>.cls-1{fill:#e98066;}.cls-1,.cls-2{fill-rule:evenodd;}.cls-2{fill:url(#GradientFill_1);}.cls-3{fill:#fff;}</style><linearGradient id="GradientFill_1" x1="190.85" y1="91" x2="190.85" gradientUnits="userSpaceOnUse"><stop offset="0" stop-color="#231f20"/><stop offset="1" stop-color="gray"/></linearGradient></defs><title>bt_hogosya</title><g id="レイヤー_2" data-name="レイヤー 2"><g id="レイヤー_1-2" data-name="レイヤー 1"><path class="cls-1" d="M93.15,0h-82C4.72,0,0,4.6,0,10.86V79.12C0,85.37,4.72,91,11.13,91h82Z"/><path class="cls-2" d="M190.34,0h81.5C278.24,0,284,4.6,284,10.86V79.12C284,85.37,278.24,91,271.84,91H97.7V0Z"/><path class="cls-3" d="M110.6,47.28c0-.45,0-.76,0-1.5a7,7,0,0,1-1,1.38,7.35,7.35,0,0,0-.66-1.65,9.84,9.84,0,0,0,2.31-3.62,9.64,9.64,0,0,0,.51-1.86l1.53.49a3.68,3.68,0,0,0-.2.62,15.4,15.4,0,0,1-1,2.54v7.49c0,.59,0,1,.06,1.59h-1.56a15.7,15.7,0,0,0,.08-1.6Zm5.79-2.1H115a13.06,13.06,0,0,0-1.39,0,12.54,12.54,0,0,0,0-1.32v-2a11.52,11.52,0,0,0,0-1.24,9.72,9.72,0,0,0,1.51.07h4.35a10.12,10.12,0,0,0,1.49-.07,12.18,12.18,0,0,0,0,1.33v1.94a11.41,11.41,0,0,0,0,1.28h-.39a2,2,0,0,1-.3,0h-2.39V46.3h2.39a13.92,13.92,0,0,0,1.48-.08v1.53a12.63,12.63,0,0,0-1.44-.09h-1.83a10.07,10.07,0,0,0,1.46,1.51,9.6,9.6,0,0,0,2.18,1.39,7.84,7.84,0,0,0-.91,1.46,13.67,13.67,0,0,1-1.73-1.3,7.69,7.69,0,0,1-1.64-1.94c0,.45,0,1.1,0,1.47v1.26a8.69,8.69,0,0,0,.09,1.26h-1.61a10.69,10.69,0,0,0,.08-1.27V50.22c0-.11,0-.6,0-1.45a8.05,8.05,0,0,1-1.75,2.12A10.07,10.07,0,0,1,113,52.1a4.46,4.46,0,0,0-.93-1.35,10.56,10.56,0,0,0,2.35-1.64,8.6,8.6,0,0,0,1.3-1.45h-1.62a11.1,11.1,0,0,0-1.48.09V46.23c.43,0,.87.07,1.48.07h2.25ZM115,43.84h4.36V42.08H115Z"/><path class="cls-3" d="M122.9,42.38a6.37,6.37,0,0,0,1.1.07h2.23a7.32,7.32,0,0,0,1.11-.06v1.4a7.78,7.78,0,0,0-1,0H124a8.23,8.23,0,0,0-1.1.06Zm11.8,7a10.86,10.86,0,0,1-2.1,1.68,14,14,0,0,0,3,.37,5.11,5.11,0,0,0-.49,1.34,13.6,13.6,0,0,1-4-.94,15.64,15.64,0,0,1-3.76,1,4.4,4.4,0,0,0-.32-.8l-.78,0h-1.71v.67h-1.33c0-.41.07-.91.07-1.33V49.26a8.5,8.5,0,0,0-.06-1,8,8,0,0,0,.92,0h2.09a4.75,4.75,0,0,0,.82,0,5.5,5.5,0,0,0,0,1v2.38a12.12,12.12,0,0,0,2.79-.42,12.87,12.87,0,0,1-1.36-1l1-.32h-.69a7,7,0,0,0-1.11.06V48.71a9.46,9.46,0,0,0,1.11,0h4.16a6.43,6.43,0,0,0,1-.06Zm-2.21-2.13h1.93a6.72,6.72,0,0,0,.93,0v1.13a6.83,6.83,0,0,0-1.1-.06h-5.36a8.69,8.69,0,0,0-.94,0,7.33,7.33,0,0,0,0-1v-1c0-.1,0-.44,0-.69a5,5,0,0,1-.57.59,5.67,5.67,0,0,0-.49-.6,5.39,5.39,0,0,0-.82,0H124.2a5.31,5.31,0,0,0-.86,0V44.43a5.25,5.25,0,0,0,.86,0h1.94a4.68,4.68,0,0,0,.83,0V45a6.24,6.24,0,0,0,1.61-2.63l.46.12v-.37h-.54a8.57,8.57,0,0,0-1,.06v-1.3a9.12,9.12,0,0,0,1.16.07H129a3.7,3.7,0,0,0,0-.75h1.44a2.78,2.78,0,0,0-.05.75h1.82a3.25,3.25,0,0,0,0-.75h1.44a3.6,3.6,0,0,0-.07.75h.71a7,7,0,0,0,1.17-.07v1.3a8.85,8.85,0,0,0-1.15-.06h-.73a2.81,2.81,0,0,0,.06.68h-.72l-.21.37h1.57a6.44,6.44,0,0,0,1,0v1.12a6,6,0,0,0-1,0h-1.76v.42H134a5.49,5.49,0,0,0,.87,0v1a8.11,8.11,0,0,0-.87,0h-1.51v.44H134a5.56,5.56,0,0,0,.88,0v1a5.81,5.81,0,0,0-.88,0h-1.5Zm-9.15-6.81a6.49,6.49,0,0,0,1.11.07H126a6.65,6.65,0,0,0,1.11-.07v1.32a8.54,8.54,0,0,0-1.11,0h-1.51a8.93,8.93,0,0,0-1.11,0Zm0,5.87a5.25,5.25,0,0,0,.86,0h1.92a4.81,4.81,0,0,0,.85,0v1.28a5.19,5.19,0,0,0-.86,0h-1.92a5.25,5.25,0,0,0-.85,0Zm1.2,4.45h1.31V49.37h-1.31Zm6.71-6.62h-2v.42h2Zm0,1.32h-2v.44h2Zm-2,1.34v.45h2v-.45Zm.68-4.08-.19.39h1.61a4.05,4.05,0,0,0,.33-.73l.53.13c0-.19,0-.26,0-.45h-1.82a3.3,3.3,0,0,0,0,.66Zm-.15,7.07a6.9,6.9,0,0,0,1.46.82,6.12,6.12,0,0,0,1.32-.82Z"/><path class="cls-3" d="M138.33,45.4a12.71,12.71,0,0,0-1.64.08V44a12.89,12.89,0,0,0,1.66.08h3.11V42.87h-2c-.73,0-1.16,0-1.56.05V41.49a10.84,10.84,0,0,0,1.61.08h2v-.23a7.9,7.9,0,0,0-.08-1.2H143a5.67,5.67,0,0,0-.08,1.2v.23h1a10.23,10.23,0,0,0,1.53-.08v1.18a10.16,10.16,0,0,0,1.58-2.08l1.35.89c-.1.09-.3.32-.62.69a19.16,19.16,0,0,1-1.85,1.89h1.4a12.56,12.56,0,0,0,1.56-.08v1.5a13.25,13.25,0,0,0-1.69-.08h-2.93c-.52.37-.86.6-1.48,1h3.11c.66,0,1,0,1.43,0a13.67,13.67,0,0,0-.05,1.49V51.2a11.32,11.32,0,0,0,.08,1.54h-1.58v-.58h-4.95v.58h-1.59a13.67,13.67,0,0,0,.08-1.54V49.08c0-.21,0-.51,0-.76-.83.41-1.11.53-2.16,1a4.81,4.81,0,0,0-.81-1.37A23.13,23.13,0,0,0,142,45.4Zm2.5,3.23h4.94v-1h-4.94Zm0,2.24h4.94v-1h-4.94Zm3.08-6.81a12.24,12.24,0,0,0,1.31-1.15c-.37,0-.6,0-1.14,0H143v1.19Z"/><path class="cls-3" d="M156.05,48.47c-.78,1.76-1.65,2.57-2.77,2.57-1.55,0-2.67-1.59-2.67-3.79a5.85,5.85,0,0,1,1.5-4,6.08,6.08,0,0,1,4.68-1.91c3.28,0,5.4,2,5.4,5.06a5.27,5.27,0,0,1-3.31,5.1,8.87,8.87,0,0,1-2.14.57,4.36,4.36,0,0,0-.83-1.6,7.14,7.14,0,0,0,2.71-.75,3.8,3.8,0,0,0,1.89-3.41,3.37,3.37,0,0,0-1.67-3,2.88,2.88,0,0,0-1.38-.41A19.88,19.88,0,0,1,156.05,48.47Zm-2-4.89a4.59,4.59,0,0,0-1.85,3.69c0,1.12.48,2,1.08,2,.45,0,.91-.58,1.4-1.75a17.87,17.87,0,0,0,1.13-4.62A3.42,3.42,0,0,0,154,43.58Z"/><path class="cls-3" d="M169.15,41.34a5.33,5.33,0,0,0-.1-1.13h1.76a5.64,5.64,0,0,0-.08,1.13v.83h3.74a11.3,11.3,0,0,0,1.72-.09v1.65a12.89,12.89,0,0,0-1.66-.08h-5c-.07,1-.07,1.06-.11,1.47h3.78a9.33,9.33,0,0,0,1.4-.06.45.45,0,0,1,0,.13c0,.21,0,.37-.06,1a26.75,26.75,0,0,1-.46,4.79c-.31,1.3-.76,1.64-2.13,1.64a18.3,18.3,0,0,1-1.84-.1,4.42,4.42,0,0,0-.39-1.58,13.33,13.33,0,0,0,2,.18c.6,0,.74-.15.91-1.09a19,19,0,0,0,.3-3.43h-3.76a8.91,8.91,0,0,1-4.37,6.18,3.76,3.76,0,0,0-1.1-1.29,8.91,8.91,0,0,0,2.44-2c1.17-1.41,1.63-3,1.7-5.78h-2.24a15.88,15.88,0,0,0-1.7.08V42.08a11.93,11.93,0,0,0,1.7.09h3.51Z"/><path class="cls-3" d="M181.89,42a9,9,0,0,0,.78-2l1.69.19c-.07.14-.19.41-.32.71a11.67,11.67,0,0,1-.47,1.1H188a12.1,12.1,0,0,0,1.32-.06,11.42,11.42,0,0,0-.07,1.34v7.73c0,.66-.16,1-.55,1.23a3.65,3.65,0,0,1-1.5.2c-.32,0-.58,0-1.48-.06a4.49,4.49,0,0,0-.35-1.48,16.78,16.78,0,0,0,1.76.12c.53,0,.61-.05.61-.38V43.4h-8.17V51a8.46,8.46,0,0,0,.09,1.51H178a9.53,9.53,0,0,0,.08-1.51V43.33c0-.49,0-.84-.06-1.35a11.58,11.58,0,0,0,1.3.06Zm4.44,6.4a6.31,6.31,0,0,0,.07,1.09l-1.14,0h-2.93v1h-1.5a8.86,8.86,0,0,0,.08-1.14V45.66a5.29,5.29,0,0,0-.07-1,7,7,0,0,0,1,.05h3.6a7.34,7.34,0,0,0,1-.05,6.72,6.72,0,0,0-.07,1Zm-4-.27h2.57V46h-2.57Z"/><path class="cls-3" d="M195.84,47.43a11.94,11.94,0,0,0-1.56,4.39l-1.58.08a2,2,0,0,0-.09-.52,19.81,19.81,0,0,1-.49-4.44,29.63,29.63,0,0,1,.5-5.18,6.32,6.32,0,0,0,.1-1l1.8.18a12.16,12.16,0,0,0-.4,1.67,17.86,17.86,0,0,0-.35,2.69c-.07.9-.1,1.29-.1,1.55,0,0,0,.21,0,.43s0,.38,0,1v.25c0,.21,0,.3,0,.51a14.85,14.85,0,0,1,.89-2.25Zm-.34-3.93a12.27,12.27,0,0,0,2.42.18c.52,0,.74,0,1.45-.06a20.88,20.88,0,0,0-.18-3l1.73,0a2.64,2.64,0,0,0,0,.46c0,.14,0,.26,0,.87,0,.15,0,.67.05,1.55a7.35,7.35,0,0,0,2-.52l.1,1.62a6.53,6.53,0,0,0-.76.14,9.64,9.64,0,0,1-1.32.23c0,.29,0,.41,0,.66a13.51,13.51,0,0,1-.29,3.26,5.1,5.1,0,0,1-1.55,2.65,8.57,8.57,0,0,1-1.49,1,5.22,5.22,0,0,0-1.32-1.29,5.63,5.63,0,0,0,2.09-1.48c.71-.86.95-1.82.95-3.84,0-.29,0-.41,0-.86-.47,0-1.17,0-1.86,0l-1.24,0c-.39,0-.45,0-.61,0h-.2Z"/><path class="cls-3" d="M216.28,45.06a5.85,5.85,0,0,0-.38.86,9.65,9.65,0,0,1-3.16,4.61,12.09,12.09,0,0,1-3.57,1.86,4.8,4.8,0,0,0-1.06-1.59,8.66,8.66,0,0,0,3.78-1.8,7.08,7.08,0,0,0,2.2-3.19h-6.64a12.75,12.75,0,0,0-1.74.07V44.21a10,10,0,0,0,1.77.09H214a5.84,5.84,0,0,0,1.54-.12Zm-9.41-4.14a7.93,7.93,0,0,0,1.59.09h4.76a7.93,7.93,0,0,0,1.59-.09V42.6a9.69,9.69,0,0,0-1.57-.07h-4.81a9.62,9.62,0,0,0-1.56.07Z"/><path class="cls-3" d="M229.72,41.65a5.72,5.72,0,0,0-.5.48A23.23,23.23,0,0,1,226,45v5.83a10.9,10.9,0,0,0,.07,1.51h-1.91a7.31,7.31,0,0,0,.09-1.47V46a21.94,21.94,0,0,1-4.87,2.21,5.06,5.06,0,0,0-.91-1.55,19.83,19.83,0,0,0,7.15-3.55,11.26,11.26,0,0,0,2.54-2.56Z"/><path class="cls-3" d="M243.14,43.16a2.36,2.36,0,0,0-.23.61,12.15,12.15,0,0,1-7.76,8.86A4.85,4.85,0,0,0,234,51a9.92,9.92,0,0,0,7.12-7.35h-6.49a10.84,10.84,0,0,0-1.72.08V42a9.66,9.66,0,0,0,1.75.09h6.25a7.91,7.91,0,0,0,1,0,8.09,8.09,0,0,0-.84-1.38l1-.36a8.43,8.43,0,0,1,1.22,2.15l-.55.22Zm.8-1a9.53,9.53,0,0,0-1.17-2.12l1-.37a7.54,7.54,0,0,1,1.2,2.08Z"/><path class="cls-3" d="M257.18,45.06a4.94,4.94,0,0,0-.38.86,9.67,9.67,0,0,1-3.17,4.61,12,12,0,0,1-3.56,1.86A4.84,4.84,0,0,0,249,50.8a8.7,8.7,0,0,0,3.79-1.8A7.07,7.07,0,0,0,255,45.81h-6.63a12.91,12.91,0,0,0-1.75.07V44.21a10,10,0,0,0,1.78.09h6.48a5.75,5.75,0,0,0,1.54-.12Zm-9.42-4.14a8,8,0,0,0,1.6.09h4.75a8,8,0,0,0,1.6-.09V42.6a9.77,9.77,0,0,0-1.57-.07h-4.81a9.69,9.69,0,0,0-1.57.07Z"/><path class="cls-3" d="M263.27,40.89a7.6,7.6,0,0,0,0,1.23v3.77a7.18,7.18,0,0,0,0,1.2h-1.86a10,10,0,0,0,.07-1.23V42.11a8.48,8.48,0,0,0-.06-1.23Zm6.19,0a7,7,0,0,0-.07,1.27V44a16.37,16.37,0,0,1-.35,4.14,5.28,5.28,0,0,1-2.69,3.18,11.51,11.51,0,0,1-2.65,1,4.71,4.71,0,0,0-1-1.63,7.31,7.31,0,0,0,2.95-1.09,3.87,3.87,0,0,0,1.88-3.48c.05-.59.06-1.19.06-2.28V42.2a8,8,0,0,0-.06-1.3Z"/><path class="cls-3" d="M52.5,48.28a6.13,6.13,0,1,1-6.13-6.14,6.13,6.13,0,0,1,6.13,6.14Z"/><path class="cls-3" d="M49,54.83h-5.2a7.86,7.86,0,0,0-7.84,7.86v6.47l.44.13A35.47,35.47,0,0,0,47.05,71a21.62,21.62,0,0,0,9.31-1.76l.41-.2h0V62.69A7.87,7.87,0,0,0,49,54.83Z"/><path class="cls-3" d="M43.75,30.41a9.89,9.89,0,1,1-9.89-9.9,9.89,9.89,0,0,1,9.89,9.9Z"/><path class="cls-3" d="M58.88,40.3A9.9,9.9,0,1,0,49,30.41a9.89,9.89,0,0,0,9.88,9.89Z"/><path class="cls-3" d="M41.57,53.87a7.36,7.36,0,0,1,1.15-12,12.51,12.51,0,0,0-4.66-.9H29.67A12.67,12.67,0,0,0,17,53.65V63.93l0,.16.71.21a57.6,57.6,0,0,0,16.93,2.78V62.69a9.11,9.11,0,0,1,6.89-8.82Z"/><path class="cls-3" d="M63.08,41H54.69a12.42,12.42,0,0,0-4.65.9,7.37,7.37,0,0,1,1.14,12,9.1,9.1,0,0,1,6.89,8.82v4.39A57.6,57.6,0,0,0,75,64.3l.71-.21,0-.16V53.65A12.68,12.68,0,0,0,63.08,41Z"/></g></g></svg>