<svg xmlns="http://www.w3.org/2000/svg" xmlns:xlink="http://www.w3.org/1999/xlink" width="284" height="91" viewBox="0 0 284 91"><defs><style>.cls-1{fill:#eaa11b;}.cls-1,.cls-2{fill-rule:evenodd;}.cls-2{fill:url(#GradientFill_1);}.cls-3{fill:#fff;}</style><linearGradient id="GradientFill_1" x1="190.85" y1="91" x2="190.85" gradientUnits="userSpaceOnUse"><stop offset="0" stop-color="#231f20"/><stop offset="1" stop-color="gray"/></linearGradient></defs><title>bt_staff</title><g id="レイヤー_2" data-name="レイヤー 2"><g id="レイヤー_1-2" data-name="レイヤー 1"><path class="cls-1" d="M93.15,0h-82A11.1,11.1,0,0,0,0,11.37V79.63A11.1,11.1,0,0,0,11.13,91h82Z"/><path class="cls-2" d="M190.34,0h81.5C278.24,0,284,5.12,284,11.37V79.64C284,85.88,278.24,91,271.84,91H97.7V0Z"/><path class="cls-3" d="M147.36,49.45a26.32,26.32,0,0,0-4.18-4.05A16.18,16.18,0,0,1,138,49.34a5.51,5.51,0,0,0-1.11-1.51,11.06,11.06,0,0,0,2.73-1.51,13.11,13.11,0,0,0,4.58-5.55l.15-.36-4.51.08a11.42,11.42,0,0,0-1.49.11l-.05-1.75a5.74,5.74,0,0,0,1.2.09h.32l4.8-.07a3.11,3.11,0,0,0,1.21-.15l.9.93a2.47,2.47,0,0,0-.44.73,17.88,17.88,0,0,1-2.12,3.77,22.3,22.3,0,0,1,2.52,2c.34.3.34.3,2,1.9Z"/><path class="cls-3" d="M161.55,40.11a2.45,2.45,0,0,0-.42.92,23,23,0,0,1-1.75,3.75A13.26,13.26,0,0,1,153.17,50,4.25,4.25,0,0,0,152,48.59a14.26,14.26,0,0,0,2.66-1.36,9.72,9.72,0,0,0,2.23-1.9,15.36,15.36,0,0,0-2.79-2l1-1.21A17,17,0,0,1,157.91,44a13,13,0,0,0,1.53-3.22l-4.24,0A14,14,0,0,1,152,44.48a4.38,4.38,0,0,0-1.36-1.09,11.7,11.7,0,0,0,3.42-3.89,8.21,8.21,0,0,0,.79-1.9l1.77.39a8,8,0,0,0-.41.77c-.16.37-.26.53-.32.65.22,0,.22,0,3.54,0a3.59,3.59,0,0,0,1.2-.16Z"/><path class="cls-3" d="M166.84,41.15a15.42,15.42,0,0,1,1.34,3.23l-1.54.5a13.64,13.64,0,0,0-1.24-3.31Zm7.83.09a2.94,2.94,0,0,0-.2.7,11.48,11.48,0,0,1-1.88,4.55,10.4,10.4,0,0,1-4.15,3.29,5,5,0,0,0-1.09-1.35,9,9,0,0,0,2.32-1.26,7.87,7.87,0,0,0,3.09-4.74,5.87,5.87,0,0,0,.24-1.57Zm-4.92-.65a13.41,13.41,0,0,1,1.32,3.14l-1.51.48A15.19,15.19,0,0,0,168.32,41Z"/><path class="cls-3" d="M188.92,39.8a2.09,2.09,0,0,0-.23.61,12.77,12.77,0,0,1-2.79,5.72,13.27,13.27,0,0,1-5.07,3.49,5,5,0,0,0-1.2-1.63,11.21,11.21,0,0,0,3-1.39,9.46,9.46,0,0,0,4.12-6h-6.48a12,12,0,0,0-1.72.08V39a9.92,9.92,0,0,0,1.75.09h6.25a5,5,0,0,0,1.46-.13Z"/><path class="cls-3" d="M195.53,39.39a9.41,9.41,0,0,0,.77-2l1.69.19c-.07.14-.19.41-.31.71-.21.51-.3.74-.48,1.1h4.44a12.1,12.1,0,0,0,1.32-.06,11.49,11.49,0,0,0-.06,1.34V48.4c0,.66-.17,1-.56,1.23a3.62,3.62,0,0,1-1.5.2c-.31,0-.57,0-1.47-.06a4.51,4.51,0,0,0-.36-1.48,16.78,16.78,0,0,0,1.76.12c.53,0,.61,0,.61-.38V40.75h-8.17v7.64a9.53,9.53,0,0,0,.09,1.51h-1.67a8.45,8.45,0,0,0,.08-1.51V40.68c0-.49,0-.84-.05-1.35a11.27,11.27,0,0,0,1.29.06Zm4.44,6.4a5.44,5.44,0,0,0,.07,1.09l-1.15,0H196v1h-1.5a7.37,7.37,0,0,0,.08-1.14V43a6.33,6.33,0,0,0-.06-1,6.88,6.88,0,0,0,1,.05H199a7.4,7.4,0,0,0,1-.05,5.67,5.67,0,0,0-.07,1Zm-4-.27h2.58V43.37H196Z"/><path class="cls-3" d="M209.47,44.78a11.7,11.7,0,0,0-1.55,4.39l-1.58.08a2.58,2.58,0,0,0-.1-.52,19.81,19.81,0,0,1-.49-4.44,29.63,29.63,0,0,1,.5-5.18,5.3,5.3,0,0,0,.1-1l1.8.18a13.83,13.83,0,0,0-.4,1.67,19.24,19.24,0,0,0-.35,2.69c-.07.9-.1,1.29-.1,1.55,0,0,0,.21,0,.43s0,.38,0,1.05v.25c0,.21,0,.29,0,.51a13.53,13.53,0,0,1,.9-2.25Zm-.34-3.93a12.27,12.27,0,0,0,2.42.18c.52,0,.74,0,1.45-.06a20.88,20.88,0,0,0-.18-3l1.73,0a3.94,3.94,0,0,0,0,.46c0,.14,0,.26,0,.87,0,.15,0,.67.06,1.55a7.45,7.45,0,0,0,2-.52l.09,1.62a6.53,6.53,0,0,0-.76.14,9.39,9.39,0,0,1-1.32.23c0,.29,0,.41,0,.66a13.68,13.68,0,0,1-.28,3.26,5.16,5.16,0,0,1-1.56,2.65,8.84,8.84,0,0,1-1.48,1A5.57,5.57,0,0,0,210,48.6a5.67,5.67,0,0,0,2.08-1.48c.71-.86,1-1.82,1-3.84,0-.29,0-.41,0-.86-.46,0-1.17,0-1.85,0l-1.24,0c-.4,0-.45,0-.62,0h-.2Z"/><path class="cls-3" d="M218.36,42.72a6.47,6.47,0,0,0,1.09.07h1a6.72,6.72,0,0,0,1-.07,13.68,13.68,0,0,0-.06,1.49v2.92a1.94,1.94,0,0,0,.63.71,5.41,5.41,0,0,0,3.16.59,40.91,40.91,0,0,0,5.83-.28,6.41,6.41,0,0,0-.4,1.62c-1.15,0-3.13.08-4.75.08-2.35,0-3.12-.1-4-.52a2.94,2.94,0,0,1-1.19-1,14.9,14.9,0,0,1-1.6,1.31c-.15.12-.27.2-.39.31l-.67-1.56A8,8,0,0,0,220,47.09v-3h-.75a5.49,5.49,0,0,0-.91.06Zm1.12-5.08a17,17,0,0,1,2.37,2.46l-1.15,1.1a14,14,0,0,0-2.31-2.55ZM223,39.76a5.61,5.61,0,0,0-1.11.06V38.47a10.24,10.24,0,0,0,1.54.07h2.05a6,6,0,0,0-.08-1h1.53a6,6,0,0,0-.08,1h2.24a15.52,15.52,0,0,0,1.56-.07v1.35a9.26,9.26,0,0,0-1.38-.06h-2.42v.65H229a9.68,9.68,0,0,0,1.13,0,7.73,7.73,0,0,0-.06,1v2.81a7.05,7.05,0,0,0,.06,1c-.38,0-.68,0-1.13,0h-2.11v.65h2.49a11.06,11.06,0,0,0,1.36,0V47.1a9,9,0,0,0-1.36-.07h-2.49a6.77,6.77,0,0,0,.08,1.15h-1.53a7.24,7.24,0,0,0,.1-1.15h-2.17a12.45,12.45,0,0,0-1.35.06V45.78a10.09,10.09,0,0,0,1.35,0h2.17v-.65h-1.94c-.41,0-.79,0-1.13,0a7.46,7.46,0,0,0,.06-1V41.33a7.32,7.32,0,0,0-.06-1,9.2,9.2,0,0,0,1.12,0h2v-.65Zm.82,1.74v.77h1.68V41.5Zm0,1.78v.79h1.68v-.79Zm3-1h1.81V41.5h-1.81Zm0,1.8h1.81v-.79h-1.81Z"/><path class="cls-3" d="M233.64,45.37a18.23,18.23,0,0,1-.53,4.07L231.9,49a13.79,13.79,0,0,0,.56-3.88Zm2.69-.44c-.05-.19-.1-.39-.15-.63a7.78,7.78,0,0,1-.81.1v4.3a8.28,8.28,0,0,0,.08,1.45H234a8.28,8.28,0,0,0,.08-1.45V44.51l-.6,0-.55.05c-.5,0-.62,0-.84.07l-.15-1.42a2.33,2.33,0,0,0,.55,0H233c.24-.33.32-.44.58-.82a13,13,0,0,0-1.7-2.23l.71-1.17.48.56a8.32,8.32,0,0,0,1-2.24l1.35.52a4.52,4.52,0,0,0-.29.5,22.29,22.29,0,0,1-1.21,2.24c.3.39.34.43.49.66a13.21,13.21,0,0,0,1.29-2.42l1.3.64c0,.06-.29.44-.71,1.12s-1.21,1.79-1.83,2.58c.75,0,.94,0,1.39-.1a5.76,5.76,0,0,0-.38-.91l1-.37a11.22,11.22,0,0,1,.75,1.85,8.75,8.75,0,0,0,2.44-1.23,10,10,0,0,1-1.1-1.33,7.92,7.92,0,0,1-1.21,1.12,3.19,3.19,0,0,0-.93-1,7.09,7.09,0,0,0,2-2,6.33,6.33,0,0,0,.91-1.77l1.45.51-.21.35c-.05.09-.08.11-.23.39H242a6.78,6.78,0,0,0,1.19-.07l.72.85a3.55,3.55,0,0,0-.31.49,12.45,12.45,0,0,1-1.8,2.44,10,10,0,0,0,3,1.24,4.79,4.79,0,0,0-.66,1.48c-.24-.08-.3-.11-.49-.16a5,5,0,0,0,0,.75v3a9.62,9.62,0,0,0,.07,1.38h-1.5v-.64h-2.93v.64h-1.47a7.94,7.94,0,0,0,.07-1.35v-3a5,5,0,0,0,0-.74c-.15.06-.23.1-.47.18a4.12,4.12,0,0,0-.25-.57Zm.43.19a23.37,23.37,0,0,1,.52,3.23l-1.12.32a19.2,19.2,0,0,0-.45-3.32Zm5.9-.27h.64a9.7,9.7,0,0,1-2.56-1.42,11.2,11.2,0,0,1-2.44,1.42h4.36Zm-3.34,3.32h2.93v-2h-2.93Zm.13-8.11a5.88,5.88,0,0,0,1.25,1.52A6.73,6.73,0,0,0,242,40h-2.44Z"/><path class="cls-3" d="M46.75,51.67h0Zm-7.54-7.74.06,0c1.21,4.39,4.35,7.69,7.53,7.75,2.91-.13,6.47-3.37,7.66-7.73.55,0,1.1-.61,1.25-1.5s-.17-1.78-.74-1.88c0,0-.07,0-.11,0-.16-7.23-3.59-9.77-7.91-9.89s-8.43,3.12-8.19,9.89c0,0-.08,0-.12,0-.56.1-.9.94-.73,1.88s.74,1.6,1.3,1.5Zm7.86-13.26h0Zm5.74,22.25-4,7.92-.65-5.16,1-.82H44.49l1,.82-.64,5.16-4-7.92c-7,.94-12.07,4-12.07,11.29H64.88c0-7.34-5-10.35-12.07-11.29Zm-31.16,3.9H19.13l3.17-3.18C15.21,54.34,10,57.05,10,64.21H25.52L19.9,58.58ZM33,42.21c-.23,3.15-1.57,6.83-3.5,8.8H37V42.69c0-8.71-4.6-12-10.27-12S16.4,34,16.4,42.69V51h7.46c-1.86-1.9-3.19-5.42-3.49-8.49h.07A9.47,9.47,0,0,0,28,39.21a8.8,8.8,0,0,0,5,3ZM73.72,58.58l-5.63,5.63H83.62c0-7.16-5.22-9.87-12.3-10.57l3.16,3.18H72Zm-8-19.37a9.44,9.44,0,0,0,7.5,3.3h.07C73,45.6,71.63,49.11,69.76,51h7.45V42.69c0-8.71-4.6-12-10.27-12s-10.28,3.3-10.28,12V51h7.46c-1.92-2-3.27-5.65-3.5-8.8a8.83,8.83,0,0,0,5.05-3Z"/></g></g></svg>