<svg xmlns="http://www.w3.org/2000/svg" xmlns:xlink="http://www.w3.org/1999/xlink" width="284" height="74" viewBox="0 0 284 74"><defs><style>.cls-1{fill:none;}.cls-2{isolation:isolate;}.cls-3{fill:silver;}.cls-4{fill:#fff;}.cls-5{clip-path:url(#clip-path);}.cls-6{fill:url(#linear-gradient);}.cls-7{opacity:0.5;mix-blend-mode:multiply;}</style><clipPath id="clip-path"><path class="cls-1" d="M19.29,0a4.58,4.58,0,0,0-4.52,4.89V74l21-14,21,14V4.89C56.8,2.19,55.09,0,52.39,0Z"/></clipPath><linearGradient id="linear-gradient" x1="-1470.67" y1="-306.19" x2="-1469.96" y2="-306.19" gradientTransform="matrix(0, 103.58, 103.58, 0, 31752.11, 152337.84)" gradientUnits="userSpaceOnUse"><stop offset="0" stop-color="#ec931e"/><stop offset="0.07" stop-color="#ffffa2"/><stop offset="0.15" stop-color="#f0e221"/><stop offset="0.9" stop-color="#ec911e"/><stop offset="1" stop-color="#eb871e"/></linearGradient></defs><title>bt_staff_profile</title><g class="cls-2"><g id="レイヤー_2" data-name="レイヤー 2"><g id="レイヤー_1-2" data-name="レイヤー 1"><rect class="cls-3" y="11.38" width="284" height="46.68"/><rect class="cls-4" y="5.69" width="284" height="50.09"/><g class="cls-5"><rect class="cls-6" x="14.77" width="42.03" height="74"/></g><g class="cls-7"><path d="M137,39.74A30,30,0,0,0,132,34.82a17.34,17.34,0,0,1-3,2.85,20.24,20.24,0,0,1-3.12,1.91,3.69,3.69,0,0,0-.77-1,12.57,12.57,0,0,0,3.22-1.83,17.22,17.22,0,0,0,5.68-7.19c0-.1.05-.11.08-.2a.37.37,0,0,0,.05-.11,2.18,2.18,0,0,1-.38,0l-5.32.08a9.83,9.83,0,0,0-1.63.13l0-1.29a7.93,7.93,0,0,0,1.26.08h.41l5.68-.07a2.71,2.71,0,0,0,1-.13l.67.69a3,3,0,0,0-.45.78A19.52,19.52,0,0,1,132.65,34a39.19,39.19,0,0,1,5.29,4.78Z"/><path d="M147.52,26.8a4.91,4.91,0,0,0-.56,1.05,8.71,8.71,0,0,1-.49.88c.22,0,.22,0,4.91-.08a2.94,2.94,0,0,0,.92-.16l.72.71a3.59,3.59,0,0,0-.46,1.06,18.22,18.22,0,0,1-4.15,6.85,17.82,17.82,0,0,1-5,3.29,2.73,2.73,0,0,0-.77-1,14.45,14.45,0,0,0,3.29-1.74,11.06,11.06,0,0,0,2.75-2.52,20,20,0,0,0-3.57-2.58l.74-.81a22.64,22.64,0,0,1,3.51,2.47,19.19,19.19,0,0,0,2.21-4.63l-5.56.08a15.86,15.86,0,0,1-3.79,4.24,2.94,2.94,0,0,0-.92-.76,13.8,13.8,0,0,0,4-4.55,8.77,8.77,0,0,0,.94-2.18Z"/><path d="M159.4,30.85A17.42,17.42,0,0,1,161,34.39l-1.08.36a13.4,13.4,0,0,0-1.49-3.57Zm9-.1A8.47,8.47,0,0,0,168,32a14.49,14.49,0,0,1-1.4,3.57,11.48,11.48,0,0,1-5.27,4.61,2.92,2.92,0,0,0-.73-.89,10.19,10.19,0,0,0,5-4.16A11.75,11.75,0,0,0,167,31.74a6,6,0,0,0,.18-1.09V30.5Zm-5.73-.54a15.3,15.3,0,0,1,1.54,3.43l-1.05.36a13.62,13.62,0,0,0-1.46-3.49Z"/><path d="M185,29a3.2,3.2,0,0,0-.34,1,13.58,13.58,0,0,1-4,6.92,14.57,14.57,0,0,1-5,3,3.11,3.11,0,0,0-.78-1.12,11.71,11.71,0,0,0,3.59-1.69c2.61-1.74,4.11-4,5-7.59h-8.09a10.88,10.88,0,0,0-1.78.1v-1.3a9.07,9.07,0,0,0,1.8.12h7.82a2.17,2.17,0,0,0,1-.13Z"/><path d="M189.82,35.28a15.54,15.54,0,0,1-.93,4.64l-.89-.4a11.46,11.46,0,0,0,.93-4.45Zm-1.79-2a6.62,6.62,0,0,0,.71,0h.59c.53-.7.59-.78,1-1.34A19.23,19.23,0,0,0,188,29.3l.57-.73c.35.36.41.44.67.71a10.69,10.69,0,0,0,1.48-3l1,.47a7.65,7.65,0,0,0-.7,1.22c-.33.63-.7,1.22-1.2,2,.46.55.54.64,1,1.23a16.48,16.48,0,0,0,1.67-3l.93.55c-.07.08-.42.64-1.06,1.65-.49.76-1.18,1.72-2.05,2.83,1.18-.08,1.67-.12,2.59-.25a11.42,11.42,0,0,0-.7-1.4l.72-.36a20.44,20.44,0,0,1,1.36,3l-.78.43c-.12-.43-.17-.57-.28-.91l-1.54.2v5.27a11.64,11.64,0,0,0,.09,1.6h-1.16a11.87,11.87,0,0,0,.1-1.6V34.05l-1.18.1a11.88,11.88,0,0,0-1.38.12ZM193.19,35A17.4,17.4,0,0,1,194,38.8l-.89.26a16.69,16.69,0,0,0-.68-3.81Zm2.44-7.18a10,10,0,0,0-1.62.1V26.86a12.12,12.12,0,0,0,1.63.1h4.93c.65,0,1.13,0,1.43-.05,0,.17,0,.36,0,.91a22.59,22.59,0,0,1-.47,4.05,1.15,1.15,0,0,1-1,1,5.22,5.22,0,0,1-.93,0c-.42,0-.61,0-1.29-.07a2.46,2.46,0,0,0-.26-1.08,9.35,9.35,0,0,0,1.72.22c.49,0,.67-.11.76-.46a16.08,16.08,0,0,0,.42-3.67h-3a6.19,6.19,0,0,1-3.35,5.57,2.23,2.23,0,0,0-.7-.83,5.14,5.14,0,0,0,2.38-2.12,5.63,5.63,0,0,0,.66-2.62Zm.16,12.9h-1.07a14.06,14.06,0,0,0,.08-1.56v-3.6a12.87,12.87,0,0,0-.06-1.49,8.22,8.22,0,0,0,1.27.07h4.45a8.07,8.07,0,0,0,1.26-.07,11.24,11.24,0,0,0-.07,1.49v3.66a11.35,11.35,0,0,0,.08,1.58h-1.08v-1h-4.86Zm0-1.85h4.86V35.06h-4.86Z"/><path d="M211.64,26.54a12.18,12.18,0,0,0,2.9,3.36,18,18,0,0,0,4,2.56,4.1,4.1,0,0,0-.67,1,21.11,21.11,0,0,1-4.21-2.94,13.42,13.42,0,0,1-2.61-3.07,14.5,14.5,0,0,1-2.34,2.87,17.15,17.15,0,0,1-4.23,3.1,3.94,3.94,0,0,0-.68-.95,15.19,15.19,0,0,0,6.61-6Zm-2.48,5.26a11.93,11.93,0,0,0-.09,1.5c0,3.94-1.08,5.85-4.06,7.48a2.86,2.86,0,0,0-.84-.92,6,6,0,0,0,2.7-2A7.33,7.33,0,0,0,208,33.33a9.34,9.34,0,0,0-.11-1.53Zm5,0a10.58,10.58,0,0,0-.11,1.64V38.9a11.52,11.52,0,0,0,.11,1.69H212.9a11.66,11.66,0,0,0,.11-1.68V33.44a10.66,10.66,0,0,0-.11-1.64Z"/></g><path class="cls-3" d="M137,40.63A30,30,0,0,0,132,35.7a17.42,17.42,0,0,1-3,2.86,21,21,0,0,1-3.12,1.91,3.56,3.56,0,0,0-.77-1,12.92,12.92,0,0,0,3.22-1.84,17.22,17.22,0,0,0,5.68-7.19c0-.09.05-.11.08-.19a.54.54,0,0,0,.05-.11,2.18,2.18,0,0,1-.38,0l-5.32.08a10,10,0,0,0-1.63.12l0-1.29a7.93,7.93,0,0,0,1.26.08h.41L134,29a2.94,2.94,0,0,0,1-.13l.67.69a3,3,0,0,0-.45.78,19.65,19.65,0,0,1-2.62,4.46,40.57,40.57,0,0,1,5.29,4.78Z"/><path class="cls-3" d="M147.52,27.68a4.91,4.91,0,0,0-.56,1.05,7,7,0,0,1-.49.88c.22,0,.22,0,4.91-.08a2.45,2.45,0,0,0,.92-.16l.72.72a3.35,3.35,0,0,0-.46,1.05A18.26,18.26,0,0,1,148.41,38a17.81,17.81,0,0,1-5,3.28,2.91,2.91,0,0,0-.77-1,14,14,0,0,0,3.29-1.73A11.25,11.25,0,0,0,148.65,36a20.09,20.09,0,0,0-3.57-2.59l.74-.81a22.64,22.64,0,0,1,3.51,2.47,19.12,19.12,0,0,0,2.21-4.62l-5.56.08a15.86,15.86,0,0,1-3.79,4.24,3,3,0,0,0-.92-.77,13.76,13.76,0,0,0,4-4.54,8.81,8.81,0,0,0,.94-2.19Z"/><path class="cls-3" d="M159.4,31.73A17.42,17.42,0,0,1,161,35.27l-1.08.37a13.26,13.26,0,0,0-1.49-3.57Zm9-.09a7.67,7.67,0,0,0-.35,1.29,14.81,14.81,0,0,1-1.4,3.57,11.59,11.59,0,0,1-5.27,4.61,3.08,3.08,0,0,0-.73-.9,10.14,10.14,0,0,0,5-4.16A11.64,11.64,0,0,0,167,32.62a5.9,5.9,0,0,0,.18-1.08v-.16Zm-5.73-.55a15.71,15.71,0,0,1,1.54,3.43l-1.05.37a13.48,13.48,0,0,0-1.46-3.49Z"/><path class="cls-3" d="M185,29.87c-.11.17-.11.17-.34,1a13.51,13.51,0,0,1-4,6.91,14.57,14.57,0,0,1-5,3,3.07,3.07,0,0,0-.78-1.11A11.71,11.71,0,0,0,178.51,38c2.61-1.74,4.11-4,5-7.59h-8.09a11.06,11.06,0,0,0-1.78.09V29.18a9.18,9.18,0,0,0,1.8.11h7.82a2,2,0,0,0,1-.13Z"/><path class="cls-3" d="M189.82,36.16a15.68,15.68,0,0,1-.93,4.65l-.89-.4a11.5,11.5,0,0,0,.93-4.45Zm-1.79-2c.2,0,.39,0,.71,0h.59c.53-.7.59-.78,1-1.34A18.66,18.66,0,0,0,188,30.19l.57-.74.67.72a10.82,10.82,0,0,0,1.48-3l1,.46a8.11,8.11,0,0,0-.7,1.23c-.33.62-.7,1.21-1.2,2,.46.54.54.64,1,1.23a16.47,16.47,0,0,0,1.67-3l.93.56c-.07.08-.42.64-1.06,1.64-.49.77-1.18,1.72-2.05,2.84,1.18-.08,1.67-.13,2.59-.26a11.42,11.42,0,0,0-.7-1.4l.72-.35a20,20,0,0,1,1.36,3l-.78.43c-.12-.43-.17-.58-.28-.91-.94.13-.94.13-1.54.19v5.28a11.48,11.48,0,0,0,.09,1.59h-1.16a11.71,11.71,0,0,0,.1-1.59V34.94l-1.18.09a10.63,10.63,0,0,0-1.38.13Zm5.16,1.73a17.5,17.5,0,0,1,.78,3.8l-.89.25a16.69,16.69,0,0,0-.68-3.81Zm2.44-7.17a11.56,11.56,0,0,0-1.62.09V27.75a12.33,12.33,0,0,0,1.63.09h4.93c.65,0,1.13,0,1.43-.05,0,.18,0,.37,0,.91a22.47,22.47,0,0,1-.47,4.05,1.18,1.18,0,0,1-1,1,5.67,5.67,0,0,1-.93,0c-.42,0-.61,0-1.29-.06a2.5,2.5,0,0,0-.26-1.09,8.68,8.68,0,0,0,1.72.23c.49,0,.67-.11.76-.46a16.08,16.08,0,0,0,.42-3.67h-3a6.18,6.18,0,0,1-3.35,5.56,2.31,2.31,0,0,0-.7-.83,5,5,0,0,0,2.38-2.12,5.59,5.59,0,0,0,.66-2.61Zm.16,12.9h-1.07a14.19,14.19,0,0,0,.08-1.56V36.45a12.78,12.78,0,0,0-.06-1.48A8.47,8.47,0,0,0,196,35h4.45a8.33,8.33,0,0,0,1.26-.06,11.17,11.17,0,0,0-.07,1.48v3.67a11.45,11.45,0,0,0,.08,1.58h-1.08v-1h-4.86Zm0-1.85h4.86V35.94h-4.86Z"/><path class="cls-3" d="M211.64,27.43a12.48,12.48,0,0,0,2.9,3.36,17.92,17.92,0,0,0,4,2.55,4.29,4.29,0,0,0-.67,1,21.06,21.06,0,0,1-4.21-2.93,13.26,13.26,0,0,1-2.61-3.08,14.22,14.22,0,0,1-2.34,2.87,16.94,16.94,0,0,1-4.23,3.11,4,4,0,0,0-.68-1,15.17,15.17,0,0,0,6.61-5.94Zm-2.48,5.26a11.68,11.68,0,0,0-.09,1.5C209,38.13,208,40,205,41.67a2.8,2.8,0,0,0-.84-.93,6,6,0,0,0,2.7-2A7.35,7.35,0,0,0,208,34.22a9.25,9.25,0,0,0-.11-1.53Zm5,0a10.41,10.41,0,0,0-.11,1.64v5.45a11.43,11.43,0,0,0,.11,1.69H212.9A11.52,11.52,0,0,0,213,39.8V34.33a10.58,10.58,0,0,0-.11-1.64Z"/></g></g></g></svg>