<svg xmlns="http://www.w3.org/2000/svg" width="261.04" height="57.93" viewBox="0 0 261.04 57.93"><defs><style>.cls-1{fill:#705da0;}</style></defs><title>logo</title><g id="レイヤー_2" data-name="レイヤー 2"><g id="レイヤー_1-2" data-name="レイヤー 1"><path class="cls-1" d="M35.81,22.69l-3.11-.05-.14,7.69a10.46,10.46,0,0,1,3.5,8.61c-.16,9.43-7.58,13.8-22.31,13.54l-9.21-.16c-1.24,0-2.3-.71-2.26-2.71s1.11-2.74,2.36-2.72l9.65.17c10.9.19,15.79-2,15.9-8.22a7.09,7.09,0,0,0,0-1c-2.54,2.72-7.15,4.37-13.87,4.25C6,41.89,2.2,38.88,2.28,34.26c.08-4.9,5.35-8.14,15.67-8a33.4,33.4,0,0,1,9,1.18L27,22.54,2.18,22.1C1,22.08,0,21.44,0,19.44s1.12-2.61,2.27-2.59l24.83.44v-.62c0-1.25.74-2,2.88-2s2.83.85,2.81,2.09v.63l3.11.05c1.16,0,2.26.71,2.23,2.67S37,22.71,35.81,22.69ZM18,30.17c-6.41-.11-9.59,1.43-9.63,3.88s2,3.77,8.47,3.89,9.6-1.88,10-5.75C24.68,30.82,21.62,30.23,18,30.17Z"/><path class="cls-1" d="M80.19,40.11l-.44-.19a43.83,43.83,0,0,1-3.1,11.83c-.32.71-1.14,1.9-3.55,1.85-1.86,0-3-1.56-2.44-2.75,1.7-3.27,2.93-7.34,3.75-13.11a58.59,58.59,0,0,0-9.35-2.52c-2.29,13.89-6.85,17.59-12.59,17.49C47,52.61,43.68,49,43.8,42.1,44,33,50.35,29.09,59,29.24l1.16,0c.21-2.09.34-4.45.48-7.07a.92.92,0,0,0-.92-1L49.06,21c-1.15,0-2.21-.66-2.18-2.62S48,15.78,49.16,15.8l14.1.25a3.23,3.23,0,0,1,3.23,3.39c-.16,3.87-.39,7.34-.71,10.41A68.27,68.27,0,0,1,75,31.92c.28-3.29.43-7,.55-11.29,0-.63.75-1.86,2.84-1.82s2.69,1.29,2.68,1.91c-.13,5-.34,9.34-.67,13.07.13.05.22.1.35.14,1.33.52,2,1.82,2,3.6C82.73,40.07,81.21,40.57,80.19,40.11ZM58.4,34.48c-5.48-.1-9.17,2.6-9.25,7.27-.06,3.56,1.69,5,3.6,5,2.81,0,5.3-2.76,6.8-12.26A9.34,9.34,0,0,0,58.4,34.48Z"/><path class="cls-1" d="M125.71,53.5a13.85,13.85,0,0,1-3.57.43c-4.18-.08-6-2.25-5.92-7.32.09-5.34.93-12.62,1-17.6.07-4.14-1.73-5.55-3.77-5.59-3.7-.06-6.4,1.89-13.86,11l-.3,17.31c0,1.2-.75,2.25-2.8,2.22s-2.69-1.12-2.67-2.32L94,41.2c-.73.87-1.45,1.71-2.18,2.54a2.21,2.21,0,0,1-3.41-.86,3.42,3.42,0,0,1,.28-3.56c1.19-1.53,3.46-4.16,5.45-6.44l.13-7.43-4.4-.08c-1.11,0-2-1.15-2-2.79s1-2.75,2.1-2.73l4.4.08,0-1.78c0-1.2.71-2.3,2.76-2.26s2.73,1.16,2.71,2.36l-.14,8.09c6-6.79,9.77-9.08,15-9,4.41.08,8.31,3.39,8.2,9.67-.09,5-.86,13.69-.93,17.65,0,2.13.48,3.21,2,3.24a5,5,0,0,0,1.12-.12,2,2,0,0,1,2.45,2.32C127.61,51.93,126.92,53.16,125.71,53.5Z"/><path class="cls-1" d="M139.65,30.42a2.05,2.05,0,0,1,1.52,1.94l-.39,22.51a2.18,2.18,0,0,1-2.3,2,2.23,2.23,0,0,1-2.28-2.05l.32-18.41c-.78,1.09-2,3.3-3.48,3.27-.85,0-2.26-.66-2.22-2.84a2.79,2.79,0,0,1,.74-2c4-4.65,6.07-11.07,6.42-18.4a2.21,2.21,0,0,1,2.3-1.88,2.5,2.5,0,0,1,2.46,2.18v.05A39.72,39.72,0,0,1,139.65,30.42Zm32,11.46-7.12-.12A20.39,20.39,0,0,0,172.43,52a2,2,0,0,1,.77,1.71,2.64,2.64,0,0,1-2.5,2.58,1.44,1.44,0,0,1-.88-.28,23.19,23.19,0,0,1-8.72-13l-.22,12.41a2.19,2.19,0,0,1-2.34,1.92,2.22,2.22,0,0,1-2.33-2l.22-12.5a22.81,22.81,0,0,1-9.17,12.7,1.65,1.65,0,0,1-.93.29A2.61,2.61,0,0,1,144,53.24a2,2,0,0,1,.83-1.68,20.07,20.07,0,0,0,8.18-10l-7.07-.13a2.23,2.23,0,0,1,.08-4.36l10.54.19.08-4.32-7-.12a3.29,3.29,0,0,1-3.27-3.39l.18-10.23A3.29,3.29,0,0,1,150,15.92l18.6.32a3.3,3.3,0,0,1,3.27,3.4l-.17,10.23a3.31,3.31,0,0,1-3.4,3.28l-7-.13-.08,4.32,10.54.18a2.1,2.1,0,0,1,1.79,2.22A2.07,2.07,0,0,1,171.67,41.88ZM167,21.6a1.1,1.1,0,0,0-1.09-1.13l-13.43-.24a1.11,1.11,0,0,0-1.14,1.1l-.1,6.14a1.1,1.1,0,0,0,1.09,1.13l13.44.23a1.1,1.1,0,0,0,1.13-1.09Z"/><path class="cls-1" d="M216.55,22.69l-5-.09a1.42,1.42,0,0,1,.57.54L216,30a1.47,1.47,0,0,1,.21.8A2.47,2.47,0,0,1,213.7,33a1.92,1.92,0,0,1-1.63-.92l-1.51-2.79c-6,2.12-14.32,2.29-32.87,2a2,2,0,0,1,.07-4l4.09.08L185,22.14,177.41,22a1.9,1.9,0,0,1-1.66-2.07,1.92,1.92,0,0,1,1.73-2l17,.3v-.85a2.63,2.63,0,0,1,5.16.09v.85l16.95.29a1.92,1.92,0,0,1,1.7,2.08A1.92,1.92,0,0,1,216.55,22.69Zm-7,34.94-6.72-.12a1.49,1.49,0,0,1-1.35-1.62,1.47,1.47,0,0,1,1.4-1.53l5.21.09a2,2,0,0,0,1.86-1.93l0-1.91-27-.47-.1,5.65a2.27,2.27,0,0,1-2.44,2A2.31,2.31,0,0,1,178,55.7L178.35,37a3.3,3.3,0,0,1,3.39-3.28l30.07.52a3.31,3.31,0,0,1,3.28,3.4l-.25,14.63A5.11,5.11,0,0,1,209.54,57.63Zm.54-13.43-27-.47-.05,3.16,27,.47Zm.1-5.34a1.1,1.1,0,0,0-1.1-1.13l-24.73-.43a1.1,1.1,0,0,0-1.13,1.09l0,2.14,27,.47ZM190.31,22.23l-3.12,5.24c10.28.18,16.73-.06,21.56-1.49l-.47-.9a2.11,2.11,0,0,1-.17-.72,2.12,2.12,0,0,1,1.24-1.8Z"/><path class="cls-1" d="M257.06,57.93l-32.34-.57A3.3,3.3,0,0,1,221.44,54L222,20.51a3.3,3.3,0,0,1,3.39-3.28l32.35.57A3.29,3.29,0,0,1,261,21.19l-.58,33.46A3.31,3.31,0,0,1,257.06,57.93Zm-.67-35.13a1,1,0,0,0-.92-.95l-27.9-.48a1,1,0,0,0-1,.91l-.52,29.9a1.1,1.1,0,0,0,1.09,1.13l27.58.48a1.11,1.11,0,0,0,1.14-1.09Zm-3.15,29.76a.88.88,0,0,1-.49-.09l-9.39-5.11L243.3,51a2.11,2.11,0,0,1-2.3,1.87,2.15,2.15,0,0,1-2.28-2l.08-4.72c-1.72,2-7.09,5.8-9.76,5.75a1.8,1.8,0,0,1-1.65-1.85,1.56,1.56,0,0,1,1-1.46A16.45,16.45,0,0,0,236.62,44l-3.47-.06a3.29,3.29,0,0,1-3.28-3.39l0-1.69a3.3,3.3,0,0,1,3.39-3.28l16,.28a3.3,3.3,0,0,1,3.28,3.39l0,1.69a3.3,3.3,0,0,1-3.39,3.28l-5.7-.1v.18l5.64,3,2.59-2.67a1,1,0,0,1,.76-.3,1.16,1.16,0,0,1,1.22,1.18,1.06,1.06,0,0,1-.23.66l-2.13,2.28,2.78,1.42a1.37,1.37,0,0,1,.69,1.26A1.53,1.53,0,0,1,253.24,52.56Zm.47-19.21-24.91-.44a1.34,1.34,0,0,1-1.13-1.44,1.29,1.29,0,0,1,1.18-1.36l10.23.18,0-2.67-8.58-.15a1.45,1.45,0,0,1,.05-2.85l8.58.15,0-1.15a2.19,2.19,0,0,1,2.34-1.88,2.16,2.16,0,0,1,2.24,2l0,1.15,8.54.15a1.44,1.44,0,0,1-.05,2.85l-8.54-.15-.05,2.67,10.1.17a1.3,1.3,0,0,1,1.13,1.4A1.35,1.35,0,0,1,253.71,33.35Zm-5.18,6a1.1,1.1,0,0,0-1.09-1.13L235,38a1.1,1.1,0,0,0-1.13,1.09l0,1.38a1,1,0,0,0,1,1l12.68.22a1,1,0,0,0,1-1Z"/><path class="cls-1" d="M5.3,4.39H3.69v.9L5.56,6.67a.51.51,0,0,1,.18.38.59.59,0,0,1-.57.59.38.38,0,0,1-.24-.07l-1.24-1V11a.59.59,0,0,1-.63.51A.59.59,0,0,1,2.43,11V7c-.2.5-.92,2.52-1.58,2.52a.59.59,0,0,1-.6-.55.46.46,0,0,1,.1-.29A12.27,12.27,0,0,0,2.28,4.39H.78a.56.56,0,0,1-.48-.6A.56.56,0,0,1,.78,3.2H2.43V1.91C1.92,2,1.41,2,.94,2a.58.58,0,0,1-.52-.61A.49.49,0,0,1,.87.86,14,14,0,0,0,4.64.34l.15,0a.58.58,0,0,1,.55.6A.52.52,0,0,1,5,1.42c-.36.1-.82.22-1.33.31V3.2H5.3a.57.57,0,0,1,.51.59A.57.57,0,0,1,5.3,4.39Zm5.64,7.15a.54.54,0,0,1-.54-.37l-.18-.81a4.43,4.43,0,0,1-2.79.85H5.7a.63.63,0,0,1-.55-.68.62.62,0,0,1,.55-.66h.24L7.37.46A.62.62,0,0,1,8,0a.64.64,0,0,1,.67.59V.65L7.21,9.87h.28a3.54,3.54,0,0,0,2.44-.73L9.24,6.09a.61.61,0,0,1,.63-.54.58.58,0,0,1,.56.39L11.56,11A.59.59,0,0,1,10.94,11.54Z"/><path class="cls-1" d="M33,2.89h-6.8c-.38,3-.78,5.58-1.12,7.39a.74.74,0,0,1-.81.53c-.67,0-.81-.29-.75-.57.4-1.81.82-4.4,1.16-7.35h-.62c-.32,0-.6-.17-.6-.71s.28-.7.6-.7h.78c0-.08,0-.14,0-.21,0-.26.26-.51.83-.51s.73.34.7.51,0,.13,0,.21H33c.31,0,.61.18.61.7S33.34,2.89,33,2.89Zm0,8h-3c-2.24,0-3.12-.62-3.12-1.89A3.29,3.29,0,0,1,27.2,7.8a1,1,0,0,1,.94-.58c.48,0,.69.37.59.61a1.75,1.75,0,0,0-.21.78c0,.52.29.79,1.77.79H33c.32,0,.62.19.62.73S33.34,10.84,33,10.84Zm0-4.95H28c-.31,0-.6-.17-.6-.71s.29-.72.6-.72H33c.31,0,.61.18.61.72S33.34,5.89,33,5.89Z"/><path class="cls-1" d="M50.68,10.88H47.82c-.32,0-.61-.18-.61-.72s.29-.73.61-.73h2.76c3.08,0,4.05-.78,4.05-1.89,0-.92-.72-1.52-2.26-1.52a5,5,0,0,0-3.71,1.26,1.89,1.89,0,0,1-1.23.42c-.65,0-.77-.49-.74-.68.26-1.17.48-2.56.71-4.07h-.67c-.31,0-.6-.17-.6-.71s.29-.7.6-.7h.88c0-.14,0-.27,0-.4A.79.79,0,0,1,48.5.61c.59,0,.74.36.71.53s0,.26-.06.4h6.29c.31,0,.61.18.61.7s-.3.71-.61.71H49c-.17,1.09-.3,1.93-.42,2.63,0,.14,0,.19.16.09a6.7,6.7,0,0,1,3.92-1c2.54,0,3.65,1.28,3.65,3C56.26,9.68,54.48,10.88,50.68,10.88Z"/><path class="cls-1" d="M74.93,10.91c-.18,0-.53-.14-.53-.73s.36-.84.51-.86c1.66-.31,2.45-1.38,2.45-3.56S76.28,2,73.91,2c-2.86,0-4,1.71-4,4.24,0,1.62.53,2.66,1.3,2.66.94,0,1.68-2,1.86-5.81,0-.16.21-.49.76-.49s.72.33.7.49c-.21,5-1.4,7.53-3.4,7.52-1.56,0-2.66-1.53-2.66-4.37C68.49,3.09,70.06.6,74,.6c3.25,0,4.91,2.1,4.91,5.2C78.88,9.15,77.28,10.6,74.93,10.91Z"/><path class="cls-1" d="M92.62,10.25c0,.15-.18.46-.72.46s-.72-.31-.72-.46a22,22,0,0,1,.57-5.09.88.88,0,0,1,.88-.48c.55,0,.64.31.59.48A21.14,21.14,0,0,0,92.62,10.25Zm7.11-7.79L97.14,4.32a.19.19,0,0,0,0,.32,4.33,4.33,0,0,1,1.62,3.54c0,1.76-1.29,2.76-3.06,2.76a7.94,7.94,0,0,1-1.5-.15c-.31-.07-.47-.42-.47-.87a.6.6,0,0,1,.74-.59,4.76,4.76,0,0,0,.87.09c1.08,0,1.85-.51,1.85-1.5A3.44,3.44,0,0,0,95.63,5a.59.59,0,0,1,0-1l1.9-1.44c.12-.09.09-.16,0-.16h-5c-.29,0-.52-.29-.52-.71s.23-.7.52-.7h7.17c.28,0,.49.26.49.64A.93.93,0,0,1,99.73,2.46Zm1.06,8.25c-.54,0-.74-.31-.74-.47a21.15,21.15,0,0,0-.58-5.08c0-.17,0-.48.58-.48a.87.87,0,0,1,.88.48,21.46,21.46,0,0,1,.57,5.08C101.5,10.4,101.33,10.71,100.79,10.71Z"/><path class="cls-1" d="M118.88,10.94c-2.59,0-3.91-.83-3.91-2.34,0-1.16,1.11-2.12,2.93-2.12a4.19,4.19,0,0,1,1.73.39.86.86,0,0,1,.55.77c0,.55-.51.79-.77.56A2.4,2.4,0,0,0,118,7.68c-1.08,0-1.38.48-1.38.86,0,.68.74,1,2.09,1,2.56,0,3.67-1.19,3.67-2.62s-1.06-2.24-3-2.24a6,6,0,0,0-3.45,1l-1.67,1c-.16.1-.7.19-.7-.58s.2-.87.55-1l5.44-2.77c.13-.07.12-.12,0-.12H114.7c-.31,0-.6-.17-.6-.7s.29-.7.6-.7h7.47c.26,0,.47.15.47.58s-.12.65-.35.76l-3,1.49c.22,0,.79-.06,1-.06,2.13,0,3.78,1.24,3.78,3.38S122.48,10.94,118.88,10.94Z"/><path class="cls-1" d="M145.4,10.78h-4.57c-3.1,0-4.48-1-4.48-2.82a3.71,3.71,0,0,1,.44-1.77,1,1,0,0,1,1-.52c.59,0,.84.46.63.72A1.83,1.83,0,0,0,138,7.63c0,1.13.87,1.72,3.1,1.72h4.35c.31,0,.48.18.48.72S145.71,10.78,145.4,10.78Zm.36-7.23h-1.91a21.23,21.23,0,0,0,1.26,2.7.7.7,0,0,1-.36.93.71.71,0,0,1-1-.15,22.75,22.75,0,0,1-1.58-3.48H137c-.33,0-.62-.18-.62-.74s.29-.75.62-.75h4.79q-.11-.37-.18-.78c0-.16.11-.52.72-.52a.86.86,0,0,1,.89.52c0,.27.12.52.17.78h2.39c.34,0,.64.19.64.75S146.1,3.55,145.76,3.55Z"/><path class="cls-1" d="M168.27,10.84h-4.9c-3,0-4.56-1-4.56-3.36a3.76,3.76,0,0,1,2.41-3.41l-.52-2.85c0-.36.16-.6.79-.6s.81.24.87.6l.38,2.27c.14-.05.28-.08.44-.12a36.51,36.51,0,0,1,5.12-.82c.3,0,.6.21.6.74s-.36.81-.54.82a26,26,0,0,0-4.87.71c-2.23.57-3.06,1.5-3.06,2.62,0,1.5,1.16,2,3.12,2h4.72c.33,0,.63.19.63.73S168.6,10.84,168.27,10.84Z"/><path class="cls-1" d="M183.21,10h-.42a.52.52,0,0,1-.44-.27v1.29c0,.27-.24.45-.56.45s-.58-.18-.58-.45V1.3a.9.9,0,0,1,.93-.9H184c.65,0,.95.37.95.78l-.57,3.34a.43.43,0,0,0,0,.17,3.65,3.65,0,0,1,.7,2.35V8C185.09,9.25,184.54,10,183.21,10Zm.73-3a3.54,3.54,0,0,0-.66-2.18.39.39,0,0,1-.05-.23,1.33,1.33,0,0,1,0-.32l.43-2.51a.18.18,0,0,0-.19-.2h-.88a.26.26,0,0,0-.28.25V9a.47.47,0,0,1,.4-.25h.44c.5,0,.75-.23.75-1Zm7.78-5.42h-.12V9.74A1.55,1.55,0,0,1,190,11.36h-1.2a.6.6,0,0,1-.54-.65.62.62,0,0,1,.54-.65h1a.59.59,0,0,0,.63-.62V1.63H185.7c-.29,0-.5-.21-.5-.62s.25-.61.5-.61h6.06c.31,0,.51.25.51.61A.56.56,0,0,1,191.72,1.63Zm-3.35,7.31h-1.7a.9.9,0,0,1-.9-.9V4.09a.9.9,0,0,1,.9-.9h1.7a.89.89,0,0,1,.9.9V8A.89.89,0,0,1,188.37,8.94Zm-.12-4.26a.29.29,0,0,0-.3-.3h-.86a.29.29,0,0,0-.3.3V7.46a.29.29,0,0,0,.3.3H188a.29.29,0,0,0,.3-.3Z"/><path class="cls-1" d="M207.65,3.83h-.88a.48.48,0,0,1-.43-.51.47.47,0,0,1,.43-.49h.34c.56,0,.77-.14.77-.72V1.88a.31.31,0,0,0-.3-.3h-1.39a2.78,2.78,0,0,1-2.31,2.56h-.06c-.3,0-.5-.35-.5-.61,0-.9,1.38-.31,1.61-2h-1.16a.46.46,0,0,1-.4-.49.45.45,0,0,1,.4-.48H205V.55a.6.6,0,0,1,.64-.53.59.59,0,0,1,.62.53V.61h2a.89.89,0,0,1,.9.9V2.4A1.3,1.3,0,0,1,207.65,3.83Zm6.26,7.72a11.33,11.33,0,0,1-3.08-1,.4.4,0,0,1-.18-.35.73.73,0,0,1,.13-.37h-3.34a.68.68,0,0,1,.15.37.4.4,0,0,1-.18.35,11.43,11.43,0,0,1-3.08,1,.67.67,0,0,1-.64-.64.45.45,0,0,1,.35-.45,12.15,12.15,0,0,0,2.36-.59h-1.55A.89.89,0,0,1,204,9V5a.9.9,0,0,1,.9-.9h8.47a.89.89,0,0,1,.9.9V9a.88.88,0,0,1-.9.9h-1.49a12.08,12.08,0,0,0,2.37.59.44.44,0,0,1,.34.45A.66.66,0,0,1,213.91,11.55Zm-1-6.31A.27.27,0,0,0,212.6,5h-7a.26.26,0,0,0-.26.25v.47h7.56Zm0,1.36h-7.56v.74h7.56Zm0,1.63h-7.56v.45a.29.29,0,0,0,.3.3h7a.3.3,0,0,0,.3-.3Zm.62-4.61h-2.75a.89.89,0,0,1-.9-.9V1.3a.89.89,0,0,1,.9-.9h2.75a.89.89,0,0,1,.9.9V2.72A.89.89,0,0,1,213.49,3.62Zm-.24-2a.29.29,0,0,0-.3-.3h-1.66a.3.3,0,0,0-.3.3v.8a.3.3,0,0,0,.3.3H213a.29.29,0,0,0,.3-.3Z"/><path class="cls-1" d="M231.6,10.73a38.52,38.52,0,0,1-5.24.48.54.54,0,0,1-.48-.56.54.54,0,0,1,.47-.58c.55,0,1.26,0,2-.09V8.64h-1.7a.54.54,0,0,1-.48-.57.53.53,0,0,1,.48-.57h1.7V6.4h-1.13a.89.89,0,0,1-.9-.9V1.3a.89.89,0,0,1,.9-.9h3.49a.88.88,0,0,1,.9.9V5.5a.88.88,0,0,1-.9.9H229.6V7.5h1.7a.53.53,0,0,1,.47.57.54.54,0,0,1-.47.57h-1.7V9.87c.7-.07,1.38-.14,1.9-.24h.08a.49.49,0,0,1,.44.51A.56.56,0,0,1,231.6,10.73ZM228.49,1.5h-.76a.29.29,0,0,0-.3.3V2.88h1.06Zm0,2.42h-1.06V5a.29.29,0,0,0,.3.3h.76Zm2-2.12a.29.29,0,0,0-.3-.3h-.77V2.88h1.07Zm0,2.12h-1.07V5.31h.77a.29.29,0,0,0,.3-.3Zm6.08,4.55a.43.43,0,0,1-.41.25.55.55,0,0,1-.54-.52.39.39,0,0,1,0-.14A8.56,8.56,0,0,0,236.16,6a.23.23,0,0,0-.24-.23h-1v4.27a1.15,1.15,0,0,1-1.23,1.31h-.87a.64.64,0,0,1,0-1.25h.52a.39.39,0,0,0,.38-.41V5.78h-1.47a.58.58,0,0,1-.51-.61.57.57,0,0,1,.51-.6h1.11l-.74-1.52a.25.25,0,0,1,0-.15.49.49,0,0,1,.52-.47.51.51,0,0,1,.48.26l.94,1.86a5,5,0,0,0,1.21-2.74.24.24,0,0,0-.24-.25h-2.94a.55.55,0,0,1-.48-.59.53.53,0,0,1,.48-.57h3.51a.81.81,0,0,1,.85.8,7.38,7.38,0,0,1-1.09,3.37h.5a.84.84,0,0,1,.86.86A9.61,9.61,0,0,1,236.6,8.47Z"/><path class="cls-1" d="M259.42,2.49h-4.53V3.93h3.67a.89.89,0,0,1,.9.9V9.62A1.28,1.28,0,0,1,258,11.05H256.8a.64.64,0,0,1-.55-.69.63.63,0,0,1,.55-.67h.91a.41.41,0,0,0,.42-.43V5.52a.29.29,0,0,0-.3-.3h-2.94V11a.64.64,0,0,1-.68.58.65.65,0,0,1-.7-.58V5.22h-2.95a.29.29,0,0,0-.3.3v5.15a.62.62,0,0,1-.65.56.64.64,0,0,1-.67-.56V4.83a.9.9,0,0,1,.9-.9h3.67V2.49H249a.59.59,0,0,1-.54-.64.59.59,0,0,1,.54-.64h4.56V.56a.68.68,0,0,1,1.33,0v.65h4.55a.59.59,0,0,1,.53.64A.59.59,0,0,1,259.42,2.49Z"/></g></g></svg>