<svg xmlns="http://www.w3.org/2000/svg" width="165.59" height="126.42" viewBox="0 0 165.59 126.42"><defs><style>.cls-1{fill:none;stroke:#764710;stroke-linecap:round;stroke-linejoin:round;stroke-width:2.45px;}.cls-2{fill:#c58442;}.cls-3{fill:#e3b063;}.cls-4{fill:#dca45c;}.cls-5{fill:#d49a54;}.cls-6{fill:#fff;}</style></defs><title>nav_goannai</title><g id="レイヤー_2" data-name="レイヤー 2"><g id="レイヤー_1-2" data-name="レイヤー 1"><polyline class="cls-1" points="8.07 32.24 82.61 2.04 154.1 29.6"/><circle class="cls-2" cx="82.79" cy="3.07" r="3.07"/><path class="cls-3" d="M165.59,31.76V29.59a13.41,13.41,0,0,0-3.68-.31V27.51H4.06a9.37,9.37,0,0,1-.45,1.15C3,29.28.54,29.89,1.16,32.35H0v7.54c.37.13.76.27,1.16.43.61,0,0,2.46,0,3.68A9.68,9.68,0,0,0,0,43.69v6.76c3.74,1.08,3.14,6.21,3.61,11.35H0v7.38a44.45,44.45,0,0,0,4.84,1.21c-.62,1.22,1.22,1.84.61,3.07a5.18,5.18,0,0,0-4.29,0c1.22,3.68.61,7.36,1.22,11,0-.61,1.23-.61,1.23-.61A7.28,7.28,0,0,1,3,90c-.42.83-1.67.54-3,.27v14.34a3.07,3.07,0,0,1,1.16,3.8s-.57-.14-1.16-.22v10.6c2,1,4.91,1,3,4.34,0,.52-1.72.17-3,0v3.22H160.3a9.24,9.24,0,0,1,.39-2c.61-.61,1.84.62,2.45.62,0-1.23,0-1.85.61-2.46a2.27,2.27,0,0,1,1.84.23V118a12.07,12.07,0,0,1-3.68-.93s1.23-1.23.62-1.84a17.54,17.54,0,0,1,3.06.47v-9.6a5.92,5.92,0,0,0-4.9-.08c0-1.22-.62-2.45,0-3.06s2.45,0,3.06,0c1.23-3.68-2.45-1.84-4.29-2.46,5.52-1.84,3.68-4.91,3.68-9.81,0-.62-2.45,1.22-3.68,0,5.52-.62,4.29-6.14,3.07-10.44.86.43,2,0,3.06.06v-4.7a11.85,11.85,0,0,1-2.45-.88c-1.63-.81.27-1.36,2.45-1.81V56.82a21.18,21.18,0,0,0-3.68.07c1.11-3.34.21-6.67,3.68-6.36V44.62h-1.22c.61-4.3-2.46-8.59,0-12.89C164.37,31.38,165,31.43,165.59,31.76Z"/><path class="cls-3" d="M161.91,29.28V27.51H86.24Q43.4,30.78,0,32.6v3.56c55.27-3.39,109.84-6.36,165.22-6.65A15.45,15.45,0,0,0,161.91,29.28Z"/><path class="cls-3" d="M2.81,90.27c28.09-.73,56.29-.93,84.82-.25.49-1.9,6.73-1.32,10.48-.49,10.41,2.39,22.51,3.91,33.43,5.78a62.38,62.38,0,0,0,9,1.07c8.18.17,15.08-2.35,22.71-3.49-.06-.7-.11-1.45-.11-2.25,0-.62-2.45,1.22-3.68,0,4.86-.54,4.49-4.88,3.5-8.84-4.46-.29-9-.49-13.48-.55-25.91-.37-51.56,3.61-77.33,2.5-11-.48-21.77-1.88-32.83-1.93-9.11,0-18.08.82-27,1.65l-8.64.79A7.21,7.21,0,0,1,3,90,1,1,0,0,1,2.81,90.27Z"/><path class="cls-3" d="M2.37,84.39s0,.07,0,.11a.42.42,0,0,1,0-.12Z"/><path class="cls-3" d="M0,90.29v0H.26Z"/><path class="cls-3" d="M64.78,114.16c-21.63-.5-43.21-1.26-64.78-2.08V116c12.65,0,25.3.33,37.89.79,10.2.39,21.38,1.54,31.59,1.24,7.7-.23,15.31-.83,23.21-.93,9.63-.12,19.41-.23,28.77.74,3.35.36,6.65.85,10.08,1,3.15.15,6.33,0,9.48-.08,7.81-.29,15.72-.72,23.61-1a11.38,11.38,0,0,1-2.72-.8s1.23-1.23.62-1.84a17.54,17.54,0,0,1,3.06.47V115C132,115,98.34,114.92,64.78,114.16Z"/><path class="cls-4" d="M43.84,102.91c37.36-5.12,77.58-1.39,117-.1l2.73.08h.18c1.21-3.67-2.46-1.83-4.3-2.45,2-.67,3.06-1.51,3.56-2.55-2.67.51-5.32,1-8.1,1.36-13.12,1.55-26.44-1.51-39.21-3.58C80.6,90,42.14,91.69,5.14,93.49L0,93.74v8C14.67,103.14,28.43,105,43.84,102.91Z"/><path class="cls-3" d="M0,123.2v.08l1.05,0Z"/><path class="cls-3" d="M113.26,119c-11.43-.64-22.78,1.82-34.29,1.45-6.49-.21-12.52-1.27-18.87-1.57-14.89-.72-30.75-.25-45.69-.5-3,0-6,.33-9,.39-1.83,0-3.64,0-5.45-.2v.21c2,1,4.91,1,3,4.34,0,.12-.09.19-.24.23,5.38.19,10.75.36,16.07.45,11.43.21,22.61-.31,34.1.48a152.28,152.28,0,0,0,16.83.68c3.56-.16,7-.63,10.52-.89s7.36-.32,11.07-.36L152.9,123l10.61-.13,2.08,0v-4.27c-6.18.19-12.32.57-18.34,1.16C135.23,120.88,125,119.68,113.26,119Z"/><path class="cls-3" d="M153.55,106c-36.9-.31-73.94-3.27-110.52-1.19-9.86.57-19.76,1.5-29.69,1.18C9,105.9,4.75,105.52.51,105.1a2.9,2.9,0,0,1,.65,3.33s-.57-.14-1.16-.22v.27H41.94a34.42,34.42,0,0,0,8.33,1.42c7.82.45,16.53.1,24.44.13q25.8.1,51.62-.15,19.63-.18,39.26-.5v-3.33Q159.58,106.1,153.55,106Z"/><path class="cls-3" d="M136.11,45.91c-10.41-.33-20.37-2-30.77-2.4-10.7-.38-21.36.63-31.94,1.39A677.35,677.35,0,0,1,0,46.12v4.66H110.77c7.52.17,15.57.36,22.72,0h32.1v-6C155.79,45.31,146,46.22,136.11,45.91Z"/><path class="cls-4" d="M70.24,42.34c9.8-.72,19.58-1.63,29.52-1.8,23.54-.41,42.51,5,64.68,2.51-.12-3.71-2.15-7.42-.16-11.14-12.17.31-24.35.87-36.37,1.46Q63.94,36.47,0,39.78v.11c.37.13.76.27,1.16.43.61,0,0,2.46,0,3.68A9.68,9.68,0,0,0,0,43.69V44C23.46,44.58,47.08,44,70.24,42.34Z"/><path class="cls-3" d="M142.09,75.57c-13.54-.45-26.66-1.77-40.59-1.71-12.81.06-25.81.61-38.31-.55-18.48-1.72-38.75-.67-57.69,0H5.16l-4,.14a27.28,27.28,0,0,1,.92,7.68l4.16-.24L41.83,79a47.47,47.47,0,0,1,6.53,0c8.78.76,13.7,2.87,23.31,3,10.84.21,21.89,0,32.64-.67,14.73-.85,28.31-2.84,43.49-2.3,5.27.19,10.46.62,15.68,1l2.11.12V75.38l-.59,0C157.24,75.66,149.49,75.82,142.09,75.57Z"/><path class="cls-4" d="M144.1,65.45c-12.17.24-24.14-3.18-35.94-1.89-17,1.85-33.1,1.45-50.9,1.38-6.1,0-12.22-.06-18.29-.31-8.51-.37-17-1.2-25.51-.93-4.72.14-9.15.46-13.46.81v5.82l3.73-.16C31,69,58.8,69.71,86.28,70.41l26.91.69c16.6.42,33.44,1.22,49.95,1.52l2.45,0V65c-2.93,0-5.85,0-8.74-.09C152.57,64.84,148.37,65.37,144.1,65.45Z"/><path class="cls-3" d="M161.93,56.84c-49.9-1.78-99.72-4-149.69-5.47-3.64-.11-7.31-.21-11-.28C3.59,52.9,3.21,57.34,3.61,61.8H0V62c10.66.13,21.15.5,30.7.82,9,.31,17.94.72,27,.74,13.75,0,27.39-.85,41.08-1.38,22.24-.87,44.58-.81,66.86-.28V57l-3-.11Z"/><path class="cls-3" d="M4.06,27.51a9.37,9.37,0,0,1-.45,1.15,2.62,2.62,0,0,1-.54.38c10.72-.33,21.32-.86,31.83-1.53Z"/><path class="cls-3" d="M137.36,124.47c-15.43,1-30-1.26-45.64.49-3.4.38-6.74.88-10.24,1A143.31,143.31,0,0,1,67,125.42c-10.09-.62-20.35-.41-30.54-.19-10.5.22-21.94,1-32.4.68-1.35,0-2.69-.11-4-.17v.68H160.3a9.92,9.92,0,0,1,.32-1.82C152.88,124.42,145.1,123.94,137.36,124.47Z"/><path class="cls-3" d="M163.14,125v-.36h-.9A2.34,2.34,0,0,0,163.14,125Z"/><path class="cls-5" d="M91.35,123.74c-3.71,0-7.42.09-11.07.36s-7,.73-10.52.89a152.28,152.28,0,0,1-16.83-.68c-11.49-.79-22.67-.27-34.1-.48-5.32-.09-10.69-.26-16.07-.45l-1.71-.06-1,0v2.46c1.34.06,2.68.13,4,.17,10.46.35,21.9-.46,32.4-.68,10.19-.22,20.45-.43,30.54.19a143.31,143.31,0,0,0,14.51.58c3.5-.16,6.84-.66,10.24-1,15.63-1.75,30.21.55,45.64-.49,7.74-.53,15.52,0,23.26.13l1.62,0h.9a3,3,0,0,1,.37-1.8L152.9,123Z"/><path class="cls-5" d="M141,118.78c-3.15.12-6.33.23-9.48.08-3.43-.17-6.73-.66-10.08-1-9.36-1-19.14-.86-28.77-.74-7.9.1-15.51.7-23.21.93-10.21.3-21.39-.85-31.59-1.24C25.3,116.33,12.65,116,0,116v2.6c1.81.15,3.62.23,5.45.2,3-.06,6-.43,9-.39,14.94.25,30.8-.22,45.69.5,6.35.3,12.38,1.36,18.87,1.57,11.51.37,22.86-2.09,34.29-1.45,11.73.65,22,1.85,34,.68,6-.59,12.16-1,18.34-1.16v-.76l-1,0C156.74,118.06,148.83,118.49,141,118.78Z"/><path class="cls-5" d="M74.71,110c-7.91,0-16.62.32-24.44-.13a34.42,34.42,0,0,1-8.33-1.42H0v3.6c21.57.82,43.15,1.58,64.78,2.08,33.56.76,67.19.88,100.81.84v-5.62q-19.64.3-39.26.5Q100.52,110.11,74.71,110Z"/><path class="cls-5" d="M163.58,102.89l.17,0h-.17Z"/><path class="cls-5" d="M160.69,106c0-1.22-.62-2.45,0-3.06a.44.44,0,0,1,.16-.1c-39.43-1.29-79.65-5-117,.1C28.43,105,14.67,103.14,0,101.76v3.29l.51,0c4.24.42,8.49.8,12.83.93,9.93.32,19.83-.61,29.69-1.18,36.58-2.08,73.62.88,110.52,1.19q6,.06,12,0h0A5.92,5.92,0,0,0,160.69,106Z"/><path class="cls-5" d="M1.16,73.46h0l4-.14A5.27,5.27,0,0,0,1.16,73.46Z"/><path class="cls-5" d="M113.19,71.1l-26.91-.69C58.8,69.71,31,69,3.73,70.17c.37.08.74.16,1.11.22-.59,1.18,1.08,1.79.66,2.93,18.94-.68,39.21-1.73,57.69,0,12.5,1.16,25.5.61,38.31.55,13.93-.06,27.05,1.26,40.59,1.71,7.4.25,15.15.09,22.91-.17a12,12,0,0,1-1.86-.72c-1.63-.81.27-1.36,2.45-1.81v-.22l-2.45,0C146.63,72.32,129.79,71.52,113.19,71.1Z"/><path class="cls-5" d="M98.73,62.13C85,62.66,71.4,63.54,57.65,63.51c-9,0-18-.43-26.95-.74-9.55-.32-20-.69-30.7-.82v2.56c4.31-.35,8.74-.67,13.46-.81,8.52-.27,17,.56,25.51.93,6.07.25,12.19.28,18.29.31,17.8.07,33.87.47,50.9-1.38,11.8-1.29,23.77,2.13,35.94,1.89,4.27-.08,8.47-.61,12.75-.54,2.89,0,5.81.07,8.74.09V61.85C143.31,61.32,121,61.26,98.73,62.13Z"/><path class="cls-5" d="M12.24,51.37c50,1.46,99.79,3.69,149.69,5.47.86-2.63.5-5.24,2-6.06H133.49c-7.15.36-15.2.17-22.72,0H0v.28l1.27,0C4.93,51.16,8.6,51.26,12.24,51.37Z"/><path class="cls-5" d="M162.61,56.86l3,.11v-.15A12.53,12.53,0,0,0,162.61,56.86Z"/><path class="cls-5" d="M147.8,79.06c-15.18-.54-28.76,1.45-43.49,2.3-10.75.63-21.8.88-32.64.67-9.61-.18-14.53-2.29-23.31-3a47.47,47.47,0,0,0-6.53,0L6.24,80.91l-4.16.24a25.32,25.32,0,0,0,.29,3.24h0l1.31-.12,8.64-.79c8.88-.83,17.85-1.7,27-1.65,11.06.05,21.81,1.45,32.83,1.93,25.77,1.11,51.42-2.87,77.33-2.5,4.53.06,9,.26,13.48.55-.14-.54-.29-1.08-.43-1.6.86.43,2,0,3.06.06v-.1L163.48,80C158.26,79.68,153.07,79.25,147.8,79.06Z"/><path class="cls-5" d="M115.71,95.68c12.77,2.07,26.09,5.13,39.21,3.58,2.78-.32,5.43-.85,8.1-1.36.63-1.33.39-3,.23-5-7.63,1.14-14.53,3.66-22.71,3.49a62.38,62.38,0,0,1-9-1.07c-10.92-1.87-23-3.39-33.43-5.78-3.75-.83-10-1.41-10.48.49-28.53-.68-56.73-.48-84.82.25l-2.55.07H0v3.4l5.14-.25C42.14,91.69,80.6,90,115.71,95.68Z"/><path class="cls-5" d="M164.44,43.05c-22.17,2.53-41.14-2.92-64.68-2.51-9.94.17-19.72,1.08-29.52,1.8C47.08,44,23.46,44.58,0,44v2.11A677.35,677.35,0,0,0,73.4,44.9c10.58-.76,21.24-1.77,31.94-1.39,10.4.38,20.36,2.07,30.77,2.4,9.87.31,19.68-.6,29.48-1.17v-.12h-1.22A9.22,9.22,0,0,0,164.44,43.05Z"/><path class="cls-5" d="M34.9,27.51c-10.51.67-21.11,1.2-31.83,1.53-.92.55-2.41,1.33-1.91,3.31H0v.25q43.35-1.82,86.24-5.09Z"/><path class="cls-5" d="M165.22,29.51C109.84,29.8,55.27,32.77,0,36.16v3.62q63.93-3.3,127.91-6.41c12-.59,24.2-1.15,36.37-1.46l1.31,0V29.5Z"/><path class="cls-6" d="M27.09,84.71V67.86H43.5V84.71ZM41.35,69.76h-5V71h3.72v1.26H36.36v1h4.33v1.28H29.88V73.23h4.37v-1H30.51V71h3.74V69.76h-5V82.83H41.35ZM39.61,80.57l1.08.51v1.5l-4.33-2.11V82.3H34.25V80a7.06,7.06,0,0,1-4.37,2.39V80.8a4.77,4.77,0,0,0,3.44-1.87H30.6V75.48H40v3.45H36.36v.12l2.22,1.06,1-1.1h1.35Zm-1.49-4H32.46v1.33h5.66Z"/><path class="cls-6" d="M59.18,84.4V81.9c3.19-.27,4.69-1.94,4.69-5.74,0-3.4-1.71-5.89-5.47-5.89-4.52,0-6.31,2.72-6.31,6.73,0,2.56.85,4.19,2.07,4.19,1.56,0,2.75-3.49,3-10h2.32c-.25,8.49-2.15,12.69-5.43,12.69-2.47,0-4.22-2.43-4.22-6.91,0-5.06,2.49-9,8.68-9,5.15,0,7.79,3.33,7.79,8.25C66.28,81.92,63.35,84.14,59.18,84.4Z"/><path class="cls-6" d="M80.08,84.12c-5.34,0-7-1.52-7-4.33A5.86,5.86,0,0,1,74.41,76H77a5,5,0,0,0-1.45,3.36c0,1.84,1.2,2.43,4.64,2.43h8.23v2.3ZM83,73.37H80.11l2.25-2.09H74.11V69h11v2.28Zm2.91-2.47v-3H87.2v3Zm2.2,0v-3h1.33v3Z"/><path class="cls-6" d="M110.23,71.05V70h-6.69a10.36,10.36,0,0,1-.74,1.54h9.1v1.83h-3.33a7.09,7.09,0,0,1-1.71,1.8l4.37.82v2L105,76.39A20.25,20.25,0,0,1,96.15,78v-1.9h.34a23.14,23.14,0,0,0,5.55-.55l-4-1a12.09,12.09,0,0,0,1-1.12H95.49V71.58h5a7.52,7.52,0,0,0,.82-1.54H97.16v1H95V68.18h7.52v-.63h2.3v.63h7.52v2.87ZM105,80.76h-.15v4.18h-2.3V80.76h-.15C101.22,83.08,99,84.71,95,84.94V83c2.87-.15,4.24-1.08,5.13-2.26H95V78.84h7.52V77.41h2.3v1.43h7.52v1.92h-5.12c.87,1.18,2.24,2.11,5.12,2.26v1.92C108.42,84.71,106.16,83.08,105,80.76Zm-3.4-7.35c-.21.26-.41.49-.62.72l3.4.64a6.46,6.46,0,0,0,1.74-1.36Z"/><path class="cls-6" d="M132.59,84.94h-3.32V82.68h2.47a.59.59,0,0,0,.62-.59V71.68h-4.71l-.06.66a6.84,6.84,0,0,0,3.82,5.89v2.53a8.77,8.77,0,0,1-4.94-4.49,8.6,8.6,0,0,1-4.92,4.49V78.21c2.36-1.08,3.61-3.23,3.77-6.53h-4.74V84.94h-2.29V69.42h7V67.55h2.34v1.87h7V82.83A2,2,0,0,1,132.59,84.94Z"/></g></g></svg>