<svg xmlns="http://www.w3.org/2000/svg" xmlns:xlink="http://www.w3.org/1999/xlink" width="186" height="34" viewBox="0 0 186 34"><defs><style>.cls-1{fill:url(#新規グラデーションスウォッチ_1);}.cls-2{fill:#fff;}</style><linearGradient id="新規グラデーションスウォッチ_1" y1="17" x2="186" y2="17" gradientUnits="userSpaceOnUse"><stop offset="0" stop-color="#2bb8e7"/><stop offset="0.5" stop-color="#00a2e2"/><stop offset="1" stop-color="#0089ce"/></linearGradient></defs><title>top_bt_mail</title><g id="レイヤー_2" data-name="レイヤー 2"><g id="レイヤー_1-2" data-name="レイヤー 1"><rect class="cls-1" width="186" height="34"/><path class="cls-2" d="M32.92,18c-1.81,2.83-5,4.64-9.28,4.75V20.86a9.06,9.06,0,0,0,7.54-3.94,32.61,32.61,0,0,0-6.7-3V12a39.94,39.94,0,0,1,7.59,3.24,11,11,0,0,0,.7-4V10.08h1.94v1.24a13.16,13.16,0,0,1-.92,4.94,17.17,17.17,0,0,1,2.67,2.07v2.44A20.82,20.82,0,0,0,32.92,18Z"/><path class="cls-2" d="M38.75,17.67v-2H51.06v2Z"/><path class="cls-2" d="M55.39,22.73h-2a15.14,15.14,0,0,0,1-6.2V10.09h1.92v6.39C56.25,19.57,55.89,21.75,55.39,22.73Zm5.49,0H58V10.08h1.92V20.8h1.23c1.91,0,3.27-1.51,3.27-5.08V12.37h1.88v3.57C66.27,20.5,64.33,22.71,60.88,22.71Z"/><path class="cls-2" d="M76.37,22.66c-4.76,0-6.35-2.47-6.35-4.78s1.87-4.46,4.76-5.52H68.67V10.59h9.66v1.95c-4.41.82-6.22,3.46-6.22,5.16,0,1.51,1.12,3.09,4.81,3.09h3.52v1.87ZM79,12V9.57H80V12Zm1.75,0V9.57h1V12Z"/><path class="cls-2" d="M90.85,22.78v-2c2.52-.21,3.71-1.53,3.71-4.53,0-2.68-1.35-4.65-4.32-4.65-3.57,0-5,2.15-5,5.31,0,2,.68,3.32,1.63,3.32,1.23,0,2.18-2.76,2.36-7.88h1.83c-.2,6.71-1.7,10-4.29,10-2,0-3.33-1.92-3.33-5.46,0-4,2-7.11,6.85-7.11,4.07,0,6.15,2.63,6.15,6.51C96.46,20.81,94.15,22.57,90.85,22.78Z"/><path class="cls-2" d="M106.24,22.73h-.34V20.89h.31c2.25,0,3.35-1,3.35-2.44,0-1.68-1.31-2.61-4.17-2.61H105v3.67a2.79,2.79,0,0,1-3.09,3.07,3.28,3.28,0,0,1-3.46-3.5c0-2.52,1.64-4.22,4.73-4.74V12.61H99V10.89h4.11V9.79H105v1.1h3.34v1.72H105v1.56h.37c3.86,0,6.17,1.34,6.17,4.31S108.73,22.73,106.24,22.73ZM103.15,16c-2.12.44-2.92,1.56-2.92,2.87s.73,1.83,1.51,1.83c1,0,1.41-.54,1.41-1.64Zm6.77-1.93a21.22,21.22,0,0,0-.45-4h1.71a20.06,20.06,0,0,1,.43,4Z"/><path class="cls-2" d="M115.26,15.58V23.2h-1.74V9.72h5.8v5.86ZM117.71,11h-2.45v1.11h2.45Zm0,2.26h-2.45v1.08h2.45Zm-.77,8.88V16.81h6.13v5.34Zm4.43-3.86h-2.71v2.35h2.71Zm3.52,4.91h-1.62V21.64h1a.47.47,0,0,0,.47-.45V15.58h-4V9.72h5.77V21.56A1.51,1.51,0,0,1,124.89,23.2ZM124.74,11h-2.42v1.11h2.42Zm0,2.26h-2.42v1.08h2.42Z"/><path class="cls-2" d="M140,14.22v1.59H130V14.22a15.74,15.74,0,0,1-1.88.54V12.82a9.44,9.44,0,0,0,5.73-3.34h2.22a9.52,9.52,0,0,0,5.74,3.34v1.94A13.52,13.52,0,0,1,140,14.22ZM128.73,23V17.29h12.54V23ZM135,10.8a10.59,10.59,0,0,1-4.68,3.31h9.37A10.56,10.56,0,0,1,135,10.8Zm4.46,8.13h-8.92V21.4h8.92Z"/><path class="cls-2" d="M155.14,13.71V16c0,1.56-.84,2.41-2.6,2.41a11.06,11.06,0,0,1-2.65-.19V16.47a6.53,6.53,0,0,0,2.25.22c.8,0,1.19-.3,1.19-1.14V13.71h-6.68V18.4c0,1.77.92,2.41,2.67,2.41h6.48v1.84h-6.72c-2.86,0-4.24-1.09-4.24-4V13.71h-1.35V11.86h1.35V10h1.81v1.83h6.68V10h1.81v1.87h1.32v1.85Z"/></g></g></svg>